<?xml version="1.0" encoding="utf-8"?>
<!-- Generator: Adobe Illustrator 23.0.2, SVG Export Plug-In . SVG Version: 6.00 Build 0)  -->
<!DOCTYPE svg PUBLIC "-//W3C//DTD SVG 1.1//EN" "http://www.w3.org/Graphics/SVG/1.1/DTD/svg11.dtd" [
	<!ENTITY ns_extend "http://ns.adobe.com/Extensibility/1.0/">
	<!ENTITY ns_ai "http://ns.adobe.com/AdobeIllustrator/10.0/">
	<!ENTITY ns_graphs "http://ns.adobe.com/Graphs/1.0/">
	<!ENTITY ns_vars "http://ns.adobe.com/Variables/1.0/">
	<!ENTITY ns_imrep "http://ns.adobe.com/ImageReplacement/1.0/">
	<!ENTITY ns_sfw "http://ns.adobe.com/SaveForWeb/1.0/">
	<!ENTITY ns_custom "http://ns.adobe.com/GenericCustomNamespace/1.0/">
	<!ENTITY ns_adobe_xpath "http://ns.adobe.com/XPath/1.0/">
]>
<svg version="1.1" id="Layer_1" xmlns:x="&ns_extend;" xmlns:i="&ns_ai;" xmlns:graph="&ns_graphs;"
	 xmlns="http://www.w3.org/2000/svg" xmlns:xlink="http://www.w3.org/1999/xlink" x="0px" y="0px" viewBox="0 0 595.28 841.89"
	 style="enable-background:new 0 0 595.28 841.89;" xml:space="preserve">
<style type="text/css">
	.st0{fill:url(#SVGID_1_);}
	.st1{fill:#CE8642;}
	.st2{fill:url(#SVGID_2_);}
	.st3{fill:#494949;}
	.st4{fill:url(#SVGID_3_);}
	.st5{fill:#FFFFFF;}
	.st6{fill:#D6D6D6;}
	.st7{fill:#B6B6B6;}
	.st8{fill:none;stroke:#FFF200;stroke-width:0.25;stroke-miterlimit:10;}
	.st9{fill:#959595;}
	.st10{fill:#7B7B7B;}
	.st11{fill:#BBBBBB;}
	.st12{fill:#797979;}
	.st13{fill:#646464;}
	.st14{fill:#2B2B2B;}
	.st15{fill:#5B5B5B;}
	.st16{fill:#404040;}
	.st17{fill:url(#SVGID_4_);}
	.st18{fill:url(#SVGID_5_);}
	.st19{fill:url(#SVGID_6_);}
	.st20{fill:#3E3E3E;}
	.st21{fill:#89340B;}
	.st22{fill:#CA6C29;}
	.st23{fill:#C16225;}
	.st24{fill:#61230C;}
	.st25{fill:#681C0A;}
	.st26{fill:#75270C;}
	.st27{fill:#C66827;}
	.st28{fill:#EBAE58;}
	.st29{fill:#BD6027;}
	.st30{fill:#C76A28;}
	.st31{fill:#B05A22;}
	.st32{fill:#802B0B;}
	.st33{fill:#641E01;}
	.st34{fill:#87390D;}
	.st35{fill:#92420F;}
	.st36{fill:#BF621E;}
	.st37{fill:#C26526;}
	.st38{opacity:0.33;fill:#240E03;}
	.st39{opacity:0.43;fill:#240E03;}
	.st40{fill:#A64412;}
	.st41{fill:#9D4710;}
</style>
<metadata>
	<sfw  xmlns="&ns_sfw;">
		<slices></slices>
		<sliceSourceBounds  bottomLeftOrigin="true" height="617.68" width="570.32" x="12.44" y="-729.79"></sliceSourceBounds>
	</sfw>
</metadata>
<g>
	<linearGradient id="SVGID_1_" gradientUnits="userSpaceOnUse" x1="124.5522" y1="143.4699" x2="483.1331" y2="764.5503">
		<stop  offset="0" style="stop-color:#010101"/>
		<stop  offset="0.2788" style="stop-color:#130901"/>
		<stop  offset="1" style="stop-color:#3F1B00"/>
	</linearGradient>
	<path class="st0" d="M307.36,170.24c9.23,2.15,9.33,4.22,21.7,1.27c12.37-2.95,27.78-4.47,27.59-8.17
		c-0.2-3.71-58.44-58.88-138.05-50.34c-46.72,5.01-67.38,12.66-87.51,27.78c-27.14,24.35-50.9,59.96-54.04,63.85
		c0,11.74,22.85,53.39-37.23,75.36c-8.25,2.73-26.97,33.77-27.37,42.71s9.13,39.25,50.56,55.59c23.17,8.52,41.63,7.44,50.66,1.06
		c9.03-6.38,23.95-29.95,25.92-37.8c1.96-7.85-1.28-26.5,0.69-33.57c1.96-7.07,13.55-20.32,13.55-20.32s17.87,22.58,40.45,30.73
		c0,0,24.15,44.47,53.6,73.93s69.9,71.18,96.41,106.81c26.51,35.64,100.48,130.69,108.09,139.31c11.12,12.59,52.43,75.99,58.9,83.64
		c6.48,7.66,26.8,13.45,48.4-2.06c20.57-14.78,22.44-30.98,23.08-51.66c0.06-1.95-0.72-3.82-2.15-5.15
		c-16.42-15.18-35.07-38.96-47.84-55.11c-13.35-16.89-79.72-101.71-89.93-114.27c-10.21-12.57-45.95-65.58-58.9-85.61
		c-12.88-19.91-67.28-109.88-115.76-153.52c-0.54-0.48-0.8-1.18-0.77-1.9c0.61-12.31-6.13-27.27-16.99-42.7
		c-10.51-14.93-11.9-28.22-7.33-33.6c0.59-0.7,1.54-1.03,2.45-0.87c6.29,1.09,21.29,10.39,26.87,8.95c6.09-1.57,27.1-6.8,33.38-7.43
		C307.68,176.84,305.4,170.24,307.36,170.24z"/>
	<path class="st1" d="M200.11,317.25c11.58-0.39,20.26-1.38,27.5-4.55c13.91-6.09,22.51-20.24,36.16-53.62
		c1.34,1.18,2.77,2.54,4.28,4.06c15.79,15.88,39.85,48.74,47.55,59.85c8.44,12.17,61.65,92.48,70.69,107.6
		c9.03,15.12,55.76,82.66,82.27,113.29c23.97,27.7,68.89,88.15,97.53,116.89c3.03,3.04,5.88,5.73,8.5,7.99
		c0.61,2.35,0.64,6.02-0.09,10.35c-2.59,15.44-14.79,39.24-44.24,41.2c-13.55,1.03-21.5-19.14-29.45-32.99
		S404.65,554.2,373.43,516.5s-53.75-70.83-90.03-103.57c-16.89-14.24-49.53-48.6-61.65-63.72c-8.75-10.91-15.05-20.72-18.52-26.51
		C201.17,319.27,200.11,317.25,200.11,317.25z"/>
	<linearGradient id="SVGID_2_" gradientUnits="userSpaceOnUse" x1="58.5904" y1="369.4132" x2="71.5451" y2="317.4547">
		<stop  offset="0" style="stop-color:#5F5F5F"/>
		<stop  offset="0.1676" style="stop-color:#727272"/>
		<stop  offset="0.5181" style="stop-color:#949494"/>
		<stop  offset="0.8082" style="stop-color:#A8A8A8"/>
		<stop  offset="1" style="stop-color:#B0B0B0"/>
	</linearGradient>
	<path class="st2" d="M23.84,339.34c-5.43-9.27-16-32.45,21.01-27.93s62.83,34.7,66.17,43.39c2.54,6.62,6.68,26.51-36.72,18.46
		C57.56,370.27,29.5,349.02,23.84,339.34z"/>
	<path class="st3" d="M30.61,338.31c11.34,8.1,49.33,30.34,67.59,23.12C97.47,376.75,57.12,372.48,30.61,338.31z"/>
	<path d="M21.92,321.82c0,0,26.21-10.01,61.11,12.52c18.26,12.15,24.89,27.83,24.74,29.16c-7.85-10.26-34.85-45.99-82.66-41.48
		C23.2,322.16,20.64,322.5,21.92,321.82z"/>
	
		<radialGradient id="SVGID_3_" cx="78.1973" cy="319.3627" r="46.399" gradientTransform="matrix(0.848 0.5299 -4.2394 6.7844 1365.7738 -1888.755)" gradientUnits="userSpaceOnUse">
		<stop  offset="0" style="stop-color:#FFFFFF"/>
		<stop  offset="7.885695e-03" style="stop-color:#FDFDFD"/>
		<stop  offset="0.1942" style="stop-color:#DCDCDC"/>
		<stop  offset="0.385" style="stop-color:#C2C2C2"/>
		<stop  offset="0.5799" style="stop-color:#AFAFAF"/>
		<stop  offset="0.7815" style="stop-color:#A4A4A4"/>
		<stop  offset="1" style="stop-color:#A0A0A0"/>
	</radialGradient>
	<path class="st4" d="M25.7,307.19c0,0,13.55-19.63,16.3-22.19c3.44,0,19.24,1.37,27.19-5.01c0,0,13.16,14.53,35.05,13.74
		c0,0,6.28,22.38,26.31,32.99c1.57,19.83-10.31,26.02-10.11,32C119.63,345.08,75.82,300.02,25.7,307.19z"/>
	<path class="st5" d="M120.44,358.73c-0.81-13.65-44.62-58.71-94.74-51.54c0,0,13.55-19.63,16.3-22.19c0,0,2.26,0.07,3.46,0.09
		c0.51,0.69-7.78,7.78-7.97,11.5c-0.18,3.72,2.8,4.57,12.77,6.44C64.23,305.67,117.05,321.87,120.44,358.73z"/>
	<path class="st6" d="M54.91,279.99c20.84-15.54,39.02-25.33,26.95-72.75c0,0,5.96,0.34,12.85,0.01c5.92-0.28,12.26-0.97,16.62-2.63
		c0.08,1.91,0.02,3.6-0.16,5.7C108.95,236.55,87.13,275.81,54.91,279.99z"/>
	<path class="st7" d="M54.91,279.99c20.84-15.54,39.02-25.33,26.95-72.75c0,0,5.96,0.34,12.85,0.01
		C94.7,207.26,104.63,260.95,54.91,279.99z"/>
	<path class="st5" d="M81.86,207.25c0,0,5.96,0.34,12.85,0.01c5.92-0.28,12.4-1,16.62-2.63c0.08,1.91,0.08,2.82-0.1,4.93
		C111.22,209.56,88.26,211.89,81.86,207.25z"/>
	<path class="st8" d="M107.11,214.83"/>
	<path class="st9" d="M73.07,278.23c0,0,2.85,2.68,7.54,5.57c5.81,3.58,14.46,7.48,24.02,6.99c0,0,40.94-56.16,41.33-61.65
		c-0.04-1.14-0.47-2.86-1.14-4.94c-2.56-8-8.55-21.3-8.78-27.26c0,0-6.76,2.5-13.36,4.59c-3.25,1.03-6.46,1.96-8.8,2.44
		c0.09,1.36,0.2,2.92,0.27,4.65C114.83,223.69,113.02,251.71,73.07,278.23z"/>
	<path class="st10" d="M80.61,283.8c-4.69-2.89-7.54-5.57-7.54-5.57c44.52-29.55,41.68-60.97,40.82-74.26
		c2.34-0.49,5.55-1.42,8.8-2.44C130.69,242.66,112.46,261.54,80.61,283.8z"/>
	<path class="st5" d="M104.63,290.79c0,0,40.94-56.16,41.33-61.65c-0.04-1.14-0.47-2.86-1.14-4.94
		C141.94,236.98,102.37,288.63,104.63,290.79z"/>
	<path class="st11" d="M85.49,202.78c0,0,9.4-10.73,20.2-22.77c12.13-13.52,26.03-28.69,30.36-32.16
		c9.57-7.68,25.43-16.1,58.41-22.19c-2.74,2.1-5.58,4.41-8.54,7c-13.41,11.75-29.37,29.36-49.87,59.76
		C132.61,196.55,81.86,206.9,85.49,202.78z"/>
	<path class="st5" d="M105.69,180.02c12.13-13.52,26.03-28.69,30.36-32.16c9.57-7.68,25.43-16.1,58.41-22.19
		c-2.74,2.1-5.58,4.41-8.54,7c-12.86,3.99-26.8,3.9-77.17,46.11C107.09,180.05,105.69,180.02,105.69,180.02z"/>
	<path class="st12" d="M129.79,322.7c0,0-4.39-3.44-9.35-8.86c-4.99-5.45-10.55-12.9-12.85-20.88c-0.12-0.41-0.03-0.84,0.24-1.17
		c4.19-5.15,38.21-47.27,39.41-58.18c0,0,2.24,3.88,5.71,8c3.59,4.26,8.49,8.77,13.58,9.52
		C151.51,258.72,127.36,279.99,129.79,322.7z"/>
	<path class="st13" d="M120.44,313.84c-4.99-5.45-10.55-12.89-12.85-20.87c-0.12-0.41-0.03-0.85,0.24-1.18
		c4.2-5.16,38.21-47.26,39.41-58.18c0,0,2.24,3.88,5.71,8C143.41,247.74,116.76,287.36,120.44,313.84z"/>
	<path class="st14" d="M157.88,281.65c0,0,13.55-11.63,30.19-15.9c7.66-0.88,32.5,38.29,37.9,38.68
		c-6.97,3.44-26.42,7.75-33.49,6.38S167.55,294.9,157.88,281.65z"/>
	<path class="st15" d="M225.96,304.43c-5.4-0.39-28.26-34.25-37.9-38.68c-8.33-3.33-32.19,4.14-46.62,23.87c0,0,0.21-3.49,3.43-9.27
		c2.75-4.94,7.16-11.8,16.06-19.34c12.08-10.25,23.36-6.86,30.9-1.01c4.52,3.51,7.89,8,9.69,11.17
		C206.34,279.6,224.14,303.02,225.96,304.43z"/>
	<path class="st16" d="M144.88,280.34c2.75-4.94,7.16-11.8,16.06-19.34c12.08-10.25,23.36-6.86,30.9-1.01
		C178.95,259.38,162.64,257.81,144.88,280.34z"/>
	<linearGradient id="SVGID_4_" gradientUnits="userSpaceOnUse" x1="247.5191" y1="170.2415" x2="298.3308" y2="170.2415">
		<stop  offset="0" style="stop-color:#8B898A"/>
		<stop  offset="0.0199" style="stop-color:#828081"/>
		<stop  offset="0.0902" style="stop-color:#686566"/>
		<stop  offset="0.171" style="stop-color:#534F50"/>
		<stop  offset="0.2652" style="stop-color:#423E3F"/>
		<stop  offset="0.3819" style="stop-color:#363334"/>
		<stop  offset="0.5456" style="stop-color:#302C2D"/>
		<stop  offset="1" style="stop-color:#2E2A2B"/>
	</linearGradient>
	<path class="st17" d="M247.53,170.28c0,0,13.33,3.83,20.69,6.33c7.36,2.5,20.4-4.71,30.11-4.34c0-2.5-5.3-9.4-21.5-8.91
		C260.63,163.85,247.18,168.47,247.53,170.28z"/>
	<linearGradient id="SVGID_5_" gradientUnits="userSpaceOnUse" x1="273.6163" y1="161.6152" x2="334.5571" y2="161.6152">
		<stop  offset="0" style="stop-color:#8B898A"/>
		<stop  offset="0.0323" style="stop-color:#767475"/>
		<stop  offset="0.0908" style="stop-color:#575556"/>
		<stop  offset="0.157" style="stop-color:#3B3B3B"/>
		<stop  offset="0.2319" style="stop-color:#252525"/>
		<stop  offset="0.3193" style="stop-color:#141414"/>
		<stop  offset="0.4274" style="stop-color:#090909"/>
		<stop  offset="0.579" style="stop-color:#020202"/>
		<stop  offset="1" style="stop-color:#000000"/>
	</linearGradient>
	<path class="st18" d="M273.65,156.39c5.51-0.34,40.93-2.13,60.9,7.36c0,0-9.72,0.79-16.1,3.44c0,0-17.24-9.11-44.79-10.71
		C273.61,156.48,273.59,156.4,273.65,156.39z"/>
	
		<radialGradient id="SVGID_6_" cx="207.9335" cy="183.3971" r="95.7139" gradientTransform="matrix(0.7431 0.6691 -5.353 5.9452 1035.1418 -1046.0626)" gradientUnits="userSpaceOnUse">
		<stop  offset="0" style="stop-color:#FFFFFF"/>
		<stop  offset="4.810274e-03" style="stop-color:#FDFDFD"/>
		<stop  offset="0.1184" style="stop-color:#DCDCDC"/>
		<stop  offset="0.2348" style="stop-color:#C2C2C2"/>
		<stop  offset="0.3538" style="stop-color:#AFAFAF"/>
		<stop  offset="0.4767" style="stop-color:#A4A4A4"/>
		<stop  offset="0.61" style="stop-color:#A0A0A0"/>
	</radialGradient>
	<path class="st19" d="M229.61,301c0,0,31.42-38.29,30.43-53.8c-0.29-4.61-2.8-10.13-6.24-15.99
		c-8.15-13.88-21.62-29.63-23.21-39.58c-1.62-10.1,4.49-29.68,30.09-37.53c13.98-4.29,33.77-5.07,61.29,1.1
		c7.16,1.6,14.83,3.76,23.08,6.41c-6-5.79-33-23.93-64.67-33.97c-24.3-7.71-51.34-10.66-73.76,0.38
		c-13.49,5.78-62.93,54.49-63.52,66.56c-0.31,5.03,0.67,11.35,2.41,17.79c3.29,12.16,9.31,24.72,14.57,29.73
		c2.56,2.43,4.84,3.99,7,4.99c4.63,2.14,8.69,1.68,13.72,1.68c7.36,0,21.06,8.66,29.6,24.95c4.24,8.08,8.99,14.86,12.71,19.64
		c1.04,1.33,1.99,2.51,2.84,3.52C228.19,299.54,229.61,301,229.61,301z"/>
	<path class="st5" d="M233.33,175.85c3.96-8.43,12.28-17.12,27.35-21.74c13.98-4.29,33.77-5.07,61.29,1.1
		c-18.64-8.48-40.44-9.22-57.66-5.54C243.11,154.82,235.19,165.8,233.33,175.85z"/>
	<path class="st5" d="M223.13,293.36c-3.72-4.78-8.47-11.56-12.71-19.64c-8.54-16.29-22.24-24.95-29.6-24.95
		c-5.02,0-9.09,0.46-13.72-1.68c14.75-1.41,20.79,0.8,26.53,3.16c5.74,2.36,16.45,15.24,22.97,29.18
		C219.1,285,223.13,293.36,223.13,293.36z"/>
	<path class="st20" d="M225.96,296.88c2.22,2.66,3.64,4.13,3.64,4.13s31.42-38.29,30.43-53.8c-0.29-4.61-2.8-10.13-6.24-15.99
		c-1.42,15.1-2.82,34.05-14.96,49.12C226.49,295.66,225.96,296.88,225.96,296.88z"/>
	<path class="st5" d="M145.53,212.37c-1.74-6.44-2.72-12.76-2.41-17.79c0.59-12.08,50.03-60.78,63.52-66.56
		c22.42-11.04,49.46-8.09,73.76-0.38c-26.02-2.71-46.01-2.52-66.43,4.95c-20.42,7.46-51.9,38.34-63.89,57.97
		C147.24,195.07,145.53,212.37,145.53,212.37z"/>
	<path class="st5" d="M114.16,208.62c0,0-0.19-3.28-0.27-4.65c2.34-0.49,5.55-1.42,8.8-2.44c6.6-2.09,13.36-4.59,13.36-4.59
		C133.79,202,116.91,208.96,114.16,208.62z"/>
	<path class="st21" d="M370.38,490.53c25.15,31.84,46.44,60.86,54.4,71.62c-12.76-6.77-52.75-56.85-59.47-71.62
		C358.59,475.77,370.38,490.53,370.38,490.53z"/>
	<path class="st22" d="M562.89,704.26c-13.4-15.76-124.72-153.88-147.15-182.95c-28.17-36.52-79.32-76.58-84.43-84.43
		c0,0,39.09,50.66,56.26,64.8s100.03,113.88,107.49,123.7c7.46,9.82,64.07,77.87,65.87,81.06L562.89,704.26z"/>
	<path class="st23" d="M370.59,462.4c-19.24-28.66-80.5-67.54-100.83-102c0,0,53.08,89.43,63.8,106.42c0,0,36.93,45.56,38.4,47.62
		c1.47,2.06-2.21-5.6-10.16-18.11c-7.95-12.52-54.34-75.84-52.87-80.85S370.59,462.4,370.59,462.4z"/>
	<path class="st24" d="M232.45,361.68c0,0-8.5-24.64-23.44-44.91c0,0-0.85,0.08-1.91,0.14c1.74,3.41,17.74,29.16,21.5,40.42
		L232.45,361.68z"/>
	<path class="st24" d="M261.08,391.9c0,0-37.49-66.8-45.62-75.88c0,0-1.73,0.28-3.61,0.47c0,0,21.68,33.23,25.81,41.84
		c4.12,8.61,12.86,22.77,12.86,22.77L261.08,391.9z"/>
	<path class="st25" d="M287.09,416.29c0,0-47.37-87.87-63.57-102.07c0,0-1.82,0.65-3.24,0.92c0,0,30.19,42.17,42.71,66.02
		c12.52,23.86,16.65,28.48,16.65,28.48S286.81,416.03,287.09,416.29z"/>
	<path class="st26" d="M298.97,427.79c0,0-29.21-57.54-71.36-115.09c0,0,39.11,48.58,54.23,73.91
		c15.12,25.33,28.62,49.31,30.11,54.89C311.95,441.5,302.33,431.14,298.97,427.79z"/>
	<path class="st27" d="M546.7,716.42c0,0-127.46-162.88-142.05-176.66c-14.58-13.78-25.62-38.29-21.5-34.75
		s124.29,146.08,134.3,158.75c10.01,12.66,37.29,48.07,37.29,48.07S553.27,713.22,546.7,716.42z"/>
	<path class="st28" d="M351.68,441.21c0,0,46.2,41.86,55.18,52.46c8.98,10.6,60.14,72.45,67.25,80.55s95.14,120.46,95.14,120.46
		l-1.97,3.5c0,0-30.87-39.14-37.55-46.99c-6.68-7.85-115.88-139.13-119.77-145.3C401.56,492.6,340.38,434.35,351.68,441.21z"/>
	<path class="st23" d="M355.72,425.12c0,0,46.2,41.86,55.18,52.46c8.98,10.6,60.14,72.45,67.25,80.55s95.14,120.46,95.14,120.46
		l-1.97,3.5c0,0-30.87-39.14-37.55-46.99S417.89,495.97,414,489.8C405.61,476.5,344.42,418.25,355.72,425.12z"/>
	<path class="st29" d="M261.08,302.23c11.18,7.66,40.78,39.02,44.61,54.04C300.1,352.3,254.46,300.32,261.08,302.23z"/>
	<path class="st30" d="M246.43,295.13c0,0,47.97,65.56,80.76,94.23c0,0-16.69-5.89-83.7-89.96
		C243.5,299.4,246.17,295.7,246.43,295.13z"/>
	<path class="st30" d="M410.29,476.4c0,0-51.64-62.71-86.02-89.46c0,0,17,4.93,88.7,85.03C412.98,471.98,430.07,492.08,410.29,476.4
		z"/>
	<path class="st31" d="M252.07,285.21c0,0,63.93,51.33,74.14,97.28c0,0,6.87,8.82,9.03,9.42c0,0-15.9-56.24-80.32-112.48
		L252.07,285.21z"/>
	<path class="st32" d="M540.6,718.58c0,0-117-152.3-153.57-185.15c0,0,54.14,68.47,66.51,82.61
		c12.37,14.14,79.42,97.59,82.17,103.62C535.72,719.67,539.41,718.93,540.6,718.58z"/>
	<path class="st33" d="M485.86,665.54c0,0,37.93,44.72,46.32,54.6c0,0-1.42,0.28-3.68,0.17c0,0-26.91-34.01-30.32-37.14
		L485.86,665.54z"/>
	<path class="st34" d="M261.59,264.36c0,0,40.32,39.69,44.1,44.86c0,0,32.24,47.12,35.76,52.43c-11.9-10.52-32.03-39.52-43.81-53.23
		c-11.78-13.71-38-39.47-38-39.47L261.59,264.36z"/>
	<path class="st35" d="M258.58,271.39c0,0,45.45,47.68,55.07,60.24s17.32,23.66,23.88,31.66c6.56,8,21.37,36.82,23.14,42.11
		c-5.52-5.42-19.81-25.7-25.42-39.01c-5.62-13.31-36.72-50.66-45.55-59.3c-8.84-8.64-32.02-32.7-32.01-33.68L258.58,271.39z"/>
	<path class="st36" d="M240.62,302.97c0,0,55.95,76.32,113.67,117.98l8.84,10.73c0,0-25.25-12.96-69.47-60.38
		c-15.21-16.94-54.55-66.69-54.55-66.69L240.62,302.97z"/>
	<path class="st37" d="M235.87,307.61c0,0,36.34,45.14,49.47,59.72c13.13,14.58,43.59,48.97,43.59,48.97
		c-26.35-24.53-93.59-103.55-94.64-107.46L235.87,307.61z"/>
	<path class="st38" d="M268.06,263.14c-1.51-1.52-2.95-2.88-4.28-4.06c-20.76,50.76-29.85,57.04-63.67,58.17
		c0,0,1.07,2.02,3.13,5.45c26.47-0.59,40.83-3.4,53.28-27.69C267.11,274.33,268.06,263.14,268.06,263.14z"/>
	<path class="st39" d="M227.49,312.75c-7.24,3.17-15.8,4.11-27.38,4.5c0,0,1.07,2.02,3.13,5.45c3.47,5.79,9.77,15.6,18.52,26.51
		c12.13,15.12,44.77,49.48,61.65,63.72c36.28,32.74,58.81,65.87,90.03,103.57s119.43,156.98,127.38,170.82s15.9,34.02,29.45,32.99
		c37.7-2.5,47.12-40.79,44.33-51.54c-2.62-2.26-5.47-4.94-8.5-7.99c-5.05,21.09-29.34,51.43-46.28,31.25
		c-7.15-8.52-22.4-29.21-38.82-51.88c-22.47-31.03-47.14-65.75-56.21-78.01c-7.96-10.75-29.25-39.78-54.4-71.62
		c-24.45-30.96-52.54-64.57-75.58-86.64C248.07,359.12,227.49,312.75,227.49,312.75z"/>
	<path class="st40" d="M573.12,685.06c0,0-75.54-94.93-80.7-99.06c3.09,7.95,58.12,74.42,64.5,83.35
		c6.38,8.93,14.92,19.44,14.92,19.44L573.12,685.06z"/>
	<path class="st41" d="M574.51,679.11c0.73-4.32,0.7-7.99,0.09-10.35c-2.62-2.26-5.47-4.94-8.5-7.99
		c-28.63-28.74-73.56-89.19-97.53-116.89c2.77,12.94,77.75,100.73,83.06,107.5C556.92,658.16,572.63,678.45,574.51,679.11z"/>
</g>
</svg>
