<svg id="invite-icon" style="overflow: visible;" xmlns="http://www.w3.org/2000/svg" xmlns:xlink="http://www.w3.org/1999/xlink" viewBox="0 0 595.28 593.42">
  <style>
    @keyframes invite-bg {
      from {
        transform: scale(0);
      }
      to {
        transform: scale(1);
      }
    }

    #invite-icon #bg-circle {
      transform-origin: 252.35px 336.56px;
      animation: invite-bg .5s cubic-bezier(0.34, 1.56, 0.64, 1) both;
    }

    #invite-icon #hand,
    #invite-icon #envelope,
    #invite-icon #hand-envelope {
      transform-origin: 2.55px 477.55px;
    }

    @keyframes invite-hand {
      0% {
        transform: rotate(-90deg) translateX(-40px);
      }
      26.08%, 30.43%, 65.23%, 100% {
        transform: none;
        animation-timing-function: cubic-bezier(0.37, 0, 0.63, 1);
      }
      47.83%, 82.63% {
        transform: rotate(10deg);
        animation-timing-function: cubic-bezier(0.37, 0, 0.63, 1);
      }
    }

    #invite-icon #hand {
      animation: invite-hand 2.3s .4s cubic-bezier(0.34, 1.56, 0.64, 1) both;
    }

    @keyframes invite-envelope {
      0%, 17.39% {
        opacity: 0;
        transform: translateY(-130px);
      }
      20% {
        opacity: 1;
      }
      26.08%, 30.43%, 65.23%, 100% {
        opacity: 1;
        transform: none;
        animation-timing-function: cubic-bezier(0.37, 0, 0.63, 1);
      }
      47.83%, 82.63% {
        opacity: 1;
        transform: rotate(10deg);
        animation-timing-function: cubic-bezier(0.37, 0, 0.63, 1);
      }
    }
    #invite-icon #envelope {
      animation: invite-envelope 2.3s .4s cubic-bezier(0.61, 1, 0.88, 1) both;
    }

    @keyframes invite-invite-mask-sparks {
      to {
        stroke-dashoffset: 0;
      }
    }

    #invite-icon #invite-mask-sparks {
      stroke-dasharray: 372;
      stroke-dashoffset: 372;
      animation: invite-invite-mask-sparks .8s 2.5s cubic-bezier(0.37, 0, 0.63, 1) both;
    }

    @keyframes invite-sparks {
      to {
        transform: scale(1.05);
      }
    }

    #invite-icon #sparks {
      transform-origin: 388.38px 234.46px;
      animation: invite-sparks .3s 2.5s cubic-bezier(0.37, 0, 0.63, 1) infinite alternate;
    }


    @keyframes invite-shine {
      0% {
        transform: translateX(-250px);
      }
      25%, 100% {
        transform: translateX(250px);
      }
    }

    #invite-icon #shine {
      animation: invite-shine 4s 2s cubic-bezier(0.37, 0, 0.63, 1) both infinite;
    }
  </style>
  <defs>
    <radialGradient id="invite-gradient" cx="252.35" cy="256.96" r="219.1" gradientTransform="matrix(1, 0, 0, -1, 0, 593.53)" gradientUnits="userSpaceOnUse">
      <stop offset="0" stop-color="#4bbdfe"/>
      <stop offset="1" stop-color="#054ea1"/>
    </radialGradient>
    <mask id="invite-mask">
      <ellipse cx="252.35" cy="336.57" rx="219.32" ry="218.88" fill="#fff"/>
    </mask>
    <mask id="invite-mask-2">
      <path id="invite-mask-sparks" d="M326.84,346.7,490.55,12.84" fill="none" stroke="#fff" stroke-linecap="round" stroke-miterlimit="10" stroke-width="315"/>
    </mask>
    <mask id="invite-mask-3">
      <path d="M266.6,415.37a29.08,29.08,0,0,1-26.86-17.85l-53.84-128a29.16,29.16,0,0,1,15.56-38.15l200.4-84.28A29.1,29.1,0,0,1,440,162.65l53.83,128a29.14,29.14,0,0,1-15.55,38.15L277.88,413.08a28.9,28.9,0,0,1-11.28,2.29Z" fill="#fff"/>
    </mask>
  </defs>
  <g id="bg-circle">
    <ellipse cx="252.35" cy="336.57" rx="237.03" ry="236.55" fill="#0a111f"/>
    <ellipse cx="252.35" cy="336.57" rx="219.32" ry="218.88" fill="url(#invite-gradient)"/>
  </g>
  <g id="hand-envelope">
    <g mask="url(#invite-mask)">
      <g id="hand">
        <path d="M135.52,474s-48.22,8.8-67.22,13.64-53.91,1.74-63.47-7.23a14.33,14.33,0,0,1-1.62-1.87c-.21-.29-.43-.6-.66-.94,12.81-52.18,18.71-69.8,50.61-75.17l49.19-5.9a77.27,77.27,0,0,0,6.9,37.91C118.34,453.84,135.52,474,135.52,474Z" fill="#006b96"/>
        <path d="M188.55,460.3c-2.2,2.55-48.12,21.92-48.12,21.92s-19.19-21.4-30.14-41.48-11-39.44-7.94-44.26,39.89-15.28,39.89-15.28l4.51,6.73-6.17,3.68c3.22,29,26.23,52.89,30.35,56.66s7.06,2.26,9.13,3c.45.17,3.71,1.14,8.52,2.58C189.22,456.52,189.51,459.19,188.55,460.3Z" fill="#003f63"/>
        <path d="M98.44,419.42c-13-1.3-26.4-2.57-38.88,1.27-11.22,3.44-20.79,10.73-30.09,17.87.76-7.57,4.6-14.46,8.62-20.93a32.92,32.92,0,0,1,6.46-8.17c3.59-3,8.21-4.45,12.74-5.64,9.89-2.59,20.37-4.78,30.62-5.2C101.52,398.05,98.52,408.53,98.44,419.42Z" fill="#0285ad"/>
        <path d="M147.39,390.28l-.4.37-.31.29-.59.53-.45.38-.34.27c-.41.3-.55.32-.59.23l-.4-.37-.8-.74-1.6-1.49-3.19-3-.76-.72-2.49.91-16.39,6-16.5,5.69-8.24,2.84-1,.36-.81.29a2.8,2.8,0,0,1-1,.16l-2.33.17-4.33.32c-5.77.41-11.55.87-17.3,1.44S56,405.41,50.41,406.35a51.43,51.43,0,0,0-8,1.84c-.3.11-.59.19-.89.32l-.92.44c-.61.27-1.21.61-1.81.95-1.2.66-2.38,1.41-3.53,2.2a70.17,70.17,0,0,0-6.66,5.23A61.54,61.54,0,0,1,22,422.87l-1.69-1.43a27.12,27.12,0,0,1,5.61-6.95,75,75,0,0,1,6.76-5.9c1.2-.92,2.44-1.8,3.74-2.61.65-.41,1.3-.82,2-1.18l1-.55c.36-.18.76-.33,1.13-.49a55.41,55.41,0,0,1,8.83-2.55c5.79-1.27,11.57-2.22,17.37-3.1s11.58-1.64,17.38-2.34l4.36-.48,2-.21.06,0,.21-.09,1-.39,8.15-3.12,16.29-6.25,16.4-6,7.21-2.63,4.44,4.15,3.19,3,1.6,1.49.8.74.4.38c.09,0,.08.17-.2.6l-.24.37-.35.46-.49.63-.26.33-.35.42Z"/>
        <path d="M22.77,423.18a39.62,39.62,0,0,1-2.53,5.63c-.95,1.82-1.87,3.66-2.77,5.5C15.68,438,14,441.7,12.38,445.45s-3,7.54-4.28,11.32c-.64,1.89-1.21,3.79-1.71,5.67A53.61,53.61,0,0,0,5.13,468a27.92,27.92,0,0,0-.48,5.22A8.78,8.78,0,0,0,5.37,477a2.92,2.92,0,0,0,.3.45c.06.09,0,0,0,0l.2.15a12.89,12.89,0,0,0,1.79,1,35.84,35.84,0,0,0,5.06,1.93,109.94,109.94,0,0,0,23.28,4,133.08,133.08,0,0,0,24-.23c8.08-.69,16.16-1.8,24.22-3.17,16.1-2.73,32.2-6.38,48-10.65h0l1.16-.64,2.1,1.38,9,6h0l-5.69-1,13.31-5.64,6.61-2.81,1.54-.68.18-.08a1.65,1.65,0,0,0-.29.18l-.14.12-.07.06.1-.07.22-.15a3.4,3.4,0,0,1,.45-.28,5.24,5.24,0,0,1,.66-.3c.45-.18.74-.27,1.06-.38l3.52-1.13c4.62-1.43,9.22-2.83,13.71-4.34,1.11-.38,2.22-.76,3.29-1.16l1.53-.59.64-.29c.16-.06.37-.2.18-.05l-.14.11a3.17,3.17,0,0,0-.29.31l-.09.11-.18.24a3.39,3.39,0,0,0-.29.53.69.69,0,0,0-.06.13,1.55,1.55,0,0,0-.05.23s0,0,0,0,0,0,0,0l0-.08a.75.75,0,0,0,.06-.22c.07-.36.1-.86.14-1.37.07-1,.07-2.22.14-3.3l6.36-1.13a23.22,23.22,0,0,1,1,3.89,14.45,14.45,0,0,1,.23,2.24c0,.21,0,.43,0,.69l0,.37c0,.13,0,.3-.06.45a4.8,4.8,0,0,1-.08.48c-.06.22-.13.44-.2.66s-.07.2-.13.35a5.45,5.45,0,0,1-.35.62l-.21.29-.13.15a5,5,0,0,1-.46.46l-.31.26a11.16,11.16,0,0,1-1.38.87c-.35.19-.67.34-1,.5-.63.3-1.22.56-1.81.82-1.17.5-2.32,1-3.47,1.43-4.58,1.81-9.14,3.47-13.67,5.14l-3.32,1.22-.64.26s0,0,.26-.12a4.23,4.23,0,0,0,.4-.24l.19-.14.07-.06-.16.12-.34.22c-.22.14-.49.3-.69.4l-.23.11-1.74.86-6.59,3.14L143,485.74l-3.09,1.42-2.61-2.44h0l-6.3-8.79,3.26.74h0c-4,1.45-7.91,2.8-11.91,4.05s-8,2.44-12,3.57q-12.08,3.38-24.4,5.9T61,494.14a142.66,142.66,0,0,1-25.65.58c-4.27-.28-8.54-.79-12.8-1.48a100.77,100.77,0,0,1-12.77-2.93,48.26,48.26,0,0,1-6.52-2.51,20.66,20.66,0,0,1-3.53-2.14c-.34-.28-.65-.54-1-.86a12.36,12.36,0,0,1-1-1.11,13.54,13.54,0,0,1-1.35-2.16,17.46,17.46,0,0,1-1.64-8.36,34.27,34.27,0,0,1,1-7.09A71.42,71.42,0,0,1,0,453.63c1.76-3.92,3.73-7.69,5.78-11.38s4.2-7.3,6.43-10.86q1.66-2.65,3.4-5.28a30.27,30.27,0,0,1,3.91-5Z"/>
        <path d="M140.09,479.45l-.28.23-.22.18-.41.32-.31.23-.24.16c-.29.18-.39.19-.41.12l-.27-.28-.53-.57-1-1.13-2-2.28q-2-2.3-4-4.65-3.9-4.68-7.57-9.57a185.28,185.28,0,0,1-13.11-20.66,111.65,111.65,0,0,1-5.19-11.14,75.09,75.09,0,0,1-3.75-11.78,48.85,48.85,0,0,1-1.3-12.37c.09-1.05.06-2.09.24-3.13s.29-2.08.54-3.1.52-2,.88-3a17.65,17.65,0,0,1,1.53-2.76l1.33.6a17.49,17.49,0,0,1-.61,2.88c-.21.94-.4,1.88-.62,2.82s-.22,1.91-.35,2.86,0,1.93-.08,2.9a46.08,46.08,0,0,0,1.79,11.49,72.45,72.45,0,0,0,4.12,11,105.87,105.87,0,0,0,5.53,10.48A179.68,179.68,0,0,0,127.15,459q3.58,4.77,7.4,9.36,1.92,2.29,3.88,4.53l2,2.22,1,1.1.5.54.25.27c.06,0,.05.12-.15.39l-.18.23-.24.29-.35.4-.18.21-.25.26Z"/>
        <path d="M323.77,457.78c-8.12,5.57-81.43,11.89-81.43,11.89s-36.67-10.74-53.76-15.8c-4.81-1.44-8.07-2.41-8.52-2.58-2.07-.76-5,.75-9.13-3s-27.13-27.63-30.35-56.66l6.17-3.68,1.63-1s.6-22.61,5.39-29.18S181.4,346.57,182.32,346s31.87-41.71,41.57-40,20.82,15.34,12.62,27.68-26.88,30.62-26.88,30.62l33.2,8.63s45.38-11.47,54.56-9.84S312.5,379,312.5,379s13.4-7.25,25.87,4.73,7.09,26.11,7.09,26.11,1.67,8.46-.7,13.47-9.87,15-9.87,15S331.89,452.2,323.77,457.78Z" fill="#f7c6a4"/>
        <path d="M175,448.78a13.46,13.46,0,0,1,5.18-1,19.43,19.43,0,0,1,4.62.56,26.32,26.32,0,0,1,4.08,1.33c.65.27,1.29.55,1.91.86l.94.48c.34.19.59.32,1,.58l-.92-.45c13.22,4.23,26.56,8.58,39.78,12.13l1.24.34.61.16.52.11c.68.17,1.44.3,2.2.43,1.53.25,3.13.44,4.77.58,3.28.27,6.65.4,10,.46,6.78.11,13.64-.18,20.48-.59s13.67-1.11,20.43-2a140,140,0,0,0,19.73-3.9c.78-.22,1.55-.46,2.3-.72s1.48-.52,2.19-.81,1.37-.59,2.06-.88,1.37-.69,2-1.08a29.31,29.31,0,0,0,7-5.48,23.06,23.06,0,0,0,4.61-7.32A20.92,20.92,0,0,0,333,438.4a16.55,16.55,0,0,0,.2-2c0-.32,0-.63,0-.89l0-.3c0-.07,0-.07.09.24l1.11-4.85c2.25-2.11,4.52-4.26,6.72-6.4l1.6-1.6.72-.76a3.22,3.22,0,0,0,.39-.45,5.36,5.36,0,0,0,.89-2.39,11.25,11.25,0,0,0-1.51-6.48,31.72,31.72,0,0,0-4.87-6.59l-2.47-2.65,2.41-3.12.22-.28c.11-.14.21-.29.31-.44a9.38,9.38,0,0,0,.56-1,9.17,9.17,0,0,0,.77-2,7.2,7.2,0,0,0-.1-3.91,15,15,0,0,0-2.37-4.2,22.19,22.19,0,0,0-3.69-3.75c-2.73-2.17-6-3.54-8.69-3.33A95.07,95.07,0,0,0,313.4,383l-3.94.82-1-3.88c-.15-.59-.4-1.42-.64-2.13s-.53-1.47-.82-2.18a28.52,28.52,0,0,0-2-4,14.12,14.12,0,0,0-2.52-3.11,6.85,6.85,0,0,0-1.33-.95,6,6,0,0,0-1.46-.54,18.94,18.94,0,0,0-4.2-.44,45.83,45.83,0,0,0-4.77.23c-3.25.3-6.58.83-9.91,1.44s-6.68,1.33-10.05,2.06l-5.07,1.1-5,1.13c-6.65,1.56-13.34,3.31-19.89,5.19l-1.69.48-1.53-.92c-.92-.56-2.09-1.2-3.18-1.76s-2.26-1.12-3.4-1.64a71.67,71.67,0,0,0-7-2.74,57.5,57.5,0,0,0-7.22-2,53.83,53.83,0,0,0-7.32-1l-11.09-.92,9.1-6.25L217.68,354l2.43-1.67a17.69,17.69,0,0,0,1.84-1.69,46.78,46.78,0,0,0,3.68-4.38c4.61-6.22,8.14-13.43,9.38-20.82.09-.46.14-.92.21-1.38s.07-.85.11-1.28a16.74,16.74,0,0,0-.06-2.46,12.43,12.43,0,0,0-8.4-10.5,9,9,0,0,0-4.23-.48,4.15,4.15,0,0,0-1.46.51c-.12.07-.49.35-.81.61s-.68.59-1,.92c-2.86,2.63-5.73,5.67-8.55,8.65-5.67,6-11.24,12.17-17,18.27-1.43,1.53-2.88,3.05-4.37,4.56s-3,3-4.72,4.55a30,30,0,0,1-6.06,3.94,58.21,58.21,0,0,1-6.15,2.6c-4,1.5-8.1,2.67-11.33,4.19-.39.18-.73.38-1.1.57l-.45.29-.23.14c-.1.06,0,0-.08.06a6,6,0,0,0-1,1.31,27.15,27.15,0,0,0-2.1,4.92,72.73,72.73,0,0,0-2.68,11.44c-.3,1.95-.55,3.91-.68,5.84-.07,1-.11,1.91-.11,2.82a17.63,17.63,0,0,0,.13,2.52l.47,3.29-3.13,1.23L141.49,396l-3.11-8,8.82-3.4-2.66,4.52a25.48,25.48,0,0,1-.19-3.7c0-1.17.06-2.29.15-3.4.17-2.23.45-4.39.8-6.54a81.11,81.11,0,0,1,3.09-12.78,35.18,35.18,0,0,1,2.86-6.49,13.19,13.19,0,0,1,2.91-3.52,18.47,18.47,0,0,1,3.51-2.08,62.85,62.85,0,0,1,6.24-2.41c2-.67,3.94-1.31,5.82-2,3.74-1.35,7.23-2.88,9.73-5,1.39-1.19,2.85-2.63,4.27-4.06s2.86-2.93,4.28-4.42c5.69-6,11.29-12.11,17-18.2,2.89-3,5.73-6.06,9-9.07.41-.37.84-.75,1.3-1.14a15.51,15.51,0,0,1,1.69-1.25,11.84,11.84,0,0,1,4.36-1.59,16.69,16.69,0,0,1,8,.79,20.48,20.48,0,0,1,11.48,9.79,20.27,20.27,0,0,1,2.22,7.34,22.44,22.44,0,0,1,.1,3.75c-.05.61-.09,1.25-.16,1.83s-.15,1.14-.25,1.7a51.07,51.07,0,0,1-4.06,12.85,64.22,64.22,0,0,1-6.8,11.39,53.12,53.12,0,0,1-4.35,5.14,24.86,24.86,0,0,1-2.76,2.51l-.45.32-.32.22-.64.44-1.29.88-10.28,7.05-2-7.17a63.76,63.76,0,0,1,8.43,1.14,71.32,71.32,0,0,1,8.12,2.17,81.52,81.52,0,0,1,7.8,3c1.27.57,2.53,1.16,3.77,1.8s2.44,1.27,3.78,2.07l-3.22-.43c6.75-2,13.46-3.75,20.28-5.39l5.12-1.18,5.08-1.12c3.39-.75,6.81-1.49,10.28-2.15s7-1.23,10.63-1.59a53.7,53.7,0,0,1,5.6-.28,26.21,26.21,0,0,1,6.1.65,14,14,0,0,1,3.38,1.27,14.41,14.41,0,0,1,2.9,2,22.31,22.31,0,0,1,4.06,4.89,35.74,35.74,0,0,1,2.67,5.22c.37.89.71,1.78,1,2.68s.59,1.75.87,2.84l-4.93-3.07a102.41,102.41,0,0,1,13-2,18.35,18.35,0,0,1,8,1.29,25.9,25.9,0,0,1,6.5,3.77,30.41,30.41,0,0,1,5.15,5.18,22.86,22.86,0,0,1,3.74,6.75,15.58,15.58,0,0,1,.31,8.53,18,18,0,0,1-1.43,3.86,19.09,19.09,0,0,1-1,1.76c-.19.29-.38.57-.59.85l-.33.43c-.13.16-.2.26-.43.52l-.06-5.77a39.9,39.9,0,0,1,6.24,8.44,24.36,24.36,0,0,1,2.09,5.32,17.13,17.13,0,0,1,.45,6.19,14.1,14.1,0,0,1-2.31,6.32,14.28,14.28,0,0,1-1.09,1.36l-.88.95-1.68,1.73c-2.22,2.29-4.43,4.5-6.67,6.72l1.1-4.85a8.19,8.19,0,0,1,.39,1.52c.06.37.09.69.12,1,.06.61.07,1.18.07,1.73a25.67,25.67,0,0,1-.21,3.2,30.84,30.84,0,0,1-1.41,6,32.61,32.61,0,0,1-6.07,10.62,39.14,39.14,0,0,1-9.14,7.8c-.83.55-1.69,1-2.55,1.49s-1.82.95-2.71,1.32-1.8.78-2.69,1.11-1.79.66-2.68,1c-3.56,1.2-7.1,2.14-10.64,3s-7.08,1.53-10.63,2.09-7.1,1.06-10.65,1.48-7.12.71-10.69,1c-7.13.53-14.28.72-21.51.57-3.61-.08-7.24-.27-10.94-.67-1.84-.2-3.71-.45-5.63-.81-1-.18-1.93-.37-2.95-.64l-.75-.19-.65-.19-1.3-.37c-3.44-1-6.82-2.11-10.18-3.24s-6.7-2.27-10-3.49c-6.64-2.4-13.19-4.91-19.75-7.59l-.68-.28-.24-.18c-.07-.05-.33-.22-.52-.33l-.64-.37c-.43-.24-.88-.47-1.32-.69a21.47,21.47,0,0,0-2.68-1.05,11,11,0,0,0-2.46-.49,5,5,0,0,0-1.84.18Z"/>
        <path d="M182.43,457.86c-2.11-.33-3.47-1.67-5-2.78s-2.95-2.35-4.4-3.56c-2.86-2.44-5.69-4.95-8.37-7.62-1.36-1.33-2.61-2.75-3.91-4.13s-2.51-2.84-3.71-4.32-2.36-3-3.4-4.59-2.19-3.14-3.15-4.8l-1.45-2.48-1.3-2.58c-.91-1.69-1.61-3.5-2.35-5.28-1.35-3.59-2.43-7.16-3.47-10.81a97.42,97.42,0,0,1-2.32-11.14,47.29,47.29,0,0,1-.5-5.72,14,14,0,0,1,0-1.45c0-.48,0-1,.06-1.46a4.25,4.25,0,0,1,1.14-2.84l.59.24a8.18,8.18,0,0,1,.37,2.68c0,.44,0,.89.06,1.34s0,.89.11,1.34a49.85,49.85,0,0,0,.93,5.37,94.34,94.34,0,0,0,3.13,10.55c1.19,3.46,2.47,7,3.94,10.29a50.39,50.39,0,0,0,2.28,4.89l1.26,2.4,1.42,2.32c.88,1.58,1.91,3.08,2.93,4.59s2.15,2.95,3.22,4.42,2.23,2.9,3.36,4.34,2.34,2.83,3.59,4.18c2.39,2.8,4.94,5.47,7.55,8.09,1.31,1.29,2.65,2.57,4,3.82s2.86,2.32,3.73,4.22Z"/>
        <path d="M242.45,381.51a8.28,8.28,0,0,1,2.29,2.94l1.87,3.18q1.84,3.18,3.62,6.41c1.15,2.17,2.3,4.35,3.4,6.55s2.1,4.44,3.13,6.67,2,4.51,2.88,6.79,1.73,4.61,2.58,6.92,1.56,4.67,2.23,7c.35,1.18.72,2.35,1,3.55l.47,1.78a3.74,3.74,0,0,1,.11,1.89l-.38.11a3.87,3.87,0,0,1-1-1.63l-.6-1.72c-.39-1.16-.84-2.29-1.28-3.43-.84-2.28-1.8-4.53-2.74-6.78s-1.87-4.49-2.9-6.7-1.95-4.47-3-6.68-2-4.45-3-6.65-2-4.44-3.07-6.64-2.05-4.44-3.11-6.64l-1.61-3.29a9.09,9.09,0,0,1-1.27-3.48Z"/>
        <path d="M336.38,438.52l-.31.05-.24,0-.45.07-.33.05-.24,0c-.29,0-.37,0-.36-.06l-.07-.27-.17-.57-.38-1.14c-.27-.76-.58-1.51-.9-2.25a32.48,32.48,0,0,0-2.27-4.24,19.43,19.43,0,0,0-6.54-6.41,15.61,15.61,0,0,0-4.11-1.61,16.85,16.85,0,0,0-4.58-.2,57,57,0,0,0-9.8,1.86c-6.62,1.7-13.28,3.8-20.11,5.34-3.41.77-6.86,1.44-10.35,1.87-1.74.21-3.49.4-5.25.48a17.38,17.38,0,0,1-5.28-.25v-1.26a34.52,34.52,0,0,1,5.1-.7c1.7-.16,3.38-.43,5.06-.71,3.36-.59,6.69-1.4,10-2.32,6.6-1.84,13-4.23,19.75-6.31a60.69,60.69,0,0,1,10.51-2.34,21.14,21.14,0,0,1,5.77.1,20,20,0,0,1,5.59,2,24.17,24.17,0,0,1,8.19,7.95,37.91,37.91,0,0,1,2.63,4.9c.36.85.71,1.7,1,2.57l.44,1.33.2.67.09.35c0,.06,0,.13-.27.26l-.23.11-.3.13-.43.15-.23.08-.3.09Z"/>
        <path d="M341.9,405l-.28.11-.21.07-.39.16-.3.1-.22.07c-.27.08-.34.06-.34,0l-.14-.26c-.09-.17-.21-.35-.31-.52-.22-.36-.45-.71-.7-1.05a16.56,16.56,0,0,0-1.62-1.93,15.94,15.94,0,0,0-4-3,15.19,15.19,0,0,0-4.69-1.62,20.73,20.73,0,0,0-5.12-.14,56.81,56.81,0,0,0-10.77,2c-3.6,1-7.2,2.1-10.8,3.26-7.22,2.29-14.47,4.66-21.78,6.78q-5.47,1.59-11,3c-1.85.48-3.7.93-5.56,1.37a23.44,23.44,0,0,1-5.7.85l-.2-1.16a40.66,40.66,0,0,1,5.39-1.71q2.73-.75,5.44-1.58c3.62-1.1,7.22-2.27,10.8-3.48,7.18-2.41,14.26-5.07,21.41-7.68,3.59-1.27,7.2-2.51,10.9-3.62a61.54,61.54,0,0,1,11.52-2.48,25.07,25.07,0,0,1,6.22.19,19.61,19.61,0,0,1,6,2.07,20.9,20.9,0,0,1,5.06,3.83,22.42,22.42,0,0,1,2,2.42c.31.43.6.87.88,1.32.14.24.28.46.41.71l.2.36c.05.06,0,.15-.18.34l-.18.14-.26.19-.36.23-.19.12-.26.14Z"/>
        <path d="M313.08,381.45l.07.27.05.2.1.39.06.28,0,.22c0,.25,0,.32,0,.31l-.24.08-.48.16-1,.32-1.93.63-3.87,1.26-7.74,2.51-15.6,4.66c-5.22,1.47-10.45,2.94-15.7,4.35-2.62.69-5.25,1.39-7.89,2-1.32.34-2.64.65-4,.95a13.92,13.92,0,0,1-4.09.53l-.21-1.08a19.47,19.47,0,0,1,3.82-1.33c1.3-.36,2.59-.75,3.88-1.15,2.58-.79,5.16-1.63,7.73-2.47,5.14-1.68,10.27-3.43,15.39-5.19l15.39-5.21,7.73-2.51,3.86-1.26,1.93-.63,1-.32.49-.16.24-.08s.09,0,.21.24l.1.19.12.27.15.37.08.19.1.25Z"/>
        <path d="M248.16,420.1l-2.22-.82-2.19-.9-4.37-1.83-4.31-2c-1.42-.69-2.83-1.4-4.24-2.15a41.66,41.66,0,0,1-4.14-2.49c-1.3-.88-2.59-1.75-3.89-2.59-2.61-1.68-5.26-3.29-8-4.74-5.43-2.84-11.2-5.27-17.24-5.42a86.07,86.07,0,0,0-18.64,1.43A59.14,59.14,0,0,1,197.56,395a28.31,28.31,0,0,1,9.68,1.34,52.5,52.5,0,0,1,8.91,3.72,79,79,0,0,1,8.2,5c1.31.89,2.59,1.83,3.86,2.77s2.47,1.76,3.81,2.59,2.65,1.64,4,2.43l4,2.41,4,2.43,2,1.21Z"/>
      </g>
    </g>
    <g id="envelope">
      <g mask="url(#invite-mask-2)">
        <path id="sparks" d="M305,77.42s18,3.86,43.49-2.75S376.54,20.3,376.54,20.3,386.77,48.15,428,66.11s102.07-29,102.07-29-36.6,43.78-28.51,85.58,78,62.84,78,62.84l-97.57,2.11-29.77-59.31a30.77,30.77,0,0,0-38.43-15l-38.21,14.52Z" fill="#e0b870"/>
      </g>
      <rect x="196.54" y="176.02" width="286.66" height="208.12" rx="34.63" transform="translate(-82 153.66) rotate(-22.81)" fill="#e0b870" stroke="#000" stroke-miterlimit="10" stroke-width="11"/>
      <g mask="url(#invite-mask-3)">
        <polygon id="shine" points="335.17 443.63 344.89 308.52 301.16 443.64 244.3 443.64 337.33 48.91 425.53 48.91 333.87 264.93 441.81 48.91 490.55 48.91 335.17 443.63" fill="#fbebaf"/>
      </g>
      <polyline points="174.36 246.5 354.69 293.24 428.53 139.66" fill="none" stroke="#000" stroke-miterlimit="10" stroke-width="10.75"/>
    </g>
  </g>
</svg>
