<svg width="165" height="48" viewBox="0 0 165 48" fill="none" xmlns="http://www.w3.org/2000/svg">
    <path d="M3.97343 20H0.973427C0.973427 21.6569 2.31657 23 3.97343 23V20ZM3.97343 4.6V1.6C2.31657 1.6 0.973427 2.94314 0.973427 4.6H3.97343ZM14.5774 6.074L12.5337 8.27021L12.5337 8.27021L14.5774 6.074ZM14.4014 13.972L16.2755 16.3146C16.2814 16.3099 16.2873 16.3051 16.2932 16.3003L14.4014 13.972ZM7.36143 15.38V12.38C5.70457 12.38 4.36143 13.7231 4.36143 15.38H7.36143ZM7.36143 20V23C9.01828 23 10.3614 21.6569 10.3614 20H7.36143ZM7.36143 12.366H4.36143C4.36143 14.0229 5.70457 15.366 7.36143 15.366V12.366ZM12.0034 11.706L9.98541 9.48618C9.97406 9.4965 9.96279 9.5069 9.9516 9.51739L12.0034 11.706ZM12.0034 8.274L10.0625 10.5615C10.0761 10.5731 10.0899 10.5845 10.1037 10.5959L12.0034 8.274ZM7.36143 7.658V4.658C5.70457 4.658 4.36143 6.00114 4.36143 7.658H7.36143ZM6.97343 20V4.6H0.973427V20H6.97343ZM3.97343 7.6H10.2654V1.6H3.97343V7.6ZM10.2654 7.6C11.5318 7.6 12.1673 7.9292 12.5337 8.27021L16.6211 3.87779C14.8756 2.25347 12.6364 1.6 10.2654 1.6V7.6ZM12.5337 8.27021C12.9043 8.61503 13.1614 9.07862 13.1614 9.968H19.1614C19.1614 7.63072 18.3626 5.4983 16.6211 3.87779L12.5337 8.27021ZM13.1614 9.968C13.1614 10.9182 12.8816 11.3414 12.5096 11.6437L16.2932 16.3003C18.2679 14.6959 19.1614 12.4498 19.1614 9.968H13.1614ZM12.5273 11.6294C11.9869 12.0617 11.1999 12.38 9.93543 12.38V18.38C12.279 18.38 14.4693 17.7596 16.2755 16.3146L12.5273 11.6294ZM9.93543 12.38H7.36143V18.38H9.93543V12.38ZM4.36143 15.38V20H10.3614V15.38H4.36143ZM7.36143 17H3.97343V23H7.36143V17ZM7.36143 15.366H10.0454V9.366H7.36143V15.366ZM10.0454 15.366C11.408 15.366 12.879 14.9974 14.0553 13.8946L9.9516 9.51739C9.99787 9.47401 10.0474 9.43751 10.096 9.40895C10.144 9.38071 10.1822 9.36539 10.2037 9.35816C10.244 9.34457 10.2049 9.366 10.0454 9.366V15.366ZM14.0214 13.9258C15.1825 12.8703 15.7294 11.4669 15.7294 9.99H9.72943C9.72943 9.99384 9.73 9.90813 9.78503 9.77808C9.84227 9.64279 9.92342 9.54253 9.98541 9.48618L14.0214 13.9258ZM15.7294 9.99C15.7294 8.5377 15.2219 7.03114 13.9031 5.95213L10.1037 10.5959C9.97134 10.4876 9.85522 10.3348 9.78503 10.1689C9.72104 10.0177 9.72943 9.9373 9.72943 9.99H15.7294ZM13.9444 5.98647C12.7493 4.97245 11.2972 4.658 9.97943 4.658V10.658C10.1806 10.658 10.2625 10.6825 10.2609 10.682C10.2583 10.6812 10.2345 10.6737 10.1964 10.6534C10.1576 10.6328 10.111 10.6027 10.0625 10.5615L13.9444 5.98647ZM9.97943 4.658H7.36143V10.658H9.97943V4.658ZM4.36143 7.658V12.366H10.3614V7.658H4.36143ZM16.9087 20H13.9087C13.9087 21.6569 15.2519 23 16.9087 23V20ZM16.9087 4.6V1.6C15.2519 1.6 13.9087 2.94314 13.9087 4.6H16.9087ZM26.4567 14.5L25.4075 11.6895C24.5432 12.0121 23.8754 12.7145 23.5968 13.594C23.3182 14.4735 23.4597 15.4322 23.9806 16.1937L26.4567 14.5ZM30.2187 20V23C31.3315 23 32.3529 22.384 32.8721 21.3998C33.3914 20.4156 33.3232 19.2248 32.6949 18.3063L30.2187 20ZM26.2587 20L23.7763 21.6845C24.3346 22.5073 25.2644 23 26.2587 23V20ZM22.9147 15.072L25.3972 13.3875C24.8388 12.5647 23.9091 12.072 22.9147 12.072V15.072ZM20.2967 15.072V12.072C18.6399 12.072 17.2967 13.4151 17.2967 15.072H20.2967ZM20.2967 20V23C21.9536 23 23.2967 21.6569 23.2967 20H20.2967ZM20.2967 12.08H17.2967C17.2967 13.7369 18.6399 15.08 20.2967 15.08V12.08ZM25.6427 11.486L27.6131 13.7482C27.6267 13.7364 27.6402 13.7244 27.6536 13.7123L25.6427 11.486ZM25.6207 8.23L23.729 10.5583C23.7438 10.5704 23.7587 10.5823 23.7738 10.5941L25.6207 8.23ZM20.2967 7.658V4.658C18.6399 4.658 17.2967 6.00114 17.2967 7.658H20.2967ZM19.9087 20V4.6H13.9087V20H19.9087ZM16.9087 7.6H23.9487V1.6H16.9087V7.6ZM23.9487 7.6C25.3712 7.6 26.0011 7.96903 26.3154 8.28332L30.5581 4.04068C28.7897 2.2723 26.4276 1.6 23.9487 1.6V7.6ZM26.3154 8.28332C26.5219 8.48976 26.7567 8.85365 26.7567 9.726H32.7567C32.7567 7.60635 32.1116 5.59424 30.5581 4.04068L26.3154 8.28332ZM26.7567 9.726C26.7567 10.4335 26.5972 10.7918 26.4639 10.9846C26.3316 11.1762 26.0577 11.4467 25.4075 11.6895L27.506 17.3105C29.0558 16.7319 30.4319 15.7962 31.3995 14.3964C32.3663 12.9978 32.7567 11.3799 32.7567 9.726H26.7567ZM23.9806 16.1937L27.7426 21.6937L32.6949 18.3063L28.9329 12.8063L23.9806 16.1937ZM30.2187 17H26.2587V23H30.2187V17ZM28.7412 18.3155L25.3972 13.3875L20.4323 16.7565L23.7763 21.6845L28.7412 18.3155ZM22.9147 12.072H20.2967V18.072H22.9147V12.072ZM17.2967 15.072V20H23.2967V15.072H17.2967ZM20.2967 17H16.9087V23H20.2967V17ZM20.2967 15.08H23.7287V9.08H20.2967V15.08ZM23.7287 15.08C25.0108 15.08 26.4418 14.7684 27.6131 13.7482L23.6724 9.22375C23.7288 9.17459 23.7849 9.13715 23.8345 9.11016C23.8834 9.08357 23.9191 9.07096 23.934 9.06631C23.9602 9.0582 23.9043 9.08 23.7287 9.08V15.08ZM27.6536 13.7123C28.8058 12.6716 29.3247 11.2854 29.3247 9.858H23.3247C23.3247 9.8582 23.3247 9.83331 23.3331 9.78853C23.3416 9.7429 23.3579 9.68193 23.3872 9.61185C23.4511 9.45926 23.5456 9.33759 23.6319 9.25969L27.6536 13.7123ZM29.3247 9.858C29.3247 8.42842 28.8173 6.92031 27.4677 5.86593L23.7738 10.5941C23.6159 10.4707 23.4786 10.2958 23.3952 10.1027C23.3189 9.92634 23.3247 9.82201 23.3247 9.858H29.3247ZM27.5125 5.90166C26.336 4.94575 24.9269 4.658 23.6627 4.658V10.658C23.7585 10.658 23.8279 10.6635 23.8742 10.6694C23.9205 10.6754 23.94 10.6812 23.938 10.6806C23.9355 10.6799 23.9111 10.6725 23.8718 10.6525C23.8318 10.6321 23.782 10.6015 23.729 10.5583L27.5125 5.90166ZM23.6627 4.658H20.2967V10.658H23.6627V4.658ZM17.2967 7.658V12.08H23.2967V7.658H17.2967ZM31.2012 20H28.2012C28.2012 21.6569 29.5443 23 31.2012 23V20ZM31.2012 4.6V1.6C29.5443 1.6 28.2012 2.94314 28.2012 4.6H31.2012ZM34.5892 4.6H37.5892C37.5892 2.94314 36.246 1.6 34.5892 1.6V4.6ZM34.5892 20V23C36.246 23 37.5892 21.6569 37.5892 20H34.5892ZM34.2012 20V4.6H28.2012V20H34.2012ZM31.2012 7.6H34.5892V1.6H31.2012V7.6ZM31.5892 4.6V20H37.5892V4.6H31.5892ZM34.5892 17H31.2012V23H34.5892V17ZM36.6778 20H33.6778C33.6778 21.6569 35.0209 23 36.6778 23V20ZM36.6778 4.6V1.6C35.0209 1.6 33.6778 2.94314 33.6778 4.6H36.6778ZM40.3298 4.6L42.8777 3.0162C42.3302 2.13552 41.3668 1.6 40.3298 1.6V4.6ZM44.3778 11.112L41.8299 12.6958C42.3774 13.5765 43.3408 14.112 44.3778 14.112C45.4148 14.112 46.3782 13.5765 46.9257 12.6958L44.3778 11.112ZM48.4258 4.6V1.6C47.3888 1.6 46.4254 2.13552 45.8779 3.0162L48.4258 4.6ZM52.0778 4.6H55.0778C55.0778 2.94314 53.7347 1.6 52.0778 1.6V4.6ZM52.0778 20V23C53.7347 23 55.0778 21.6569 55.0778 20H52.0778ZM48.7118 20H45.7118C45.7118 21.6569 47.055 23 48.7118 23V20ZM48.7118 9.946H51.7118C51.7118 8.62099 50.8426 7.4529 49.5734 7.07238C48.3042 6.69185 46.9357 7.18901 46.2067 8.29546L48.7118 9.946ZM44.3778 16.524V19.524C45.3866 19.524 46.3279 19.017 46.8829 18.1745L44.3778 16.524ZM44.2898 16.524L41.7846 18.1744C42.3396 19.0169 43.2809 19.524 44.2898 19.524V16.524ZM39.9998 10.012L42.505 8.3616C41.7761 7.25509 40.4076 6.75785 39.1383 7.13835C37.8691 7.51885 36.9998 8.68696 36.9998 10.012H39.9998ZM39.9998 20V23C41.6567 23 42.9998 21.6569 42.9998 20H39.9998ZM39.6778 20V4.6H33.6778V20H39.6778ZM36.6778 7.6H40.3298V1.6H36.6778V7.6ZM37.7819 6.1838L41.8299 12.6958L46.9257 9.5282L42.8777 3.0162L37.7819 6.1838ZM46.9257 12.6958L50.9737 6.1838L45.8779 3.0162L41.8299 9.5282L46.9257 12.6958ZM48.4258 7.6H52.0778V1.6H48.4258V7.6ZM49.0778 4.6V20H55.0778V4.6H49.0778ZM52.0778 17H48.7118V23H52.0778V17ZM51.7118 20V9.946H45.7118V20H51.7118ZM46.2067 8.29546L41.8727 14.8735L46.8829 18.1745L51.2169 11.5965L46.2067 8.29546ZM44.3778 13.524H44.2898V19.524H44.3778V13.524ZM46.795 14.8736L42.505 8.3616L37.4946 11.6624L41.7846 18.1744L46.795 14.8736ZM36.9998 10.012V20H42.9998V10.012H36.9998ZM39.9998 17H36.6778V23H39.9998V17ZM54.0174 20H51.0174C51.0174 21.6569 52.3606 23 54.0174 23V20ZM54.0174 4.6V1.6C52.3606 1.6 51.0174 2.94314 51.0174 4.6H54.0174ZM65.6334 4.6H68.6334C68.6334 2.94314 67.2903 1.6 65.6334 1.6V4.6ZM65.6334 7.614V10.614C67.2903 10.614 68.6334 9.27085 68.6334 7.614H65.6334ZM57.3834 7.614V4.614C55.7266 4.614 54.3834 5.95715 54.3834 7.614H57.3834ZM57.3834 10.738H54.3834C54.3834 12.3949 55.7266 13.738 57.3834 13.738V10.738ZM64.6434 10.738H67.6434C67.6434 9.08115 66.3003 7.738 64.6434 7.738V10.738ZM64.6434 13.752V16.752C66.3003 16.752 67.6434 15.4089 67.6434 13.752H64.6434ZM57.3834 13.752V10.752C55.7266 10.752 54.3834 12.0951 54.3834 13.752H57.3834ZM57.3834 16.986H54.3834C54.3834 18.6429 55.7266 19.986 57.3834 19.986V16.986ZM65.7434 16.986H68.7434C68.7434 15.3291 67.4003 13.986 65.7434 13.986V16.986ZM65.7434 20V23C67.4003 23 68.7434 21.6569 68.7434 20H65.7434ZM57.0174 20V4.6H51.0174V20H57.0174ZM54.0174 7.6H65.6334V1.6H54.0174V7.6ZM62.6334 4.6V7.614H68.6334V4.6H62.6334ZM65.6334 4.614H57.3834V10.614H65.6334V4.614ZM54.3834 7.614V10.738H60.3834V7.614H54.3834ZM57.3834 13.738H64.6434V7.738H57.3834V13.738ZM61.6434 10.738V13.752H67.6434V10.738H61.6434ZM64.6434 10.752H57.3834V16.752H64.6434V10.752ZM54.3834 13.752V16.986H60.3834V13.752H54.3834ZM57.3834 19.986H65.7434V13.986H57.3834V19.986ZM62.7434 16.986V20H68.7434V16.986H62.7434ZM65.7434 17H54.0174V23H65.7434V17ZM71.8314 20H68.8314C68.8314 21.6569 70.1745 23 71.8314 23V20ZM71.8314 4.6V1.6C70.1745 1.6 68.8314 2.94314 68.8314 4.6H71.8314ZM75.4834 4.6L78.0313 3.0162C77.4838 2.13552 76.5204 1.6 75.4834 1.6V4.6ZM79.5314 11.112L76.9835 12.6958C77.531 13.5765 78.4944 14.112 79.5314 14.112C80.5684 14.112 81.5318 13.5765 82.0793 12.6958L79.5314 11.112ZM83.5794 4.6V1.6C82.5424 1.6 81.579 2.13552 81.0315 3.0162L83.5794 4.6ZM87.2314 4.6H90.2314C90.2314 2.94314 88.8883 1.6 87.2314 1.6V4.6ZM87.2314 20V23C88.8883 23 90.2314 21.6569 90.2314 20H87.2314ZM83.8654 20H80.8654C80.8654 21.6569 82.2085 23 83.8654 23V20ZM83.8654 9.946H86.8654C86.8654 8.62099 85.9962 7.4529 84.727 7.07238C83.4578 6.69185 82.0893 7.18901 81.3603 8.29546L83.8654 9.946ZM79.5314 16.524V19.524C80.5402 19.524 81.4815 19.017 82.0365 18.1745L79.5314 16.524ZM79.4434 16.524L76.9382 18.1744C77.4932 19.0169 78.4345 19.524 79.4434 19.524V16.524ZM75.1534 10.012L77.6586 8.3616C76.9297 7.25509 75.5611 6.75785 74.2919 7.13835C73.0227 7.51885 72.1534 8.68696 72.1534 10.012H75.1534ZM75.1534 20V23C76.8103 23 78.1534 21.6569 78.1534 20H75.1534ZM74.8314 20V4.6H68.8314V20H74.8314ZM71.8314 7.6H75.4834V1.6H71.8314V7.6ZM72.9355 6.1838L76.9835 12.6958L82.0793 9.5282L78.0313 3.0162L72.9355 6.1838ZM82.0793 12.6958L86.1273 6.1838L81.0315 3.0162L76.9835 9.5282L82.0793 12.6958ZM83.5794 7.6H87.2314V1.6H83.5794V7.6ZM84.2314 4.6V20H90.2314V4.6H84.2314ZM87.2314 17H83.8654V23H87.2314V17ZM86.8654 20V9.946H80.8654V20H86.8654ZM81.3603 8.29546L77.0263 14.8735L82.0365 18.1745L86.3705 11.5965L81.3603 8.29546ZM79.5314 13.524H79.4434V19.524H79.5314V13.524ZM81.9486 14.8736L77.6586 8.3616L72.6482 11.6624L76.9382 18.1744L81.9486 14.8736ZM72.1534 10.012V20H78.1534V10.012H72.1534ZM75.1534 17H71.8314V23H75.1534V17ZM89.171 20H86.171C86.171 21.6569 87.5142 23 89.171 23V20ZM89.171 4.6V1.6C87.5142 1.6 86.171 2.94314 86.171 4.6H89.171ZM100.787 4.6H103.787C103.787 2.94314 102.444 1.6 100.787 1.6V4.6ZM100.787 7.614V10.614C102.444 10.614 103.787 9.27085 103.787 7.614H100.787ZM92.537 7.614V4.614C90.8802 4.614 89.537 5.95715 89.537 7.614H92.537ZM92.537 10.738H89.537C89.537 12.3949 90.8802 13.738 92.537 13.738V10.738ZM99.797 10.738H102.797C102.797 9.08115 101.454 7.738 99.797 7.738V10.738ZM99.797 13.752V16.752C101.454 16.752 102.797 15.4089 102.797 13.752H99.797ZM92.537 13.752V10.752C90.8802 10.752 89.537 12.0951 89.537 13.752H92.537ZM92.537 16.986H89.537C89.537 18.6429 90.8802 19.986 92.537 19.986V16.986ZM100.897 16.986H103.897C103.897 15.3291 102.554 13.986 100.897 13.986V16.986ZM100.897 20V23C102.554 23 103.897 21.6569 103.897 20H100.897ZM92.171 20V4.6H86.171V20H92.171ZM89.171 7.6H100.787V1.6H89.171V7.6ZM97.787 4.6V7.614H103.787V4.6H97.787ZM100.787 4.614H92.537V10.614H100.787V4.614ZM89.537 7.614V10.738H95.537V7.614H89.537ZM92.537 13.738H99.797V7.738H92.537V13.738ZM96.797 10.738V13.752H102.797V10.738H96.797ZM99.797 10.752H92.537V16.752H99.797V10.752ZM89.537 13.752V16.986H95.537V13.752H89.537ZM92.537 19.986H100.897V13.986H92.537V19.986ZM97.897 16.986V20H103.897V16.986H97.897ZM100.897 17H89.171V23H100.897V17ZM102.149 20H99.1493C99.1493 21.6569 100.492 23 102.149 23V20ZM102.149 4.6V1.6C100.492 1.6 99.1493 2.94314 99.1493 4.6H102.149ZM105.801 4.6L108.349 3.0162C107.802 2.13552 106.838 1.6 105.801 1.6V4.6ZM109.849 11.112L107.301 12.6958C107.849 13.5765 108.812 14.112 109.849 14.112C110.886 14.112 111.85 13.5765 112.397 12.6958L109.849 11.112ZM113.897 4.6V1.6C112.86 1.6 111.897 2.13552 111.349 3.0162L113.897 4.6ZM117.549 4.6H120.549C120.549 2.94314 119.206 1.6 117.549 1.6V4.6ZM117.549 20V23C119.206 23 120.549 21.6569 120.549 20H117.549ZM114.183 20H111.183C111.183 21.6569 112.526 23 114.183 23V20ZM114.183 9.946H117.183C117.183 8.62099 116.314 7.4529 115.045 7.07238C113.776 6.69185 112.407 7.18901 111.678 8.29546L114.183 9.946ZM109.849 16.524V19.524C110.858 19.524 111.799 19.017 112.354 18.1745L109.849 16.524ZM109.761 16.524L107.256 18.1744C107.811 19.0169 108.752 19.524 109.761 19.524V16.524ZM105.471 10.012L107.977 8.3616C107.248 7.25509 105.879 6.75785 104.61 7.13835C103.341 7.51885 102.471 8.68696 102.471 10.012H105.471ZM105.471 20V23C107.128 23 108.471 21.6569 108.471 20H105.471ZM105.149 20V4.6H99.1493V20H105.149ZM102.149 7.6H105.801V1.6H102.149V7.6ZM103.253 6.1838L107.301 12.6958L112.397 9.5282L108.349 3.0162L103.253 6.1838ZM112.397 12.6958L116.445 6.1838L111.349 3.0162L107.301 9.5282L112.397 12.6958ZM113.897 7.6H117.549V1.6H113.897V7.6ZM114.549 4.6V20H120.549V4.6H114.549ZM117.549 17H114.183V23H117.549V17ZM117.183 20V9.946H111.183V20H117.183ZM111.678 8.29546L107.344 14.8735L112.354 18.1745L116.688 11.5965L111.678 8.29546ZM109.849 13.524H109.761V19.524H109.849V13.524ZM112.267 14.8736L107.977 8.3616L102.966 11.6624L107.256 18.1744L112.267 14.8736ZM102.471 10.012V20H108.471V10.012H102.471ZM105.471 17H102.149V23H105.471V17ZM119.489 20H116.489C116.489 21.6569 117.832 23 119.489 23V20ZM119.489 4.6V1.6C117.832 1.6 116.489 2.94314 116.489 4.6H119.489ZM130.665 5.964L128.544 8.08532L128.544 8.08532L130.665 5.964ZM129.697 11.948L128.221 9.33631C127.21 9.90761 126.62 11.0108 126.705 12.1687C126.79 13.3266 127.536 14.3312 128.62 14.748L129.697 11.948ZM131.853 13.4L129.516 15.281C129.523 15.2904 129.531 15.2998 129.539 15.3091L131.853 13.4ZM122.789 10.826H119.789C119.789 12.4829 121.132 13.826 122.789 13.826V10.826ZM127.783 7.988L126.013 10.4102C126.033 10.4252 126.054 10.44 126.075 10.4546L127.783 7.988ZM122.789 7.57V4.57C121.132 4.57 119.789 5.91315 119.789 7.57H122.789ZM122.789 17.03H119.789C119.789 18.6869 121.132 20.03 122.789 20.03V17.03ZM122.789 13.642V10.642C121.132 10.642 119.789 11.9851 119.789 13.642H122.789ZM122.489 20V4.6H116.489V20H122.489ZM119.489 7.6H126.639V1.6H119.489V7.6ZM126.639 7.6C127.926 7.6 128.383 7.92451 128.544 8.08532L132.786 3.84268C131.128 2.18482 128.901 1.6 126.639 1.6V7.6ZM128.544 8.08532C128.64 8.18149 128.721 8.28466 128.721 8.626H134.721C134.721 6.826 134.098 5.15451 132.786 3.84268L128.544 8.08532ZM128.721 8.626C128.721 8.86909 128.67 8.95583 128.653 8.98458C128.63 9.02303 128.537 9.15769 128.221 9.33631L131.173 14.5597C133.386 13.3089 134.721 11.2463 134.721 8.626H128.721ZM128.62 14.748C129.234 14.9843 129.454 15.2041 129.516 15.281L134.19 11.519C133.284 10.3932 132.066 9.645 130.774 9.14796L128.62 14.748ZM129.539 15.3091C129.508 15.2721 129.512 15.2582 129.528 15.3107C129.547 15.3715 129.579 15.5158 129.579 15.776H135.579C135.579 14.3012 135.216 12.7628 134.167 11.4909L129.539 15.3091ZM129.579 15.776C129.579 16.0902 129.522 16.2317 129.499 16.2775C129.482 16.3127 129.447 16.374 129.319 16.4643L132.759 21.3797C134.677 20.037 135.579 18.019 135.579 15.776H129.579ZM129.319 16.4643C128.97 16.7084 128.242 17 126.815 17V23C128.967 23 131.055 22.573 132.759 21.3797L129.319 16.4643ZM126.815 17H119.489V23H126.815V17ZM122.789 13.826H125.913V7.826H122.789V13.826ZM125.913 13.826C126.976 13.826 128.304 13.661 129.439 12.8834C130.779 11.9658 131.355 10.5515 131.355 9.154H125.355C125.355 9.06705 125.372 8.84586 125.505 8.57233C125.645 8.28486 125.851 8.06864 126.05 7.93262C126.229 7.81005 126.346 7.78927 126.314 7.79671C126.281 7.80409 126.158 7.826 125.913 7.826V13.826ZM131.355 9.154C131.355 7.77917 130.777 6.41229 129.491 5.52142L126.075 10.4546C125.876 10.3166 125.665 10.0967 125.519 9.79878C125.378 9.51226 125.355 9.27098 125.355 9.154H131.355ZM129.553 5.56583C128.453 4.7617 127.175 4.57 126.133 4.57V10.57C126.306 10.57 126.367 10.5876 126.348 10.5826C126.324 10.5765 126.188 10.5382 126.013 10.4102L129.553 5.56583ZM126.133 4.57H122.789V10.57H126.133V4.57ZM119.789 7.57V10.826H125.789V7.57H119.789ZM122.789 20.03H126.815V14.03H122.789V20.03ZM126.815 20.03C127.882 20.03 129.221 19.8555 130.359 19.0407C131.683 18.0934 132.213 16.6723 132.213 15.314H126.213C126.213 15.2521 126.224 15.0542 126.344 14.798C126.47 14.5258 126.664 14.3069 126.868 14.1613C127.052 14.029 127.183 14.0011 127.168 14.0046C127.152 14.0084 127.045 14.03 126.815 14.03V20.03ZM132.213 15.314C132.213 13.8827 131.605 12.4669 130.25 11.5638C129.11 10.8039 127.779 10.642 126.705 10.642V16.642C126.966 16.642 127.104 16.6646 127.151 16.6751C127.2 16.6858 127.094 16.6706 126.922 16.5562C126.73 16.4283 126.519 16.217 126.373 15.9241C126.233 15.6437 126.213 15.4121 126.213 15.314H132.213ZM126.705 10.642H122.789V16.642H126.705V10.642ZM119.789 13.642V17.03H125.789V13.642H119.789ZM133.606 20H130.606C130.606 21.6569 131.949 23 133.606 23V20ZM133.606 4.6V1.6C131.949 1.6 130.606 2.94314 130.606 4.6H133.606ZM145.222 4.6H148.222C148.222 2.94314 146.879 1.6 145.222 1.6V4.6ZM145.222 7.614V10.614C146.879 10.614 148.222 9.27085 148.222 7.614H145.222ZM136.972 7.614V4.614C135.315 4.614 133.972 5.95715 133.972 7.614H136.972ZM136.972 10.738H133.972C133.972 12.3949 135.315 13.738 136.972 13.738V10.738ZM144.232 10.738H147.232C147.232 9.08115 145.889 7.738 144.232 7.738V10.738ZM144.232 13.752V16.752C145.889 16.752 147.232 15.4089 147.232 13.752H144.232ZM136.972 13.752V10.752C135.315 10.752 133.972 12.0951 133.972 13.752H136.972ZM136.972 16.986H133.972C133.972 18.6429 135.315 19.986 136.972 19.986V16.986ZM145.332 16.986H148.332C148.332 15.3291 146.989 13.986 145.332 13.986V16.986ZM145.332 20V23C146.989 23 148.332 21.6569 148.332 20H145.332ZM136.606 20V4.6H130.606V20H136.606ZM133.606 7.6H145.222V1.6H133.606V7.6ZM142.222 4.6V7.614H148.222V4.6H142.222ZM145.222 4.614H136.972V10.614H145.222V4.614ZM133.972 7.614V10.738H139.972V7.614H133.972ZM136.972 13.738H144.232V7.738H136.972V13.738ZM141.232 10.738V13.752H147.232V10.738H141.232ZM144.232 10.752H136.972V16.752H144.232V10.752ZM133.972 13.752V16.986H139.972V13.752H133.972ZM136.972 19.986H145.332V13.986H136.972V19.986ZM142.332 16.986V20H148.332V16.986H142.332ZM145.332 17H133.606V23H145.332V17ZM146.584 20H143.584C143.584 21.6569 144.927 23 146.584 23V20ZM146.584 4.6V1.6C144.927 1.6 143.584 2.94314 143.584 4.6H146.584ZM156.132 14.5L155.083 11.6895C154.219 12.0121 153.551 12.7145 153.272 13.594C152.994 14.4735 153.135 15.4322 153.656 16.1937L156.132 14.5ZM159.894 20V23C161.007 23 162.028 22.384 162.548 21.3998C163.067 20.4156 162.999 19.2248 162.37 18.3063L159.894 20ZM155.934 20L153.452 21.6845C154.01 22.5073 154.94 23 155.934 23V20ZM152.59 15.072L155.073 13.3875C154.514 12.5647 153.584 12.072 152.59 12.072V15.072ZM149.972 15.072V12.072C148.315 12.072 146.972 13.4151 146.972 15.072H149.972ZM149.972 20V23C151.629 23 152.972 21.6569 152.972 20H149.972ZM149.972 12.08H146.972C146.972 13.7369 148.315 15.08 149.972 15.08V12.08ZM155.318 11.486L157.288 13.7482C157.302 13.7364 157.316 13.7244 157.329 13.7123L155.318 11.486ZM155.296 8.23L153.404 10.5583C153.419 10.5704 153.434 10.5823 153.449 10.5941L155.296 8.23ZM149.972 7.658V4.658C148.315 4.658 146.972 6.00114 146.972 7.658H149.972ZM149.584 20V4.6H143.584V20H149.584ZM146.584 7.6H153.624V1.6H146.584V7.6ZM153.624 7.6C155.047 7.6 155.677 7.96903 155.991 8.28332L160.233 4.04068C158.465 2.2723 156.103 1.6 153.624 1.6V7.6ZM155.991 8.28332C156.197 8.48976 156.432 8.85365 156.432 9.726H162.432C162.432 7.60635 161.787 5.59424 160.233 4.04068L155.991 8.28332ZM156.432 9.726C156.432 10.4335 156.273 10.7918 156.139 10.9846C156.007 11.1762 155.733 11.4467 155.083 11.6895L157.181 17.3105C158.731 16.7319 160.107 15.7962 161.075 14.3964C162.042 12.9978 162.432 11.3799 162.432 9.726H156.432ZM153.656 16.1937L157.418 21.6937L162.37 18.3063L158.608 12.8063L153.656 16.1937ZM159.894 17H155.934V23H159.894V17ZM158.417 18.3155L155.073 13.3875L150.108 16.7565L153.452 21.6845L158.417 18.3155ZM152.59 12.072H149.972V18.072H152.59V12.072ZM146.972 15.072V20H152.972V15.072H146.972ZM149.972 17H146.584V23H149.972V17ZM149.972 15.08H153.404V9.08H149.972V15.08ZM153.404 15.08C154.686 15.08 156.117 14.7684 157.288 13.7482L153.348 9.22375C153.404 9.17459 153.46 9.13715 153.51 9.11016C153.559 9.08357 153.594 9.07096 153.609 9.06631C153.636 9.0582 153.58 9.08 153.404 9.08V15.08ZM157.329 13.7123C158.481 12.6716 159 11.2854 159 9.858H153C153 9.8582 153 9.83331 153.008 9.78853C153.017 9.7429 153.033 9.68193 153.063 9.61185C153.127 9.45926 153.221 9.33759 153.307 9.25969L157.329 13.7123ZM159 9.858C159 8.42842 158.493 6.92031 157.143 5.86593L153.449 10.5941C153.291 10.4707 153.154 10.2958 153.071 10.1027C152.994 9.92634 153 9.82201 153 9.858H159ZM157.188 5.90166C156.011 4.94575 154.602 4.658 153.338 4.658V10.658C153.434 10.658 153.503 10.6635 153.55 10.6694C153.596 10.6754 153.615 10.6812 153.613 10.6806C153.611 10.6799 153.587 10.6725 153.547 10.6525C153.507 10.6321 153.457 10.6015 153.404 10.5583L157.188 5.90166ZM153.338 4.658H149.972V10.658H153.338V4.658ZM146.972 7.658V12.08H152.972V7.658H146.972ZM42.6634 44L39.9029 42.8253C39.5086 43.752 39.6055 44.8147 40.161 45.6547C40.7164 46.4947 41.6563 47 42.6634 47V44ZM49.2634 28.49V25.49C48.0605 25.49 46.9739 26.2085 46.5029 27.3153L49.2634 28.49ZM52.3874 28.49L55.1478 27.3153C54.6768 26.2085 53.5902 25.49 52.3874 25.49V28.49ZM58.9874 44V47C59.9944 47 60.9343 46.4947 61.4898 45.6547C62.0452 44.8147 62.1421 43.752 61.7478 42.8253L58.9874 44ZM55.4454 44L52.6673 45.1325C53.1277 46.2618 54.2258 47 55.4454 47V44ZM54.0374 40.546L56.8154 39.4135C56.355 38.2842 55.2569 37.546 54.0374 37.546V40.546ZM47.5254 40.546V37.546C46.3058 37.546 45.2077 38.2842 44.7473 39.4135L47.5254 40.546ZM46.1174 44V47C47.3369 47 48.435 46.2618 48.8954 45.1325L46.1174 44ZM48.7354 37.554L45.9593 36.4167C45.5802 37.3419 45.6871 38.3952 46.2442 39.2255C46.8013 40.0558 47.7355 40.554 48.7354 40.554V37.554ZM52.8274 37.554V40.554C53.8272 40.554 54.7614 40.0558 55.3185 39.2255C55.8757 38.3952 55.9825 37.3419 55.6034 36.4167L52.8274 37.554ZM50.7814 32.56L53.5574 31.4227C53.0958 30.296 51.999 29.56 50.7814 29.56C49.5637 29.56 48.4669 30.296 48.0053 31.4227L50.7814 32.56ZM45.4238 45.1747L52.0238 29.6647L46.5029 27.3153L39.9029 42.8253L45.4238 45.1747ZM49.2634 31.49H52.3874V25.49H49.2634V31.49ZM49.6269 29.6647L56.2269 45.1747L61.7478 42.8253L55.1478 27.3153L49.6269 29.6647ZM58.9874 41H55.4454V47H58.9874V41ZM58.2234 42.8675L56.8154 39.4135L51.2593 41.6785L52.6673 45.1325L58.2234 42.8675ZM54.0374 37.546H47.5254V43.546H54.0374V37.546ZM44.7473 39.4135L43.3393 42.8675L48.8954 45.1325L50.3034 41.6785L44.7473 39.4135ZM46.1174 41H42.6634V47H46.1174V41ZM48.7354 40.554H52.8274V34.554H48.7354V40.554ZM55.6034 36.4167L53.5574 31.4227L48.0053 33.6973L50.0513 38.6913L55.6034 36.4167ZM48.0053 31.4227L45.9593 36.4167L51.5114 38.6913L53.5574 33.6973L48.0053 31.4227ZM60.1779 41.976L58.0261 44.0664C58.0328 44.0733 58.0396 44.0802 58.0464 44.087L60.1779 41.976ZM60.1999 30.646L58.0583 28.5452L58.0583 28.5452L60.1999 30.646ZM69.3299 28.996L68.0232 31.6965C68.0351 31.7022 68.047 31.7079 68.0589 31.7134L69.3299 28.996ZM71.9259 30.844L74.1916 32.8104C75.2306 31.6133 75.159 29.8144 74.0281 28.7037L71.9259 30.844ZM69.9019 33.176L67.8815 35.3936C68.4789 35.9379 69.2706 36.2181 70.0774 36.1709C70.8842 36.1236 71.6378 35.7528 72.1676 35.1424L69.9019 33.176ZM68.0319 31.878L66.718 34.575C66.7454 34.5883 66.773 34.6013 66.8008 34.6138L68.0319 31.878ZM62.7299 32.868L60.507 30.8534L60.5053 30.8553L62.7299 32.868ZM62.7299 39.732L60.4896 41.7273C60.4954 41.7337 60.5012 41.7402 60.507 41.7466L62.7299 39.732ZM68.0759 40.7L66.7607 38.0037L66.7607 38.0037L68.0759 40.7ZM69.9899 39.336L72.1831 37.289C71.0613 36.0872 69.1812 36.012 67.9671 37.1205L69.9899 39.336ZM72.1459 41.646L74.3379 43.6942C75.4148 42.5418 75.4153 40.7522 74.3391 39.599L72.1459 41.646ZM69.4179 43.626L68.2263 40.8728C68.2212 40.875 68.2162 40.8772 68.2111 40.8794L69.4179 43.626ZM65.8319 41.264C64.3275 41.264 63.2248 40.7892 62.3095 39.865L58.0464 44.087C60.1524 46.2135 62.8191 47.264 65.8319 47.264V41.264ZM62.3298 39.8856C61.4043 38.933 60.9339 37.8025 60.9339 36.3H54.9339C54.9339 39.2855 55.9595 41.939 58.0261 44.0664L62.3298 39.8856ZM60.9339 36.3C60.9339 34.8271 61.4012 33.7054 62.3415 32.7468L58.0583 28.5452C55.9773 30.6666 54.9339 33.3143 54.9339 36.3H60.9339ZM62.3415 32.7468C63.2394 31.8316 64.3653 31.336 65.9639 31.336V25.336C62.8986 25.336 60.1818 26.3804 58.0583 28.5452L62.3415 32.7468ZM65.9639 31.336C66.9851 31.336 67.6303 31.5064 68.0232 31.6965L70.6366 26.2955C69.2109 25.6056 67.6121 25.336 65.9639 25.336V31.336ZM68.0589 31.7134C68.619 31.9754 69.2098 32.3813 69.8238 32.9843L74.0281 28.7037C72.9994 27.6934 71.8595 26.8672 70.601 26.2786L68.0589 31.7134ZM69.6603 28.8776L67.6363 31.2096L72.1676 35.1424L74.1916 32.8104L69.6603 28.8776ZM71.9224 30.9584C71.112 30.2201 70.2263 29.5757 69.263 29.1422L66.8008 34.6138C67.0109 34.7083 67.3718 34.9292 67.8815 35.3936L71.9224 30.9584ZM69.3458 29.181C68.2634 28.6537 67.0908 28.46 65.9419 28.46V34.46C66.4357 34.46 66.6565 34.545 66.718 34.575L69.3458 29.181ZM65.9419 28.46C63.8226 28.46 61.9384 29.2739 60.507 30.8534L64.9529 34.8826C65.2228 34.5848 65.4799 34.46 65.9419 34.46V28.46ZM60.5053 30.8553C59.1213 32.3849 58.4759 34.2685 58.4759 36.3H64.4759C64.4759 35.6035 64.6665 35.1991 64.9545 34.8807L60.5053 30.8553ZM58.4759 36.3C58.4759 38.3263 59.1266 40.1968 60.4896 41.7273L64.9702 37.7367C64.6613 37.3899 64.4759 36.9724 64.4759 36.3H58.4759ZM60.507 41.7466C61.9384 43.3261 63.8226 44.14 65.9419 44.14V38.14C65.4799 38.14 65.2228 38.0152 64.9529 37.7174L60.507 41.7466ZM65.9419 44.14C67.1173 44.14 68.2976 43.9298 69.3912 43.3963L66.7607 38.0037C66.6516 38.0569 66.4092 38.14 65.9419 38.14V44.14ZM69.3912 43.3963C70.3247 42.9409 71.1979 42.2954 72.0127 41.5515L67.9671 37.1205C67.4326 37.6086 67.0298 37.8724 66.7607 38.0037L69.3912 43.3963ZM67.7968 41.383L69.9528 43.693L74.3391 39.599L72.1831 37.289L67.7968 41.383ZM69.954 39.5978C69.3592 40.2343 68.78 40.6331 68.2263 40.8728L70.6096 46.3792C72.0211 45.7682 73.2607 44.8471 74.3379 43.6942L69.954 39.5978ZM68.2111 40.8794C67.7307 41.0905 66.9748 41.264 65.8319 41.264V47.264C67.5344 47.264 69.1692 47.0121 70.6248 46.3726L68.2111 40.8794ZM76.6841 44H73.6841C73.6841 45.6569 75.0273 47 76.6841 47V44ZM76.6841 31.724H79.6841C79.6841 30.0671 78.341 28.724 76.6841 28.724V31.724ZM71.9981 31.724H68.9981C68.9981 33.3809 70.3413 34.724 71.9981 34.724V31.724ZM71.9981 28.6V25.6C70.3413 25.6 68.9981 26.9431 68.9981 28.6H71.9981ZM84.7581 28.6H87.7581C87.7581 26.9431 86.415 25.6 84.7581 25.6V28.6ZM84.7581 31.724V34.724C86.415 34.724 87.7581 33.3809 87.7581 31.724H84.7581ZM80.0721 31.724V28.724C78.4153 28.724 77.0721 30.0671 77.0721 31.724H80.0721ZM80.0721 44V47C81.729 47 83.0721 45.6569 83.0721 44H80.0721ZM79.6841 44V31.724H73.6841V44H79.6841ZM76.6841 28.724H71.9981V34.724H76.6841V28.724ZM74.9981 31.724V28.6H68.9981V31.724H74.9981ZM71.9981 31.6H84.7581V25.6H71.9981V31.6ZM81.7581 28.6V31.724H87.7581V28.6H81.7581ZM84.7581 28.724H80.0721V34.724H84.7581V28.724ZM77.0721 31.724V44H83.0721V31.724H77.0721ZM80.0721 41H76.6841V47H80.0721V41ZM85.7577 44H82.7577C82.7577 45.6569 84.1009 47 85.7577 47V44ZM85.7577 28.6V25.6C84.1009 25.6 82.7577 26.9431 82.7577 28.6H85.7577ZM89.1457 28.6H92.1457C92.1457 26.9431 90.8026 25.6 89.1457 25.6V28.6ZM89.1457 44V47C90.8026 47 92.1457 45.6569 92.1457 44H89.1457ZM88.7577 44V28.6H82.7577V44H88.7577ZM85.7577 31.6H89.1457V25.6H85.7577V31.6ZM86.1457 28.6V44H92.1457V28.6H86.1457ZM89.1457 41H85.7577V47H89.1457V41ZM96.1404 44.11L93.3563 45.2276C93.8128 46.3648 94.915 47.11 96.1404 47.11V44.11ZM89.9144 28.6V25.6C88.9182 25.6 87.9871 26.0944 87.4291 26.9196C86.8712 27.7448 86.7592 28.7932 87.1303 29.7176L89.9144 28.6ZM93.6544 28.6L96.4669 27.556C96.0304 26.3802 94.9086 25.6 93.6544 25.6V28.6ZM97.6804 39.446L94.8679 40.49C95.3043 41.6658 96.4262 42.446 97.6804 42.446C98.9346 42.446 100.056 41.6658 100.493 40.49L97.6804 39.446ZM101.706 28.6V25.6C100.452 25.6 99.3303 26.3802 98.8939 27.556L101.706 28.6ZM105.358 28.6L108.142 29.7176C108.514 28.7932 108.402 27.7448 107.844 26.9196C107.286 26.0944 106.354 25.6 105.358 25.6V28.6ZM99.1324 44.11V47.11C100.358 47.11 101.46 46.3648 101.916 45.2276L99.1324 44.11ZM98.9244 42.9924L92.6984 27.4824L87.1303 29.7176L93.3563 45.2276L98.9244 42.9924ZM89.9144 31.6H93.6544V25.6H89.9144V31.6ZM90.8419 29.644L94.8679 40.49L100.493 38.402L96.4669 27.556L90.8419 29.644ZM100.493 40.49L104.519 29.644L98.8939 27.556L94.8679 38.402L100.493 40.49ZM101.706 31.6H105.358V25.6H101.706V31.6ZM102.574 27.4824L96.3483 42.9924L101.916 45.2276L108.142 29.7176L102.574 27.4824ZM99.1324 41.11H96.1404V47.11H99.1324V41.11ZM105.974 44H102.974C102.974 45.6569 104.318 47 105.974 47V44ZM105.974 28.6V25.6C104.318 25.6 102.974 26.9431 102.974 28.6H105.974ZM117.59 28.6H120.59C120.59 26.9431 119.247 25.6 117.59 25.6V28.6ZM117.59 31.614V34.614C119.247 34.614 120.59 33.2709 120.59 31.614H117.59ZM109.34 31.614V28.614C107.684 28.614 106.34 29.9571 106.34 31.614H109.34ZM109.34 34.738H106.34C106.34 36.3949 107.684 37.738 109.34 37.738V34.738ZM116.6 34.738H119.6C119.6 33.0811 118.257 31.738 116.6 31.738V34.738ZM116.6 37.752V40.752C118.257 40.752 119.6 39.4089 119.6 37.752H116.6ZM109.34 37.752V34.752C107.684 34.752 106.34 36.0951 106.34 37.752H109.34ZM109.34 40.986H106.34C106.34 42.6429 107.684 43.986 109.34 43.986V40.986ZM117.7 40.986H120.7C120.7 39.3291 119.357 37.986 117.7 37.986V40.986ZM117.7 44V47C119.357 47 120.7 45.6569 120.7 44H117.7ZM108.974 44V28.6H102.974V44H108.974ZM105.974 31.6H117.59V25.6H105.974V31.6ZM114.59 28.6V31.614H120.59V28.6H114.59ZM117.59 28.614H109.34V34.614H117.59V28.614ZM106.34 31.614V34.738H112.34V31.614H106.34ZM109.34 37.738H116.6V31.738H109.34V37.738ZM113.6 34.738V37.752H119.6V34.738H113.6ZM116.6 34.752H109.34V40.752H116.6V34.752ZM106.34 37.752V40.986H112.34V37.752H106.34ZM109.34 43.986H117.7V37.986H109.34V43.986ZM114.7 40.986V44H120.7V40.986H114.7ZM117.7 41H105.974V47H117.7V41Z" fill="black"/>
    <path d="M3.97343 20V4.6H10.2654C12.0841 4.6 13.5214 5.09133 14.5774 6.074C15.6334 7.05667 16.1614 8.35467 16.1614 9.968C16.1614 11.684 15.5748 13.0187 14.4014 13.972C13.2281 14.9107 11.7394 15.38 9.93543 15.38H7.36143V20H3.97343ZM7.36143 12.366H10.0454C10.8814 12.366 11.5341 12.146 12.0034 11.706C12.4874 11.266 12.7294 10.694 12.7294 9.99C12.7294 9.242 12.4874 8.67 12.0034 8.274C11.5194 7.86333 10.8448 7.658 9.97943 7.658H7.36143V12.366ZM16.9087 20V4.6H23.9487C25.8994 4.6 27.3954 5.12067 28.4367 6.162C29.3167 7.042 29.7567 8.23 29.7567 9.726C29.7567 12.0873 28.6567 13.6787 26.4567 14.5L30.2187 20H26.2587L22.9147 15.072H20.2967V20H16.9087ZM20.2967 12.08H23.7287C24.5501 12.08 25.1881 11.882 25.6427 11.486C26.0974 11.0753 26.3247 10.5327 26.3247 9.858C26.3247 9.13933 26.0901 8.59667 25.6207 8.23C25.1514 7.84867 24.4987 7.658 23.6627 7.658H20.2967V12.08ZM31.2012 20V4.6H34.5892V20H31.2012ZM36.6778 20V4.6H40.3298L44.3778 11.112L48.4258 4.6H52.0778V20H48.7118V9.946L44.3778 16.524H44.2898L39.9998 10.012V20H36.6778ZM54.0174 20V4.6H65.6334V7.614H57.3834V10.738H64.6434V13.752H57.3834V16.986H65.7434V20H54.0174ZM71.8314 20V4.6H75.4834L79.5314 11.112L83.5794 4.6H87.2314V20H83.8654V9.946L79.5314 16.524H79.4434L75.1534 10.012V20H71.8314ZM89.171 20V4.6H100.787V7.614H92.537V10.738H99.797V13.752H92.537V16.986H100.897V20H89.171ZM102.149 20V4.6H105.801L109.849 11.112L113.897 4.6H117.549V20H114.183V9.946L109.849 16.524H109.761L105.471 10.012V20H102.149ZM119.489 20V4.6H126.639C128.414 4.6 129.756 5.05467 130.665 5.964C131.369 6.668 131.721 7.55533 131.721 8.626C131.721 10.078 131.046 11.1853 129.697 11.948C130.65 12.3147 131.369 12.7987 131.853 13.4C132.337 13.9867 132.579 14.7787 132.579 15.776C132.579 17.1547 132.066 18.2033 131.039 18.922C130.012 19.6407 128.604 20 126.815 20H119.489ZM122.789 10.826H125.913C127.541 10.826 128.355 10.2687 128.355 9.154C128.355 8.64067 128.164 8.252 127.783 7.988C127.402 7.70933 126.852 7.57 126.133 7.57H122.789V10.826ZM122.789 17.03H126.815C128.414 17.03 129.213 16.458 129.213 15.314C129.213 14.1993 128.377 13.642 126.705 13.642H122.789V17.03ZM133.606 20V4.6H145.222V7.614H136.972V10.738H144.232V13.752H136.972V16.986H145.332V20H133.606ZM146.584 20V4.6H153.624C155.575 4.6 157.071 5.12067 158.112 6.162C158.992 7.042 159.432 8.23 159.432 9.726C159.432 12.0873 158.332 13.6787 156.132 14.5L159.894 20H155.934L152.59 15.072H149.972V20H146.584ZM149.972 12.08H153.404C154.225 12.08 154.863 11.882 155.318 11.486C155.773 11.0753 156 10.5327 156 9.858C156 9.13933 155.765 8.59667 155.296 8.23C154.827 7.84867 154.174 7.658 153.338 7.658H149.972V12.08ZM42.6634 44L49.2634 28.49H52.3874L58.9874 44H55.4454L54.0374 40.546H47.5254L46.1174 44H42.6634ZM48.7354 37.554H52.8274L50.7814 32.56L48.7354 37.554ZM65.8319 44.264C63.5733 44.264 61.6886 43.5013 60.1779 41.976C58.6819 40.436 57.9339 38.544 57.9339 36.3C57.9339 34.0707 58.6893 32.186 60.1999 30.646C61.7106 29.106 63.6319 28.336 65.9639 28.336C67.2986 28.336 68.4206 28.556 69.3299 28.996C70.2393 29.4213 71.1046 30.0373 71.9259 30.844L69.9019 33.176C69.2419 32.5747 68.6186 32.142 68.0319 31.878C67.4599 31.5993 66.7633 31.46 65.9419 31.46C64.6513 31.46 63.5806 31.9293 62.7299 32.868C61.8939 33.792 61.4759 34.936 61.4759 36.3C61.4759 37.6493 61.8939 38.7933 62.7299 39.732C63.5806 40.6707 64.6513 41.14 65.9419 41.14C66.7633 41.14 67.4746 40.9933 68.0759 40.7C68.6773 40.4067 69.3153 39.952 69.9899 39.336L72.1459 41.646C71.3099 42.5407 70.4006 43.2007 69.4179 43.626C68.4499 44.0513 67.2546 44.264 65.8319 44.264ZM76.6841 44V31.724H71.9981V28.6H84.7581V31.724H80.0721V44H76.6841ZM85.7577 44V28.6H89.1457V44H85.7577ZM96.1404 44.11L89.9144 28.6H93.6544L97.6804 39.446L101.706 28.6H105.358L99.1324 44.11H96.1404ZM105.974 44V28.6H117.59V31.614H109.34V34.738H116.6V37.752H109.34V40.986H117.7V44H105.974Z" fill="white"/>
</svg>
