<?xml version="1.0" encoding="utf-8"?>
<!-- Generator: Adobe Illustrator 23.0.2, SVG Export Plug-In . SVG Version: 6.00 Build 0)  -->
<!DOCTYPE svg PUBLIC "-//W3C//DTD SVG 1.1//EN" "http://www.w3.org/Graphics/SVG/1.1/DTD/svg11.dtd" [
	<!ENTITY ns_extend "http://ns.adobe.com/Extensibility/1.0/">
	<!ENTITY ns_ai "http://ns.adobe.com/AdobeIllustrator/10.0/">
	<!ENTITY ns_graphs "http://ns.adobe.com/Graphs/1.0/">
	<!ENTITY ns_vars "http://ns.adobe.com/Variables/1.0/">
	<!ENTITY ns_imrep "http://ns.adobe.com/ImageReplacement/1.0/">
	<!ENTITY ns_sfw "http://ns.adobe.com/SaveForWeb/1.0/">
	<!ENTITY ns_custom "http://ns.adobe.com/GenericCustomNamespace/1.0/">
	<!ENTITY ns_adobe_xpath "http://ns.adobe.com/XPath/1.0/">
]>
<svg version="1.1" id="Layer_1" xmlns:x="&ns_extend;" xmlns:i="&ns_ai;" xmlns:graph="&ns_graphs;"
	 xmlns="http://www.w3.org/2000/svg" xmlns:xlink="http://www.w3.org/1999/xlink" x="0px" y="0px" viewBox="0 0 595.28 841.89"
	 style="enable-background:new 0 0 595.28 841.89;" xml:space="preserve">
<style type="text/css">
	.st0{fill:#231F20;}
	.st1{fill:#FF9F18;}
</style>
<metadata>
	<sfw  xmlns="&ns_sfw;">
		<slices></slices>
		<sliceSourceBounds  bottomLeftOrigin="true" height="771.73" width="311.37" x="152.3" y="-785.98"></sliceSourceBounds>
	</sfw>
</metadata>
<g>
	<path class="st0" d="M308.68,154.62c-38.7,0-70.18-31.48-70.18-70.18s31.48-70.18,70.18-70.18c38.7,0,70.18,31.48,70.18,70.18
		S347.38,154.62,308.68,154.62z"/>
	<path class="st0" d="M351.22,785.98c-20.26,0-37.46-13.38-43.21-31.77c-5.76,18.39-22.95,31.77-43.21,31.77
		c-25.05,0-45.36-20.31-45.36-45.27V443.18c-3.58,14.96-17.06,26.13-33.11,26.13c-18.77,0-34.03-15.27-34.03-34.03V239.43
		c0-46.76,38.04-84.79,84.79-84.79h141.78c46.76,0,84.79,38.04,84.79,84.79v195.84c0,18.77-15.27,34.03-34.03,34.03
		c-16.07,0-29.56-11.16-33.14-26.12v297.54C396.49,765.68,376.19,785.98,351.22,785.98z"/>
</g>
<g>
	<circle class="st1" cx="308.68" cy="84.44" r="61.68"/>
	<path class="st1" d="M160.8,239.43v195.84c0,14.1,11.43,25.53,25.53,25.53h0c14.1,0,25.53-11.43,25.53-25.53V258.99h16.08v481.73
		c0,20.3,16.46,36.76,36.76,36.76h0.09c20.3,0,36.76-16.46,36.76-36.76V460.8h12.9v279.92c0,20.3,16.46,36.76,36.76,36.76h0
		c20.3,0,36.76-16.46,36.76-36.76V258.99h16.08v176.28c0,14.1,11.43,25.53,25.53,25.53h0.03c14.1,0,25.53-11.43,25.53-25.53V239.43
		c0-42.13-34.16-76.29-76.29-76.29l-141.78,0C194.96,163.14,160.8,197.3,160.8,239.43z"/>
</g>
</svg>
