<?xml version="1.0" encoding="utf-8"?>
<!-- Generator: Adobe Illustrator 23.0.2, SVG Export Plug-In . SVG Version: 6.00 Build 0)  -->
<!DOCTYPE svg PUBLIC "-//W3C//DTD SVG 1.1//EN" "http://www.w3.org/Graphics/SVG/1.1/DTD/svg11.dtd" [
	<!ENTITY ns_extend "http://ns.adobe.com/Extensibility/1.0/">
	<!ENTITY ns_ai "http://ns.adobe.com/AdobeIllustrator/10.0/">
	<!ENTITY ns_graphs "http://ns.adobe.com/Graphs/1.0/">
	<!ENTITY ns_vars "http://ns.adobe.com/Variables/1.0/">
	<!ENTITY ns_imrep "http://ns.adobe.com/ImageReplacement/1.0/">
	<!ENTITY ns_sfw "http://ns.adobe.com/SaveForWeb/1.0/">
	<!ENTITY ns_custom "http://ns.adobe.com/GenericCustomNamespace/1.0/">
	<!ENTITY ns_adobe_xpath "http://ns.adobe.com/XPath/1.0/">
]>
<svg version="1.1" id="Layer_1" xmlns:x="&ns_extend;" xmlns:i="&ns_ai;" xmlns:graph="&ns_graphs;"
	 xmlns="http://www.w3.org/2000/svg" xmlns:xlink="http://www.w3.org/1999/xlink" x="0px" y="0px" viewBox="0 0 595.28 841.89"
	 style="enable-background:new 0 0 595.28 841.89;" xml:space="preserve">
<style type="text/css">
	.st0{fill:url(#SVGID_1_);}
	.st1{fill:url(#SVGID_2_);}
</style>
<metadata>
	<sfw  xmlns="&ns_sfw;">
		<slices></slices>
		<sliceSourceBounds  bottomLeftOrigin="true" height="754.72" width="294.36" x="160.8" y="-777.48"></sliceSourceBounds>
	</sfw>
</metadata>
<g>
	<linearGradient id="SVGID_1_" gradientUnits="userSpaceOnUse" x1="308.68" y1="22.76" x2="308.68" y2="146.12">
		<stop  offset="0" style="stop-color:#FEFFFF"/>
		<stop  offset="1" style="stop-color:#F8FBFC"/>
	</linearGradient>
	<circle class="st0" cx="308.68" cy="84.44" r="61.68"/>
	<linearGradient id="SVGID_2_" gradientUnits="userSpaceOnUse" x1="307.98" y1="163.14" x2="307.98" y2="777.48">
		<stop  offset="0" style="stop-color:#F9FBFD"/>
		<stop  offset="1" style="stop-color:#D9E7F1"/>
	</linearGradient>
	<path class="st1" d="M160.8,239.43v195.84c0,14.1,11.43,25.53,25.53,25.53h0c14.1,0,25.53-11.43,25.53-25.53V258.99h16.08v481.73
		c0,20.3,16.46,36.76,36.76,36.76h0.09c20.3,0,36.76-16.46,36.76-36.76V460.8h12.9v279.92c0,20.3,16.46,36.76,36.76,36.76h0
		c20.3,0,36.76-16.46,36.76-36.76V258.99h16.08v176.28c0,14.1,11.43,25.53,25.53,25.53h0.03c14.1,0,25.53-11.43,25.53-25.53V239.43
		c0-42.13-34.16-76.29-76.29-76.29l-141.78,0C194.96,163.14,160.8,197.3,160.8,239.43z"/>
</g>
</svg>
