<svg width="60" height="47" viewBox="0 0 60 47" fill="none" xmlns="http://www.w3.org/2000/svg">
  <path
    d="M1.68 43H-0.32C-0.32 44.1046 0.575431 45 1.68 45L1.68 43ZM1.68 29V27C0.575431 27 -0.32 27.8954 -0.32 29H1.68ZM11.32 30.34L9.95754 31.8041L11.32 30.34ZM11.16 37.52L12.4094 39.0817C12.4133 39.0786 12.4173 39.0754 12.4212 39.0722L11.16 37.52ZM4.76 38.8V36.8C3.65543 36.8 2.76 37.6954 2.76 38.8H4.76ZM4.76 43V45C5.86457 45 6.76 44.1046 6.76 43H4.76ZM4.76 36.06H2.76C2.76 37.1646 3.65543 38.06 4.76 38.06V36.06ZM8.98 35.46L7.63465 33.9801C7.62709 33.987 7.61958 33.9939 7.61212 34.0009L8.98 35.46ZM8.98 32.34L7.68605 33.865C7.69514 33.8727 7.7043 33.8804 7.71352 33.8879L8.98 32.34ZM4.76 31.78V29.78C3.65543 29.78 2.76 30.6754 2.76 31.78H4.76ZM3.68 43V29H-0.32V43H3.68ZM1.68 31H7.4V27H1.68V31ZM7.4 31C8.68513 31 9.45724 31.3386 9.95754 31.8041L12.6825 28.8759C11.2628 27.5548 9.42154 27 7.4 27V31ZM9.95754 31.8041C10.4606 32.2722 10.76 32.896 10.76 33.88H14.76C14.76 31.9307 14.0994 30.1944 12.6825 28.8759L9.95754 31.8041ZM10.76 33.88C10.76 34.9294 10.4313 35.5352 9.89882 35.9678L12.4212 39.0722C14.0221 37.7715 14.76 35.9506 14.76 33.88H10.76ZM9.91061 35.9583C9.26588 36.474 8.38028 36.8 7.1 36.8V40.8C9.09972 40.8 10.9208 40.2726 12.4094 39.0817L9.91061 35.9583ZM7.1 36.8H4.76V40.8H7.1V36.8ZM2.76 38.8V43H6.76V38.8H2.76ZM4.76 41H1.68V45H4.76V41ZM4.76 38.06H7.2V34.06H4.76V38.06ZM7.2 38.06C8.31103 38.06 9.44992 37.7609 10.3479 36.9191L7.61212 34.0009C7.62226 33.9914 7.62087 33.9997 7.57616 34.0148C7.52393 34.0324 7.40764 34.06 7.2 34.06V38.06ZM10.3253 36.9399C11.2167 36.1295 11.64 35.0552 11.64 33.9H7.64C7.64 33.9453 7.63612 33.9725 7.63378 33.9848C7.63154 33.9966 7.63028 33.9973 7.63307 33.9907C7.63596 33.9839 7.64002 33.9768 7.64367 33.9717C7.64713 33.9669 7.64585 33.9699 7.63465 33.9801L10.3253 36.9399ZM11.64 33.9C11.64 32.7505 11.243 31.6074 10.2465 30.7921L7.71352 33.8879C7.70294 33.8793 7.6862 33.8633 7.66875 33.84C7.65126 33.8167 7.63964 33.7948 7.63307 33.7793C7.61974 33.7478 7.64 33.7742 7.64 33.9H11.64ZM10.274 30.815C9.35989 30.0394 8.22832 29.78 7.14 29.78V33.78C7.62501 33.78 7.72011 33.8939 7.68605 33.865L10.274 30.815ZM7.14 29.78H4.76V33.78H7.14V29.78ZM2.76 31.78V36.06H6.76V31.78H2.76ZM13.6394 43H11.6394C11.6394 44.1046 12.5348 45 13.6394 45V43ZM13.6394 29V27C12.5348 27 11.6394 27.8954 11.6394 29H13.6394ZM22.3194 38L21.6199 36.1263C21.0437 36.3414 20.5985 36.8097 20.4128 37.396C20.227 37.9823 20.3214 38.6215 20.6686 39.1291L22.3194 38ZM25.7394 43V45C26.4812 45 27.1622 44.5894 27.5083 43.9332C27.8545 43.277 27.809 42.4832 27.3902 41.8709L25.7394 43ZM22.1394 43L20.4844 44.123C20.8566 44.6715 21.4765 45 22.1394 45V43ZM19.0994 38.52L20.7543 37.397C20.3821 36.8485 19.7623 36.52 19.0994 36.52V38.52ZM16.7194 38.52V36.52C15.6148 36.52 14.7194 37.4154 14.7194 38.52H16.7194ZM16.7194 43V45C17.8239 45 18.7194 44.1046 18.7194 43H16.7194ZM16.7194 35.8H14.7194C14.7194 36.9046 15.6148 37.8 16.7194 37.8V35.8ZM21.5794 35.26L22.8929 36.7682C22.902 36.7603 22.911 36.7523 22.9199 36.7442L21.5794 35.26ZM21.5594 32.3L20.2982 33.8522C20.3081 33.8603 20.318 33.8682 20.3281 33.876L21.5594 32.3ZM16.7194 31.78V29.78C15.6148 29.78 14.7194 30.6754 14.7194 31.78H16.7194ZM15.6394 43V29H11.6394V43H15.6394ZM13.6394 31H20.0394V27H13.6394V31ZM20.0394 31C21.4606 31 22.2432 31.3722 22.7052 31.8342L25.5336 29.0058C24.1022 27.5744 22.1649 27 20.0394 27V31ZM22.7052 31.8342C23.0561 32.1852 23.3194 32.7158 23.3194 33.66H27.3194C27.3194 31.8842 26.7826 30.2548 25.5336 29.0058L22.7052 31.8342ZM23.3194 33.66C23.3194 34.4179 23.1464 34.8963 22.9242 35.2178C22.7026 35.5383 22.32 35.8649 21.6199 36.1263L23.0189 39.8737C24.3187 39.3884 25.4362 38.6183 26.2146 37.4922C26.9924 36.367 27.3194 35.0488 27.3194 33.66H23.3194ZM20.6686 39.1291L24.0886 44.1291L27.3902 41.8709L23.9702 36.8709L20.6686 39.1291ZM25.7394 41H22.1394V45H25.7394V41ZM23.7943 41.877L20.7543 37.397L17.4444 39.643L20.4844 44.123L23.7943 41.877ZM19.0994 36.52H16.7194V40.52H19.0994V36.52ZM14.7194 38.52V43H18.7194V38.52H14.7194ZM16.7194 41H13.6394V45H16.7194V41ZM16.7194 37.8H19.8394V33.8H16.7194V37.8ZM19.8394 37.8C20.8932 37.8 22.0018 37.5443 22.8929 36.7682L20.2658 33.7518C20.3303 33.6957 20.2789 33.8 19.8394 33.8V37.8ZM22.9199 36.7442C23.7983 35.9508 24.1994 34.8951 24.1994 33.78H20.1994C20.1994 33.821 20.1959 33.8433 20.1946 33.8504C20.1934 33.8568 20.1939 33.8511 20.1997 33.8372C20.2056 33.8231 20.2141 33.8077 20.224 33.7938C20.2338 33.7802 20.2404 33.7744 20.2388 33.7758L22.9199 36.7442ZM24.1994 33.78C24.1994 32.6527 23.8042 31.5158 22.7907 30.724L20.3281 33.876C20.3086 33.8608 20.2832 33.837 20.2579 33.8043C20.2326 33.7717 20.2149 33.7397 20.2037 33.7138C20.1813 33.662 20.1994 33.6689 20.1994 33.78H24.1994ZM22.8206 30.7478C21.9224 30.0181 20.8248 29.78 19.7794 29.78V33.78C20.254 33.78 20.343 33.8886 20.2982 33.8522L22.8206 30.7478ZM19.7794 29.78H16.7194V33.78H19.7794V29.78ZM14.7194 31.78V35.8H18.7194V31.78H14.7194ZM26.8325 43H24.8325C24.8325 44.1046 25.7279 45 26.8325 45V43ZM26.8325 29V27C25.7279 27 24.8325 27.8954 24.8325 29H26.8325ZM29.9125 29H31.9125C31.9125 27.8954 31.0171 27 29.9125 27V29ZM29.9125 43V45C31.0171 45 31.9125 44.1046 31.9125 43H29.9125ZM28.8325 43V29H24.8325V43H28.8325ZM26.8325 31H29.9125V27H26.8325V31ZM27.9125 29V43H31.9125V29H27.9125ZM29.9125 41H26.8325V45H29.9125V41ZM32.0112 43H30.0112C30.0112 44.1046 30.9067 45 32.0112 45V43ZM32.0112 29V27C30.9067 27 30.0112 27.8954 30.0112 29H32.0112ZM35.3312 29L37.0298 27.9441C36.6649 27.357 36.0226 27 35.3312 27V29ZM39.0112 34.92L37.3127 35.9759C37.6776 36.563 38.3199 36.92 39.0112 36.92C39.7026 36.92 40.3449 36.563 40.7098 35.9759L39.0112 34.92ZM42.6912 29V27C41.9999 27 41.3576 27.357 40.9927 27.9441L42.6912 29ZM46.0112 29H48.0112C48.0112 27.8954 47.1158 27 46.0112 27V29ZM46.0112 43V45C47.1158 45 48.0112 44.1046 48.0112 43H46.0112ZM42.9512 43H40.9512C40.9512 44.1046 41.8467 45 42.9512 45V43ZM42.9512 33.86H44.9512C44.9512 32.9767 44.3718 32.1979 43.5256 31.9443C42.6795 31.6906 41.7672 32.022 41.2812 32.7596L42.9512 33.86ZM39.0112 39.84V41.84C39.6838 41.84 40.3113 41.502 40.6813 40.9404L39.0112 39.84ZM38.9312 39.84L37.2611 40.9403C37.6311 41.5019 38.2587 41.84 38.9312 41.84V39.84ZM35.0312 33.92L36.7014 32.8197C36.2154 32.0821 35.3031 31.7506 34.4569 32.0042C33.6108 32.2579 33.0312 33.0366 33.0312 33.92H35.0312ZM35.0312 43V45C36.1358 45 37.0312 44.1046 37.0312 43H35.0312ZM34.0112 43V29H30.0112V43H34.0112ZM32.0112 31H35.3312V27H32.0112V31ZM33.6327 30.0559L37.3127 35.9759L40.7098 33.8641L37.0298 27.9441L33.6327 30.0559ZM40.7098 35.9759L44.3898 30.0559L40.9927 27.9441L37.3127 33.8641L40.7098 35.9759ZM42.6912 31H46.0112V27H42.6912V31ZM44.0112 29V43H48.0112V29H44.0112ZM46.0112 41H42.9512V45H46.0112V41ZM44.9512 43V33.86H40.9512V43H44.9512ZM41.2812 32.7596L37.3412 38.7396L40.6813 40.9404L44.6213 34.9604L41.2812 32.7596ZM39.0112 37.84H38.9312V41.84H39.0112V37.84ZM40.6014 38.7397L36.7014 32.8197L33.3611 35.0203L37.2611 40.9403L40.6014 38.7397ZM33.0312 33.92V43H37.0312V33.92H33.0312ZM35.0312 41H32.0112V45H35.0312V41ZM47.9745 43H45.9745C45.9745 44.1046 46.87 45 47.9745 45V43ZM47.9745 29V27C46.87 27 45.9745 27.8954 45.9745 29H47.9745ZM58.5345 29H60.5345C60.5345 27.8954 59.6391 27 58.5345 27V29ZM58.5345 31.74V33.74C59.6391 33.74 60.5345 32.8446 60.5345 31.74H58.5345ZM51.0345 31.74V29.74C49.93 29.74 49.0345 30.6354 49.0345 31.74H51.0345ZM51.0345 34.58H49.0345C49.0345 35.6846 49.93 36.58 51.0345 36.58V34.58ZM57.6345 34.58H59.6345C59.6345 33.4754 58.7391 32.58 57.6345 32.58V34.58ZM57.6345 37.32V39.32C58.7391 39.32 59.6345 38.4246 59.6345 37.32H57.6345ZM51.0345 37.32V35.32C49.93 35.32 49.0345 36.2154 49.0345 37.32H51.0345ZM51.0345 40.26H49.0345C49.0345 41.3646 49.93 42.26 51.0345 42.26V40.26ZM58.6345 40.26H60.6345C60.6345 39.1554 59.7391 38.26 58.6345 38.26V40.26ZM58.6345 43V45C59.7391 45 60.6345 44.1046 60.6345 43H58.6345ZM49.9745 43V29H45.9745V43H49.9745ZM47.9745 31H58.5345V27H47.9745V31ZM56.5345 29V31.74H60.5345V29H56.5345ZM58.5345 29.74H51.0345V33.74H58.5345V29.74ZM49.0345 31.74V34.58H53.0345V31.74H49.0345ZM51.0345 36.58H57.6345V32.58H51.0345V36.58ZM55.6345 34.58V37.32H59.6345V34.58H55.6345ZM57.6345 35.32H51.0345V39.32H57.6345V35.32ZM49.0345 37.32V40.26H53.0345V37.32H49.0345ZM51.0345 42.26H58.6345V38.26H51.0345V42.26ZM56.6345 40.26V43H60.6345V40.26H56.6345ZM58.6345 41H47.9745V45H58.6345V41Z"
    fill="#192329"/>
  <path
    d="M1.68 43V29H7.4C9.05333 29 10.36 29.4467 11.32 30.34C12.28 31.2333 12.76 32.4133 12.76 33.88C12.76 35.44 12.2267 36.6533 11.16 37.52C10.0933 38.3733 8.74 38.8 7.1 38.8H4.76V43H1.68ZM4.76 36.06H7.2C7.96 36.06 8.55333 35.86 8.98 35.46C9.42 35.06 9.64 34.54 9.64 33.9C9.64 33.22 9.42 32.7 8.98 32.34C8.54 31.9667 7.92667 31.78 7.14 31.78H4.76V36.06ZM13.6394 43V29H20.0394C21.8127 29 23.1727 29.4733 24.1194 30.42C24.9194 31.22 25.3194 32.3 25.3194 33.66C25.3194 35.8067 24.3194 37.2533 22.3194 38L25.7394 43H22.1394L19.0994 38.52H16.7194V43H13.6394ZM16.7194 35.8H19.8394C20.586 35.8 21.166 35.62 21.5794 35.26C21.9927 34.8867 22.1994 34.3933 22.1994 33.78C22.1994 33.1267 21.986 32.6333 21.5594 32.3C21.1327 31.9533 20.5394 31.78 19.7794 31.78H16.7194V35.8ZM26.8325 43V29H29.9125V43H26.8325ZM32.0112 43V29H35.3312L39.0112 34.92L42.6912 29H46.0113V43H42.9513V33.86L39.0112 39.84H38.9312L35.0312 33.92V43H32.0112ZM47.9745 43V29H58.5345V31.74H51.0345V34.58H57.6345V37.32H51.0345V40.26H58.6345V43H47.9745Z"
    fill="#FFCC47"/>
  <path d="M40.3696 21H18.6304L17 4.78378L24.6087 11.8108L29.5 1L34.9348 11.8108L42 4.78378L40.3696 21Z"
        fill="#FFCC47"/>
  <path fill-rule="evenodd" clip-rule="evenodd"
        d="M29.4796 0.000210564C29.8648 -0.0076762 30.2204 0.206535 30.3935 0.550846L35.2083 10.1284L41.2948 4.07476C41.5942 3.77698 42.0484 3.69936 42.4297 3.88081C42.811 4.06226 43.0373 4.46367 42.995 4.88382L41.3646 21.1C41.3132 21.611 40.8831 22 40.3696 22H18.6305C18.1169 22 17.6868 21.611 17.6355 21.1L16.005 4.88382C15.9635 4.47041 16.1819 4.07437 16.5537 3.88892C16.9255 3.70347 17.3733 3.76725 17.6785 4.04916L24.269 10.1358L28.5889 0.587784C28.7478 0.236678 29.0943 0.00809721 29.4796 0.000210564ZM29.5475 3.32091L25.5198 12.223C25.3874 12.5157 25.1224 12.727 24.8075 12.7909C24.4926 12.8547 24.1663 12.7634 23.9303 12.5454L18.2588 7.30758L19.535 20H39.4651L40.7257 7.46157L35.64 12.5198C35.4127 12.7459 35.0908 12.8493 34.7744 12.7979C34.4579 12.7464 34.1853 12.5464 34.0414 12.26L29.5475 3.32091Z"
        fill="#192329"/>
</svg>
