<svg id="tyqoon-shop" xmlns="http://www.w3.org/2000/svg" xmlns:xlink="http://www.w3.org/1999/xlink" viewBox="0 0 571 453.42">
  <style>

    @keyframes shop-fade-in {
      to {
        opacity: 1;
      }
    }

    #tyqoon-shop #grass {
      animation: shop-fade-in 1s .5s cubic-bezier(0.37, 0, 0.63, 1) both;
    }


    @keyframes shop-construction {
      0%, 100% {
        opacity: 0;
      }
      40%, 60% {
        opacity: 1;
      }
    }

    #tyqoon-shop #construction {
      animation: shop-construction 2.5s .5s cubic-bezier(0.37, 0, 0.63, 1) both;
    }

    #tyqoon-shop #ready {
      animation: shop-fade-in 1s 2s cubic-bezier(0.37, 0, 0.63, 1) both;
    }


    @keyframes cloud-small {
      0% {
        opacity: 0;
        transform: none;
        scale: 1;
      }
      21.42%, 57.14% {
        opacity: 1;
      }
      78.57%, 100% {
        opacity: 0;
      }
      71.42% {
        transform: translate(-200px, -114px) scale(1.1);
      }
    }

    @keyframes cloud-big {
      0% {
        opacity: 0;
        transform: none;
        scale: 1;
      }
      21.42%, 57.14% {
        opacity: 1;
      }
      78.57%, 100% {
        opacity: 0;
      }
      71.42% {
        transform: translate(200px, -114px) scale(1.1);
      }
    }

    #tyqoon-shop #cloud-small {
      transform-origin: 422.9357px 295.163px;
      animation: cloud-small 1.4s .5s cubic-bezier(0.37, 0, 0.63, 1) both 2;
    }

    #tyqoon-shop #cloud-big {
      transform-origin: 422.9357px 295.163px;
      animation: cloud-big 1.4s .7s cubic-bezier(0.37, 0, 0.63, 1) both 2;
    }


    @keyframes shop-hammer {
      0% {
        opacity: 0;
        transform: none;
      }
      2.94%, 94.08% {
        opacity: 1;
      }
      8.82%, 20.58% {
        transform: rotate(-20deg);
      }
      14.7%, 26.46% {
        transform: none;
      }
      35.28%, 47.04%, 58.8% {
        transform: translate(-400px, -100px) scaleX(-1);
      }
      41.16%, 52.92% {
        transform: translate(-400px, -100px) scaleX(-1) rotate(-20deg);
      }
      70.56%, 82.32%, 94.08% {
        transform: translate(0px, -150px) scaleX(1);
      }
      76.44%, 88.2% {
        transform: translate(0px, -150px) scaleX(1) rotate(-20deg);
      }
      100% {
        opacity: 0;
        transform: translate(0px, -150px) scaleX(1);
      }
    }

    #tyqoon-shop #hammer {
      transform-origin: 521.9195px 407.0092px;
      animation: shop-hammer 3.4s cubic-bezier(0.37, 0, 0.63, 1) both;
    }

    @keyframes shop-star {
      0%, 100% {
        transform: scale(.7);
        opacity: 0;
      }
      10%, 90% {
        opacity: 1;
      }
      25%, 75% {
        transform: scale(1);
      }
      50% {
        transform: scale(.7);
      }
    }

    #tyqoon-shop #star-1 {
      transform-origin: 485.4852px 263.3582px;
      animation: shop-star 2s 3.2s cubic-bezier(0.37, 0, 0.63, 1) both;
    }

    #tyqoon-shop #star-2 {
      transform-origin: 225.5874px 92.6669px;
      animation: shop-star 2s 3.4s cubic-bezier(0.37, 0, 0.63, 1) both;
    }

    #tyqoon-shop #star-3 {
      transform-origin: 187.1686px 328.1701px;
      animation: shop-star 2s 3.6s cubic-bezier(0.37, 0, 0.63, 1) both;
    }
  </style>
  <defs>
    <linearGradient id="shop-lingrad" x1="0.58" y1="299.99" x2="570.42" y2="299.99" gradientUnits="userSpaceOnUse">
      <stop offset="0.11" stop-color="#b2d351"/>
      <stop offset="0.38" stop-color="#bad762"/>
      <stop offset="0.66" stop-color="#beda6d"/>
      <stop offset="1" stop-color="#c0db70"/>
    </linearGradient>
    <linearGradient id="shop-lingrad-2" x1="355.85" y1="187.8" x2="469.78" y2="385.13" gradientTransform="translate(152.35 -72.37) rotate(16.02)" gradientUnits="userSpaceOnUse">
      <stop offset="0" stop-color="#010101"/>
      <stop offset="0.28" stop-color="#130901"/>
      <stop offset="1" stop-color="#3f1b00"/>
    </linearGradient>
    <linearGradient id="shop-lingrad-3" x1="334.9" y1="259.59" x2="339.01" y2="243.08" gradientTransform="translate(152.35 -72.37) rotate(16.02)" gradientUnits="userSpaceOnUse">
      <stop offset="0" stop-color="#5f5f5f"/>
      <stop offset="0.17" stop-color="#727272"/>
      <stop offset="0.52" stop-color="#949494"/>
      <stop offset="0.81" stop-color="#a8a8a8"/>
      <stop offset="1" stop-color="#b0b0b0"/>
    </linearGradient>
    <radialGradient id="radial-gradient" cx="341.13" cy="243.69" r="14.74" gradientTransform="matrix(0.67, 0.74, -5.95, 5.35, 1634.07, -1301.5)" gradientUnits="userSpaceOnUse">
      <stop offset="0" stop-color="#fff"/>
      <stop offset="0.01" stop-color="#fdfdfd"/>
      <stop offset="0.19" stop-color="#dcdcdc"/>
      <stop offset="0.38" stop-color="#c2c2c2"/>
      <stop offset="0.58" stop-color="#afafaf"/>
      <stop offset="0.78" stop-color="#a4a4a4"/>
      <stop offset="1" stop-color="#a0a0a0"/>
    </radialGradient>
    <linearGradient id="shop-lingrad-4" x1="394.92" y1="196.31" x2="411.07" y2="196.31" gradientTransform="translate(152.35 -72.37) rotate(16.02)" gradientUnits="userSpaceOnUse">
      <stop offset="0" stop-color="#8b898a"/>
      <stop offset="0.02" stop-color="#828081"/>
      <stop offset="0.09" stop-color="#686566"/>
      <stop offset="0.17" stop-color="#534f50"/>
      <stop offset="0.27" stop-color="#423e3f"/>
      <stop offset="0.38" stop-color="#363334"/>
      <stop offset="0.55" stop-color="#302c2d"/>
      <stop offset="1" stop-color="#2e2a2b"/>
    </linearGradient>
    <linearGradient id="shop-lingrad-5" x1="403.22" y1="193.57" x2="422.58" y2="193.57" gradientTransform="translate(152.35 -72.37) rotate(16.02)" gradientUnits="userSpaceOnUse">
      <stop offset="0" stop-color="#8b898a"/>
      <stop offset="0.03" stop-color="#767475"/>
      <stop offset="0.09" stop-color="#575556"/>
      <stop offset="0.16" stop-color="#3b3b3b"/>
      <stop offset="0.23" stop-color="#252525"/>
      <stop offset="0.32" stop-color="#141414"/>
      <stop offset="0.43" stop-color="#090909"/>
      <stop offset="0.58" stop-color="#020202"/>
      <stop offset="1"/>
    </linearGradient>
    <radialGradient id="radial-gradient-2" cx="382.35" cy="200.49" r="30.41" gradientTransform="translate(1622.53 -947.88) rotate(58.02) scale(1 8)" gradientUnits="userSpaceOnUse">
      <stop offset="0" stop-color="#fff"/>
      <stop offset="0" stop-color="#fdfdfd"/>
      <stop offset="0.12" stop-color="#dcdcdc"/>
      <stop offset="0.23" stop-color="#c2c2c2"/>
      <stop offset="0.35" stop-color="#afafaf"/>
      <stop offset="0.48" stop-color="#a4a4a4"/>
      <stop offset="0.61" stop-color="#a0a0a0"/>
    </radialGradient>
  </defs>
  <g id="blank">
    <polygon points="285.5 446.8 285.5 453.18 0.58 306.37 0.58 299.99 285.5 446.8" stroke="#020202" stroke-linecap="round" stroke-linejoin="round" stroke-width="0.25" opacity="0.2"/>
    <polygon points="570.42 299.99 570.42 306.36 285.5 453.18 285.5 446.8 570.42 299.99" stroke="#231f20" stroke-linecap="round" stroke-linejoin="round" stroke-width="0.25" opacity="0.2"/>
    <polygon points="570.42 299.99 285.5 446.8 0.58 299.99 285.5 153.18 570.42 299.99" fill="#020202" stroke="#020202" stroke-linecap="round" stroke-linejoin="round" stroke-width="0.25" opacity="0.2"/>
  </g>
  <g id="grass" opacity="0">
    <polygon points="285.5 446.8 285.5 453.18 0.58 306.37 0.58 299.99 285.5 446.8" fill="#c2dc75"/>
    <polygon points="570.42 299.99 570.42 306.36 285.5 453.18 285.5 446.8 570.42 299.99" fill="#496a4b"/>
    <polygon points="570.42 299.99 285.5 446.8 0.58 299.99 285.5 153.18 570.42 299.99" fill="url(#shop-lingrad)"/>
  </g>
  <image id="construction" width="571" height="368" transform="translate(0 85.42)" opacity="0" xlink:href="construction.png"/>
  <image id="ready" width="512" height="454" transform="translate(122.88) scale(0.84)" opacity="0" xlink:href="ready.png"/>
  <g id="cloud-big" opacity="0">
    <path d="M177.06,304c-4-10.24,6.25-63.14,48.53-64.85,14.62-32.31,50.18-53.26,68.49-39.35,5.24,4,9.06,10.79,10.59,21,8.44-4.89,17.43-7,24.75-5.36,9.85,2.24,16.67,11.34,15.08,29.83-2.77,32.25-24.53,52.83-43.26,63.91s-122.82,70.28-125.89,71.86c-4.42,2.27-20.5,9.07-31.18-.63S142.78,321.37,177.06,304Z" fill="#f3f8ff"/>
    <path d="M294.08,199.81c5.24,4,9.06,10.79,10.59,21,8.44-4.89,18.09-7.06,25.78-5.1C324.48,211.26,312.7,200.77,294.08,199.81Z" fill="#afdbff"/>
    <path d="M177.06,304c-4-10.24,6.25-63.14,48.53-64.85l-27.77-14.38c-13.59.13-28.49,6.07-38.91,24.8s-10.16,40.89-10.16,40.89Z" fill="#afdbff"/>
    <path d="M144.17,380.43c-10.69-9.69-1.39-59.06,32.89-76.42l-28.31-13.54c-33.77,15.3-40.63,64.9-31.13,75.19Z" fill="#cde7ff"/>
    <path d="M225.59,239.16l-27.77-14.38S214.2,188.9,242.35,182c15.09-3.56,35.56,2.57,51.73,17.83-18.31-13.91-53.87,7-68.49,39.35" fill="#cde7ff"/>
  </g>
  <g id="cloud-small" opacity="0">
    <path d="M455.91,308.29c2.56-6.47-4-39.92-30.68-41-9.24-20.43-31.72-33.67-43.3-24.88-3.31,2.51-5.73,6.83-6.69,13.29-5.34-3.1-11-4.45-15.66-3.4-6.22,1.42-10.54,7.18-9.53,18.87,1.75,20.39,15.51,33.4,27.35,40.41S455.05,356,457,357c2.79,1.43,13,5.73,19.71-.4S477.59,319.27,455.91,308.29Z" fill="#f3f8ff"/>
    <path d="M381.93,242.41c-3.31,2.51-5.73,6.83-6.69,13.29-5.34-3.1-11.45-4.47-16.3-3.23C362.71,249.65,370.16,243,381.93,242.41Z" fill="#afdbff"/>
    <path d="M455.91,308.29c2.56-6.47-4-39.92-30.68-41l17.56-9.09c8.59.08,18,3.84,24.6,15.68s6.42,25.85,6.42,25.85Z" fill="#afdbff"/>
    <path d="M476.71,356.61c6.76-6.13.88-37.34-20.8-48.32l17.9-8.56c21.35,9.68,25.69,41,19.69,47.54Z" fill="#cde7ff"/>
    <path d="M425.23,267.29l17.56-9.09s-10.36-22.69-28.16-27.06c-9.54-2.26-22.47,1.62-32.7,11.27,11.58-8.79,34.06,4.45,43.3,24.88" fill="#cde7ff"/>
  </g>
  <path id="star-1" d="M508.05,285.93l63.27-22.57-63.27-22.57-22.56-63.27S464,237.89,462.92,240.79l-63.27,22.57,63.27,22.57,22.57,63.27Z" fill="#fff" opacity="0"/>
  <path id="star-2" d="M243,110.1,291.9,92.67,243,75.23,225.59,26.35,208.15,75.23,159.27,92.67l48.88,17.43L225.59,159Z" fill="#fff" opacity="0"/>
  <path id="star-3" d="M202.27,343.27l42.34-15.1-42.34-15.1-15.1-42.34-15.1,42.34-42.34,15.1,42.34,15.1,15.1,42.34Z" fill="#fff" opacity="0"/>
  <g id="hammer" opacity="0">
    <path d="M496,230.56c2.63,1.47,2.48,2.11,6.51,2.29s8.88,1.07,9.15-.07S499,209.67,473.94,205.3c-14.7-2.57-21.69-2.05-29.16.81-10.42,5-20.8,13.84-22.1,14.76-1,3.58,2.29,18.3-18,19.75-2.76.11-11.2,7.94-12.1,10.64s-.66,12.78,10.56,21.41c6.33,4.63,12.06,5.92,15.38,4.76s9.94-7,11.23-9.27,1.93-8.2,3.15-10.19,5.92-5,5.92-5,3.48,8.46,9.66,12.93c0,0,3.48,15.7,9.89,27.28s15.1,27.87,20.07,41.07,19.22,48.72,20.79,52c2.29,4.82,9.35,27.81,10.66,30.71s7,6.46,15,3.62c7.58-2.71,9.57-7.49,11.58-13.75a2.14,2.14,0,0,0-.21-1.76c-3.68-6.08-7.29-15-9.77-21C523.87,377.71,511,346,509,341.26S500.75,317.2,498.55,310s-10.91-39.46-21.89-57a.76.76,0,0,1-.07-.64c1.27-3.71.52-8.87-1.44-14.53-1.9-5.48-1.16-9.66.7-10.91a.85.85,0,0,1,.83-.05c1.82.89,5.59,5,7.42,5.09,2,.06,8.87.3,10.84.66C495.55,232.6,495.43,230.39,496,230.56Z" fill="url(#shop-lingrad-2)"/>
    <path d="M450.38,266.05c3.57.9,6.31,1.36,8.8,1,4.78-.64,8.65-4.2,15.75-13.2.3.48.62,1,.95,1.62,3.43,6.23,7.89,18.37,9.27,22.44,1.51,4.46,10.72,33.65,12.15,39.06s9.78,30.14,15.19,41.81c4.89,10.56,13.31,33,19.53,44.25.66,1.2,1.3,2.27,1.9,3.19a8.51,8.51,0,0,1-.93,3.15c-2.15,4.49-8,10.69-17.13,8.7-4.22-.87-4.88-7.73-6.1-12.66s-17.69-49.08-23.92-63.33-10.2-26.35-18.41-39.53a206.74,206.74,0,0,1-13.24-24.86,77.91,77.91,0,0,1-3.33-9.72C450.53,266.76,450.38,266.05,450.38,266.05Z" fill="#ce8642"/>
    <path d="M394.62,257.34c-.85-3.31-2.05-11.31,8.86-6.69s16.14,16.11,16.4,19c.2,2.25-.28,8.69-12.83,2.42C402.2,269.74,395.5,260.79,394.62,257.34Z" fill="url(#shop-lingrad-3)"/>
    <path d="M396.77,257.62c2.76,3.46,12.41,13.59,18.62,13C413.82,275.22,401.87,270.37,396.77,257.62Z" fill="#494949"/>
    <path d="M395.57,251.82s8.88-.76,17.56,9.18c4.51,5.31,5.16,10.68,5,11.07-1.5-3.82-6.61-17.1-21.61-19.91C395.93,252,395.12,251.92,395.57,251.82Z"/>
    <path d="M398,247.68s5.86-4.81,6.93-5.34c1.05.3,5.75,2.1,8.74.85a15.15,15.15,0,0,0,9.5,7.27s-.05,7.39,5.14,12.38c-1.26,6.2-5.43,7-5.89,8.89C423.37,267.49,413.94,249.89,398,247.68Z" fill="url(#radial-gradient)"/>
    <path d="M422.42,271.73c.95-4.24-8.48-21.84-24.42-24.05,0,0,5.86-4.81,6.93-5.34l1.05.33c.09.25-3.06,1.69-3.45,2.81s.46,1.64,3.34,3.09C409.91,250.6,424.61,260.18,422.42,271.73Z" fill="#fff"/>
    <path d="M409.31,241.94c7.72-2.92,14.14-4.31,14.61-19.85,0,0,1.79.62,3.92,1.13a18.62,18.62,0,0,0,5.31.65,17.13,17.13,0,0,1-.55,1.73C429.62,233.41,419.51,243.49,409.31,241.94Z" fill="#d6d6d6"/>
    <path d="M409.31,241.94c7.72-2.92,14.14-4.31,14.61-19.85,0,0,1.79.62,3.92,1.13C427.84,223.22,426.16,240.48,409.31,241.94Z" fill="#b6b6b6"/>
    <path d="M423.92,222.09s1.79.62,3.92,1.13a18.78,18.78,0,0,0,5.31.65,11.14,11.14,0,0,1-.47,1.5S425.47,224.06,423.92,222.09Z" fill="#fff"/>
    <path d="M415,243a16.11,16.11,0,0,0,1.81,2.37,13.66,13.66,0,0,0,6.73,4.24s17.42-13.56,18-15.21a7.16,7.16,0,0,0,.08-1.6c-.08-2.67-.74-7.26-.29-9.1,0,0-2.28.17-4.48.23-1.08,0-2.14,0-2.9,0-.1.43-.2.91-.33,1.45C432.55,230,429.54,238.4,415,243Z" fill="#959595"/>
    <path d="M416.82,245.36A16.11,16.11,0,0,1,415,243c16.19-5.12,18.07-15,19-19.1.76.06,1.82.06,2.9,0C435.73,237.18,428.5,241.35,416.82,245.36Z" fill="#7b7b7b"/>
    <path d="M423.55,249.6s17.42-13.56,18-15.21a7.16,7.16,0,0,0,.08-1.6C439.66,236.43,423.05,248.74,423.55,249.6Z" fill="#fff"/>
    <path d="M425.42,221s3.81-2.45,8.17-5.18c4.89-3.06,10.46-6.48,12.09-7.16,3.59-1.51,9.17-2.69,19.78-1.65-1,.4-2.09.85-3.22,1.39-5.13,2.41-11.55,6.39-20.47,13.87C440.36,223.27,424,222,425.42,221Z" fill="#bbb"/>
    <path d="M433.59,215.86c4.89-3.06,10.46-6.48,12.09-7.16,3.59-1.51,9.17-2.69,19.78-1.65-1,.4-2.09.85-3.22,1.39-4.28.09-8.53-1.16-27.61,7.31A1.71,1.71,0,0,1,433.59,215.86Z" fill="#fff"/>
    <path d="M428.43,261.55a27.8,27.8,0,0,1-2.08-3.53,17.83,17.83,0,0,1-2.09-7.5.39.39,0,0,1,.18-.34c1.73-1.2,15.81-11.08,17.13-14.31a20.13,20.13,0,0,0,1.05,2.94c.72,1.62,1.82,3.43,3.31,4.1C440.68,243.91,431.43,248.29,428.43,261.55Z" fill="#797979"/>
    <path d="M426.35,258a17.83,17.83,0,0,1-2.09-7.5.42.42,0,0,1,.18-.34c1.73-1.21,15.81-11.08,17.13-14.31a20.13,20.13,0,0,0,1.05,2.94C439.16,239.85,427.55,249.61,426.35,258Z" fill="#646464"/>
    <path d="M440.61,251.48a27,27,0,0,1,10.61-2.21c2.42.4,6.57,14.54,8.18,15.13-2.43.44-8.75.05-10.78-1S442.4,256.37,440.61,251.48Z" fill="#2b2b2b"/>
    <path d="M459.4,264.4c-1.61-.59-5.62-12.94-8.18-15.13-2.25-1.75-10.19-1.56-16.33,3.2a7.84,7.84,0,0,1,1.86-2.54,21.62,21.62,0,0,1,6.6-4.49c4.59-2.07,7.74-.05,9.53,2.4a12.61,12.61,0,0,1,2,4.26A101.82,101.82,0,0,0,459.4,264.4Z" fill="#5b5b5b"/>
    <path d="M436.75,249.93a21.62,21.62,0,0,1,6.6-4.49c4.59-2.07,7.74-.05,9.53,2.4C449,246.52,444.15,244.61,436.75,249.93Z" fill="#404040"/>
    <path d="M477.75,225.33s3.74,2.33,5.77,3.74,6.64.35,9.57,1.32c.22-.77-.79-3.34-5.78-4.61S477.81,224.74,477.75,225.33Z" fill="url(#shop-lingrad-4)"/>
    <path d="M487,223.38c1.71.37,12.69,2.94,17.95,7.59a20.5,20.5,0,0,0-5.22-.37A37.69,37.69,0,0,0,487,223.4S486.93,223.37,487,223.38Z" fill="url(#shop-lingrad-5)"/>
    <path d="M460.82,263.68s12.95-8.94,14-13.77a12.75,12.75,0,0,0-.5-5.42c-1.28-5-4-11-3.62-14.13s4-8.67,12.48-8.82c4.64-.08,10.76,1.41,18.62,5.71,2.05,1.12,4.2,2.45,6.49,4-1.33-2.29-8-10.2-16.77-16-6.74-4.49-14.74-7.76-22.56-6.36-4.62.59-24,11.13-25.23,14.76a18.65,18.65,0,0,0-.83,5.65c-.06,4,.68,8.36,1.85,10.35a7.91,7.91,0,0,0,1.7,2.14,9.37,9.37,0,0,0,4,1.72c2.25.64,5.67,4.49,6.85,10.21a41.32,41.32,0,0,0,2.16,7.11c.2.5.39.94.56,1.33C460.51,263.1,460.82,263.68,460.82,263.68Z" fill="url(#radial-gradient-2)"/>
    <path d="M472.93,225.78c1.95-2.23,5.25-4.15,10.26-4.24,4.64-.08,10.76,1.41,18.62,5.71a30.43,30.43,0,0,0-17.12-6.75C477.76,220.22,474.38,222.88,472.93,225.78Z" fill="#fff"/>
    <path d="M459.51,260.77a41.32,41.32,0,0,1-2.16-7.11c-1.18-5.72-4.6-9.57-6.85-10.21a9.37,9.37,0,0,1-4-1.72c4.62.86,6.27,2.07,7.82,3.29s3.69,6.1,4.46,10.92C459,257.87,459.51,260.77,459.51,260.77Z" fill="#fff"/>
    <path d="M460.07,262.1c.44,1,.75,1.58.75,1.58s12.95-8.94,14-13.77a12.75,12.75,0,0,0-.5-5.42c-1.76,4.48-3.85,10.15-8.88,13.68A66,66,0,0,0,460.07,262.1Z" fill="#3e3e3e"/>
    <path d="M442.91,229.24a18.65,18.65,0,0,1,.83-5.65C445,220,464.35,209.42,469,208.83c7.82-1.4,15.82,1.87,22.56,6.36-7.71-3.11-13.83-4.81-20.72-4.32S451.6,218,446.22,223C445,224.1,442.91,229.24,442.91,229.24Z" fill="#fff"/>
    <path d="M433.66,225.34l.33-1.45c.76.06,1.82.06,2.9,0,2.2-.06,4.48-.23,4.48-.23C440.24,225,434.47,225.68,433.66,225.34Z" fill="#fff"/>
    <path d="M487.19,333.9c4.88,11.93,8.84,22.66,10.33,26.64-3.31-3.19-11.12-22-11.88-27.08S487.19,333.9,487.19,333.9Z" fill="#89340b"/>
    <path d="M527.23,416.05c-2.71-6-24.59-57.93-28.89-68.77-5.4-13.63-17.51-30.35-18.38-33.19,0,0,7.5,18.9,11.5,24.72s20.56,43.55,22,47.2,12.74,29.4,13,30.53Z" fill="#ca6c29"/>
    <path d="M489.72,325.33c-3.37-10.44-18.67-27.69-21.85-40,0,0,8.37,32,10.15,38.09,0,0,7.28,17.15,7.55,17.91s-.18-1.9-1.51-6.42S474.11,307,475,305.59,489.72,325.33,489.72,325.33Z" fill="#c16225"/>
    <path d="M456.37,282.45a61.31,61.31,0,0,0-3.22-15.77l-.6-.12c.23,1.19,2.86,10.46,3,14.23Z" fill="#61230c"/>
    <path d="M462.46,294.2s-5.59-23.69-7.28-27.18c0,0-.55-.06-1.14-.17,0,0,3.7,12,4.21,15s1.93,8.08,1.93,8.08Z" fill="#61230c"/>
    <path d="M468.26,303.92s-6.76-31-10.46-36.74a7.49,7.49,0,0,1-1.07,0s5.52,15.53,7.25,23.91,2.59,10.16,2.59,10.16Z" fill="#681c0a"/>
    <path d="M470.88,308.48a298.13,298.13,0,0,0-11.7-41.41s7.68,18.27,10.08,27.33,4.41,17.57,4.38,19.4C473.64,313.8,471.61,309.79,470.88,308.48Z" fill="#75270c"/>
    <path d="M521.22,418.34s-24.64-60.91-27.88-66.4-4.47-13.94-3.52-12.5S515,395,516.91,399.7s7.17,17.95,7.17,17.95A12.71,12.71,0,0,1,521.22,418.34Z" fill="#c66827"/>
    <path d="M485.8,317.2s10.44,16.83,12.25,20.86,12,27.4,13.48,30.49S530,413.69,530,413.69l-.91.89s-6-14.66-7.35-17.64-23.19-52.65-23.84-54.88C496.53,337.26,483,314.11,485.8,317.2Z" fill="#ebae58"/>
    <path d="M488.45,312.64s10.43,16.83,12.25,20.86,12,27.4,13.47,30.49,18.49,45.13,18.49,45.13l-.91.9s-6-14.66-7.34-17.64-23.19-52.66-23.84-54.88C499.17,332.7,485.6,309.55,488.45,312.64Z" fill="#c16225"/>
    <path d="M470.32,266.81c2.74,3.32,9,15.49,8.89,20.42C477.85,285.52,468.47,265.65,470.32,266.81Z" fill="#bd6027"/>
    <path d="M466.47,263.36s8.9,24.23,16.4,35.86c0,0-4.58-3.27-17.67-34.82C465.2,264.4,466.34,263.51,466.47,263.36Z" fill="#c76a28"/>
    <path d="M500.61,333.08s-10.27-23.68-18.42-34.86c0,0,4.76,3,19.63,33.75C501.82,332,505.28,339.61,500.61,333.08Z" fill="#c76a28"/>
    <path d="M469.06,260.82s15,21.28,14.11,36.21c0,0,1.33,3.3,1.94,3.67,0,0,.07-18.57-14.67-41.39Z" fill="#b05a22"/>
    <path d="M519.17,418.47s-22.37-56.77-30.66-70c0,0,10.53,25.66,13.07,31.06s15.69,36.77,16,38.85C517.58,418.37,518.77,418.47,519.17,418.47Z" fill="#802b0b"/>
    <path d="M507.1,397.47s7.66,17,9.36,20.74a5.41,5.41,0,0,1-1.14-.27s-5.23-12.75-6-14Z" fill="#641e01"/>
    <path d="M473.8,255.29s8.83,15.65,9.53,17.56c0,0,5.72,17.22,6.32,19.15-2.71-4.25-6.31-14.88-8.71-20.1s-8.14-15.38-8.14-15.38Z" fill="#87390d"/>
    <path d="M472.26,257.17s9.7,18.55,11.53,23.23,3.22,8.74,4.52,11.76,3.3,13.12,3.37,14.89a54.52,54.52,0,0,1-4.34-14.14c-.54-4.56-6.77-18.69-8.71-22.11s-6.91-12.79-6.82-13.09Z" fill="#92420f"/>
    <path d="M464,265.24s10.39,28.21,24.36,46l1.76,4.05s-6.57-6.17-15.92-24.53c-3.16-6.51-10.81-25.15-10.81-25.15Z" fill="#bf621e"/>
    <path d="M462.15,266.24s7.14,17,9.87,22.58,9,18.77,9,18.77c-5.9-9.8-19.5-39.83-19.48-41.11Z" fill="#c26526"/>
    <path d="M475.88,255.49c-.33-.6-.65-1.14-.95-1.62-10.79,13.68-14.12,14.8-24.55,12.18,0,0,.15.71.48,1.94,8.14,2.14,12.77,2.54,18.7-3.78C474.61,258.82,475.88,255.49,475.88,255.49Z" fill="#240e03" opacity="0.33"/>
    <path d="M459.14,267.08c-2.49.33-5.19-.13-8.76-1,0,0,.15.71.48,1.94a77.91,77.91,0,0,0,3.33,9.72,206.74,206.74,0,0,0,13.24,24.86c8.21,13.18,12.18,25.28,18.41,39.53s22.71,58.41,23.92,63.33,1.88,11.79,6.1,12.66c11.74,2.54,18-8.32,18.06-11.85-.6-.92-1.24-2-1.9-3.19-3.39,6-13.47,13.14-16.87,5.49-1.44-3.23-4.28-10.89-7.31-19.25-4.14-11.44-8.62-24.21-10.32-28.75-1.49-4-5.45-14.71-10.33-26.64-4.76-11.6-10.39-24.33-15.49-33.09A102.64,102.64,0,0,1,459.14,267.08Z" fill="#240e03" opacity="0.43"/>
    <path d="M532,411.09s-14.74-35.62-16-37.33c.25,2.7,11.23,27.82,12.39,31.11s2.85,7.24,2.85,7.24Z" fill="#a64412"/>
    <path d="M533,409.39a8.51,8.51,0,0,0,.93-3.15c-.6-.92-1.24-2-1.9-3.19-6.22-11.29-14.64-33.69-19.53-44.25-.29,4.2,14.91,37.58,15.94,40.12S532.47,409,533,409.39Z" fill="#9d4710"/>
  </g>
</svg>
