<svg width="70" height="54" viewBox="0 0 70 54" fill="none" xmlns="http://www.w3.org/2000/svg">
<path d="M45.0508 34H8C4.13401 34 1 30.866 1 27C1 23.134 4.13401 20 8 20H45.0508L38.0606 13.0098C35.3131 10.2624 35.3131 5.80797 38.0606 3.06056C40.808 0.313149 45.2624 0.313146 48.0098 3.06055L66.9394 21.9902C69.6586 24.7093 69.6574 29.2919 66.9394 32.0098L48.0098 50.9394C45.2624 53.6869 40.808 53.6869 38.0606 50.9394C35.3131 48.192 35.3131 43.7376 38.0606 40.9902L45.0508 34Z" fill="#FFC230"/>
<path fill-rule="evenodd" clip-rule="evenodd" d="M47.3027 3.76766C44.9458 1.41078 41.1245 1.41078 38.7677 3.76766C36.4108 6.12455 36.4108 9.94581 38.7677 12.3027L47.465 21H8C4.68629 21 2 23.6863 2 27C2 30.3137 4.68629 33 8 33H47.465L38.7677 41.6973C36.4108 44.0542 36.4108 47.8755 38.7677 50.2323C41.1245 52.5892 44.9458 52.5892 47.3027 50.2323L66.2323 31.3027C68.5598 28.9752 68.5608 25.0258 66.2323 22.6973L47.3027 3.76766ZM37.3534 2.35345C40.4914 -0.784481 45.579 -0.784485 48.7169 2.35345L67.6466 21.2831C70.7563 24.3929 70.7549 29.6086 67.6466 32.7169L48.7169 51.6466C45.579 54.7845 40.4914 54.7845 37.3535 51.6465C34.2155 48.5086 34.2155 43.421 37.3535 40.2831L42.6365 35H8C3.58172 35 0 31.4183 0 27C0 22.5817 3.58172 19 8 19H42.6365L37.3534 13.7169C34.2155 10.579 34.2155 5.49138 37.3534 2.35345Z" fill="#171717"/>
</svg>
