<svg width="41" height="34" viewBox="0 0 41 34" fill="none" xmlns="http://www.w3.org/2000/svg">
<path d="M37.0056 32.4545H3.9944L1.51855 7.39308L13.0725 18.253L20.5 1.54541L28.7528 18.253L39.4814 7.39308L37.0056 32.4545Z" fill="#FFCC47"/>
<path fill-rule="evenodd" clip-rule="evenodd" d="M20.4689 0.000325417C21.054 -0.0118632 21.5939 0.31919 21.8567 0.851308L29.1681 15.653L38.4106 6.29736C38.8652 5.83715 39.5549 5.7172 40.1339 5.99762C40.713 6.27804 41.0565 6.8984 40.9923 7.54773L38.5165 32.6091C38.4385 33.3988 37.7854 34 37.0056 34H3.99439C3.21457 34 2.56151 33.3988 2.48349 32.6091L0.00765368 7.54773C-0.0554647 6.90882 0.276183 6.29675 0.840788 6.01015C1.40539 5.72354 2.08531 5.82212 2.54882 6.25778L12.5566 15.6644L19.1165 0.908394C19.3577 0.365775 19.8839 0.0125139 20.4689 0.000325417ZM20.5721 5.13231L14.456 18.8901C14.2549 19.3425 13.8525 19.669 13.3743 19.7677C12.8962 19.8664 12.4006 19.7253 12.0422 19.3884L3.43005 11.2935L5.36789 30.9091H35.6321L37.5464 11.5315L29.8236 19.3488C29.4785 19.6982 28.9897 19.858 28.5092 19.7785C28.0287 19.699 27.6147 19.3899 27.3961 18.9472L20.5721 5.13231Z" fill="#192329"/>
</svg>
