<svg width="116" height="24" viewBox="0 0 116 24" fill="none" xmlns="http://www.w3.org/2000/svg">
  <path
    d="M6.11309 18.02L3.99177 20.1413C3.99522 20.1448 3.99867 20.1482 4.00214 20.1516L6.11309 18.02ZM6.17909 6.668L8.30041 8.78932C8.30376 8.78597 8.3071 8.78261 8.31044 8.77924L6.17909 6.668ZM15.3311 4.864L14.2631 7.66746C14.2761 7.67242 14.2892 7.67729 14.3023 7.68207L15.3311 4.864ZM17.9931 6.448L20.3026 8.36272C21.3531 7.09557 21.1865 5.21859 19.9291 4.15634L17.9931 6.448ZM15.8591 9.022L13.9283 11.3181C14.54 11.8325 15.3318 12.0815 16.1278 12.0099C16.9239 11.9383 17.6585 11.552 18.1686 10.9367L15.8591 9.022ZM13.9891 7.834L12.84 10.6052L12.84 10.6052L13.9891 7.834ZM8.68709 8.89L6.46572 6.87368L6.46413 6.87544L8.68709 8.89ZM8.70909 15.798L6.51939 17.8487C6.52513 17.8548 6.53089 17.8609 6.53667 17.867L8.70909 15.798ZM15.2651 16.26L17.0049 18.704C17.7956 18.1411 18.2651 17.2306 18.2651 16.26H15.2651ZM15.2651 14.06H18.2651C18.2651 12.4031 16.9219 11.06 15.2651 11.06V14.06ZM11.8551 14.06H8.85509C8.85509 15.7169 10.1982 17.06 11.8551 17.06V14.06ZM11.8551 11.134V8.134C10.1982 8.134 8.85509 9.47715 8.85509 11.134H11.8551ZM18.5431 11.134H21.5431C21.5431 9.47715 20.1999 8.134 18.5431 8.134V11.134ZM18.5431 17.822L20.4825 20.1108C21.1552 19.5408 21.5431 18.7037 21.5431 17.822H18.5431ZM11.9651 17.264C10.2577 17.264 9.10108 16.7569 8.22403 15.8884L4.00214 20.1516C6.14642 22.2751 8.8911 23.264 11.9651 23.264V17.264ZM8.23441 15.8987C7.35738 15.0217 6.86909 13.9051 6.86909 12.3H0.869087C0.869087 15.3296 1.87679 18.0263 3.99177 20.1413L8.23441 15.8987ZM6.86909 12.3C6.86909 10.8659 7.33359 9.75614 8.30041 8.78932L4.05777 4.54668C1.94458 6.65986 0.869087 9.30476 0.869087 12.3H6.86909ZM8.31044 8.77924C9.25505 7.82563 10.3944 7.336 11.9431 7.336V1.336C8.88645 1.336 6.18312 2.40104 4.04774 4.55676L8.31044 8.77924ZM11.9431 7.336C13.0324 7.336 13.7765 7.4821 14.2631 7.66746L16.3991 2.06054C15.0377 1.5419 13.5231 1.336 11.9431 1.336V7.336ZM14.3023 7.68207C14.8546 7.88372 15.4403 8.21864 16.057 8.73966L19.9291 4.15634C18.8445 3.24002 17.6556 2.51895 16.3599 2.04593L14.3023 7.68207ZM15.6836 4.53328L13.5496 7.10728L18.1686 10.9367L20.3026 8.36272L15.6836 4.53328ZM17.7899 6.72591C16.9752 6.04084 16.0922 5.45837 15.1381 5.06277L12.84 10.6052C13.0886 10.7083 13.4523 10.9178 13.9283 11.3181L17.7899 6.72591ZM15.1381 5.06277C14.085 4.62612 12.9561 4.46 11.8331 4.46V10.46C12.3821 10.46 12.6905 10.5432 12.84 10.6052L15.1381 5.06277ZM11.8331 4.46C9.71285 4.46 7.87069 5.32584 6.46572 6.87368L10.9085 10.9063C11.2342 10.5475 11.4893 10.46 11.8331 10.46V4.46ZM6.46413 6.87544C5.08479 8.39747 4.41109 10.2644 4.41109 12.3H10.4111C10.4111 11.6663 10.5881 11.2599 10.91 10.9046L6.46413 6.87544ZM4.41109 12.3C4.41109 14.377 5.07337 16.3046 6.51939 17.8487L10.8988 13.7473C10.6141 13.4434 10.4111 13.039 10.4111 12.3H4.41109ZM6.53667 17.867C8.02506 19.4298 9.95326 20.184 12.0751 20.184V14.184C11.4689 14.184 11.1531 14.0142 10.8815 13.729L6.53667 17.867ZM12.0751 20.184C13.8401 20.184 15.5418 19.7455 17.0049 18.704L13.5253 13.816C13.2577 14.0065 12.8327 14.184 12.0751 14.184V20.184ZM18.2651 16.26V14.06H12.2651V16.26H18.2651ZM15.2651 11.06H11.8551V17.06H15.2651V11.06ZM14.8551 14.06V11.134H8.85509V14.06H14.8551ZM11.8551 14.134H18.5431V8.134H11.8551V14.134ZM15.5431 11.134V17.822H21.5431V11.134H15.5431ZM16.6037 15.5332C15.2112 16.7131 13.7019 17.264 11.9651 17.264V23.264C15.1563 23.264 18.0323 22.1869 20.4825 20.1108L16.6037 15.5332ZM20.043 20H17.043C17.043 21.6569 18.3862 23 20.043 23V20ZM20.043 4.6V1.6C18.3862 1.6 17.043 2.94314 17.043 4.6H20.043ZM31.659 4.6H34.659C34.659 2.94314 33.3159 1.6 31.659 1.6V4.6ZM31.659 7.614V10.614C33.3159 10.614 34.659 9.27085 34.659 7.614H31.659ZM23.409 7.614V4.614C21.7522 4.614 20.409 5.95715 20.409 7.614H23.409ZM23.409 10.738H20.409C20.409 12.3949 21.7522 13.738 23.409 13.738V10.738ZM30.669 10.738H33.669C33.669 9.08115 32.3259 7.738 30.669 7.738V10.738ZM30.669 13.752V16.752C32.3259 16.752 33.669 15.4089 33.669 13.752H30.669ZM23.409 13.752V10.752C21.7522 10.752 20.409 12.0951 20.409 13.752H23.409ZM23.409 16.986H20.409C20.409 18.6429 21.7522 19.986 23.409 19.986V16.986ZM31.769 16.986H34.769C34.769 15.3291 33.4259 13.986 31.769 13.986V16.986ZM31.769 20V23C33.4259 23 34.769 21.6569 34.769 20H31.769ZM23.043 20V4.6H17.043V20H23.043ZM20.043 7.6H31.659V1.6H20.043V7.6ZM28.659 4.6V7.614H34.659V4.6H28.659ZM31.659 4.614H23.409V10.614H31.659V4.614ZM20.409 7.614V10.738H26.409V7.614H20.409ZM23.409 13.738H30.669V7.738H23.409V13.738ZM27.669 10.738V13.752H33.669V10.738H27.669ZM30.669 10.752H23.409V16.752H30.669V10.752ZM20.409 13.752V16.986H26.409V13.752H20.409ZM23.409 19.986H31.769V13.986H23.409V19.986ZM28.769 16.986V20H34.769V16.986H28.769ZM31.769 17H20.043V23H31.769V17ZM36.6073 20H33.6073C33.6073 21.6569 34.9505 23 36.6073 23V20ZM36.6073 7.724H39.6073C39.6073 6.06715 38.2642 4.724 36.6073 4.724V7.724ZM31.9213 7.724H28.9213C28.9213 9.38085 30.2645 10.724 31.9213 10.724V7.724ZM31.9213 4.6V1.6C30.2645 1.6 28.9213 2.94314 28.9213 4.6H31.9213ZM44.6813 4.6H47.6813C47.6813 2.94314 46.3382 1.6 44.6813 1.6V4.6ZM44.6813 7.724V10.724C46.3382 10.724 47.6813 9.38085 47.6813 7.724H44.6813ZM39.9953 7.724V4.724C38.3385 4.724 36.9953 6.06715 36.9953 7.724H39.9953ZM39.9953 20V23C41.6522 23 42.9953 21.6569 42.9953 20H39.9953ZM39.6073 20V7.724H33.6073V20H39.6073ZM36.6073 4.724H31.9213V10.724H36.6073V4.724ZM34.9213 7.724V4.6H28.9213V7.724H34.9213ZM31.9213 7.6H44.6813V1.6H31.9213V7.6ZM41.6813 4.6V7.724H47.6813V4.6H41.6813ZM44.6813 4.724H39.9953V10.724H44.6813V4.724ZM36.9953 7.724V20H42.9953V7.724H36.9953ZM39.9953 17H36.6073V23H39.9953V17ZM50.3626 20H47.3626C47.3626 21.6569 48.7058 23 50.3626 23V20ZM50.3626 4.6V1.6C48.7058 1.6 47.3626 2.94314 47.3626 4.6H50.3626ZM60.9666 6.074L58.923 8.27021L58.923 8.27021L60.9666 6.074ZM60.7906 13.972L62.6647 16.3146C62.6706 16.3099 62.6765 16.3051 62.6824 16.3003L60.7906 13.972ZM53.7506 15.38V12.38C52.0938 12.38 50.7506 13.7231 50.7506 15.38H53.7506ZM53.7506 20V23C55.4075 23 56.7506 21.6569 56.7506 20H53.7506ZM53.7506 12.366H50.7506C50.7506 14.0229 52.0938 15.366 53.7506 15.366V12.366ZM58.3926 11.706L56.3746 9.48618C56.3633 9.4965 56.352 9.5069 56.3408 9.51739L58.3926 11.706ZM58.3926 8.274L56.4517 10.5615C56.4654 10.5731 56.4791 10.5845 56.4929 10.5959L58.3926 8.274ZM53.7506 7.658V4.658C52.0938 4.658 50.7506 6.00114 50.7506 7.658H53.7506ZM53.3626 20V4.6H47.3626V20H53.3626ZM50.3626 7.6H56.6546V1.6H50.3626V7.6ZM56.6546 7.6C57.921 7.6 58.5565 7.9292 58.923 8.27021L63.0103 3.87779C61.2648 2.25347 59.0256 1.6 56.6546 1.6V7.6ZM58.923 8.27021C59.2935 8.61503 59.5506 9.07862 59.5506 9.968H65.5506C65.5506 7.63072 64.7518 5.4983 63.0103 3.87779L58.923 8.27021ZM59.5506 9.968C59.5506 10.9182 59.2709 11.3414 58.8989 11.6437L62.6824 16.3003C64.6571 14.6959 65.5506 12.4498 65.5506 9.968H59.5506ZM58.9166 11.6294C58.3761 12.0617 57.5891 12.38 56.3246 12.38V18.38C58.6682 18.38 60.8585 17.7596 62.6647 16.3146L58.9166 11.6294ZM56.3246 12.38H53.7506V18.38H56.3246V12.38ZM50.7506 15.38V20H56.7506V15.38H50.7506ZM53.7506 17H50.3626V23H53.7506V17ZM53.7506 15.366H56.4346V9.366H53.7506V15.366ZM56.4346 15.366C57.7972 15.366 59.2682 14.9974 60.4445 13.8946L56.3408 9.51739C56.3871 9.47401 56.4367 9.43751 56.4852 9.40895C56.5332 9.38071 56.5714 9.36539 56.5929 9.35816C56.6332 9.34457 56.5941 9.366 56.4346 9.366V15.366ZM60.4107 13.9258C61.5717 12.8703 62.1186 11.4669 62.1186 9.99H56.1186C56.1186 9.99384 56.1192 9.90813 56.1742 9.77808C56.2315 9.64279 56.3126 9.54253 56.3746 9.48618L60.4107 13.9258ZM62.1186 9.99C62.1186 8.5377 61.6111 7.03114 60.2924 5.95213L56.4929 10.5959C56.3606 10.4876 56.2444 10.3348 56.1742 10.1689C56.1103 10.0177 56.1186 9.9373 56.1186 9.99H62.1186ZM60.3336 5.98647C59.1385 4.97245 57.6865 4.658 56.3686 4.658V10.658C56.5698 10.658 56.6517 10.6825 56.6502 10.682C56.6475 10.6812 56.6237 10.6737 56.5856 10.6534C56.5469 10.6328 56.5002 10.6027 56.4517 10.5615L60.3336 5.98647ZM56.3686 4.658H53.7506V10.658H56.3686V4.658ZM50.7506 7.658V12.366H56.7506V7.658H50.7506ZM63.298 20H60.298C60.298 21.6569 61.6411 23 63.298 23V20ZM63.298 4.6V1.6C61.6411 1.6 60.298 2.94314 60.298 4.6H63.298ZM72.846 14.5L71.7967 11.6895C70.9324 12.0121 70.2647 12.7145 69.986 13.594C69.7074 14.4735 69.849 15.4322 70.3698 16.1937L72.846 14.5ZM76.608 20V23C77.7208 23 78.7421 22.384 79.2614 21.3998C79.7806 20.4156 79.7124 19.2248 79.0841 18.3063L76.608 20ZM72.648 20L70.1655 21.6845C70.7239 22.5073 71.6536 23 72.648 23V20ZM69.304 15.072L71.7864 13.3875C71.2281 12.5647 70.2983 12.072 69.304 12.072V15.072ZM66.686 15.072V12.072C65.0291 12.072 63.686 13.4151 63.686 15.072H66.686ZM66.686 20V23C68.3428 23 69.686 21.6569 69.686 20H66.686ZM66.686 12.08H63.686C63.686 13.7369 65.0291 15.08 66.686 15.08V12.08ZM72.032 11.486L74.0023 13.7482C74.0159 13.7364 74.0294 13.7244 74.0428 13.7123L72.032 11.486ZM72.01 8.23L70.1182 10.5583C70.133 10.5704 70.148 10.5823 70.163 10.5941L72.01 8.23ZM66.686 7.658V4.658C65.0291 4.658 63.686 6.00114 63.686 7.658H66.686ZM66.298 20V4.6H60.298V20H66.298ZM63.298 7.6H70.338V1.6H63.298V7.6ZM70.338 7.6C71.7604 7.6 72.3904 7.96903 72.7046 8.28332L76.9473 4.04068C75.1789 2.2723 72.8169 1.6 70.338 1.6V7.6ZM72.7046 8.28332C72.9111 8.48976 73.146 8.85365 73.146 9.726H79.146C79.146 7.60635 78.5009 5.59424 76.9473 4.04068L72.7046 8.28332ZM73.146 9.726C73.146 10.4335 72.9865 10.7918 72.8532 10.9846C72.7208 11.1762 72.4469 11.4467 71.7967 11.6895L73.8952 17.3105C75.445 16.7319 76.8212 15.7962 77.7888 14.3964C78.7555 12.9978 79.146 11.3799 79.146 9.726H73.146ZM70.3698 16.1937L74.1318 21.6937L79.0841 18.3063L75.3221 12.8063L70.3698 16.1937ZM76.608 17H72.648V23H76.608V17ZM75.1304 18.3155L71.7864 13.3875L66.8215 16.7565L70.1655 21.6845L75.1304 18.3155ZM69.304 12.072H66.686V18.072H69.304V12.072ZM63.686 15.072V20H69.686V15.072H63.686ZM66.686 17H63.298V23H66.686V17ZM66.686 15.08H70.118V9.08H66.686V15.08ZM70.118 15.08C71.4 15.08 72.831 14.7684 74.0023 13.7482L70.0616 9.22375C70.1181 9.17459 70.1741 9.13715 70.2238 9.11016C70.2727 9.08357 70.3083 9.07096 70.3233 9.06631C70.3494 9.0582 70.2935 9.08 70.118 9.08V15.08ZM74.0428 13.7123C75.195 12.6716 75.714 11.2854 75.714 9.858H69.714C69.714 9.8582 69.714 9.83331 69.7223 9.78853C69.7308 9.7429 69.7471 9.68193 69.7765 9.61185C69.8404 9.45926 69.9349 9.33759 70.0211 9.25969L74.0428 13.7123ZM75.714 9.858C75.714 8.42842 75.2065 6.92031 73.8569 5.86593L70.163 10.5941C70.0051 10.4707 69.8679 10.2958 69.7844 10.1027C69.7081 9.92634 69.714 9.82201 69.714 9.858H75.714ZM73.9017 5.90166C72.7252 4.94575 71.3161 4.658 70.052 4.658V10.658C70.1477 10.658 70.2171 10.6635 70.2635 10.6694C70.3097 10.6754 70.3292 10.6812 70.3272 10.6806C70.3247 10.6799 70.3004 10.6725 70.261 10.6525C70.221 10.6321 70.1713 10.6015 70.1182 10.5583L73.9017 5.90166ZM70.052 4.658H66.686V10.658H70.052V4.658ZM63.686 7.658V12.08H69.686V7.658H63.686ZM77.5904 20H74.5904C74.5904 21.6569 75.9335 23 77.5904 23V20ZM77.5904 4.6V1.6C75.9335 1.6 74.5904 2.94314 74.5904 4.6H77.5904ZM80.9784 4.6H83.9784C83.9784 2.94314 82.6353 1.6 80.9784 1.6V4.6ZM80.9784 20V23C82.6353 23 83.9784 21.6569 83.9784 20H80.9784ZM80.5904 20V4.6H74.5904V20H80.5904ZM77.5904 7.6H80.9784V1.6H77.5904V7.6ZM77.9784 4.6V20H83.9784V4.6H77.9784ZM80.9784 17H77.5904V23H80.9784V17ZM83.067 20H80.067C80.067 21.6569 81.4102 23 83.067 23V20ZM83.067 4.6V1.6C81.4102 1.6 80.067 2.94314 80.067 4.6H83.067ZM86.719 4.6L89.2669 3.0162C88.7194 2.13552 87.756 1.6 86.719 1.6V4.6ZM90.767 11.112L88.2192 12.6958C88.7666 13.5765 89.7301 14.112 90.767 14.112C91.804 14.112 92.7674 13.5765 93.3149 12.6958L90.767 11.112ZM94.815 4.6V1.6C93.7781 1.6 92.8146 2.13552 92.2672 3.0162L94.815 4.6ZM98.467 4.6H101.467C101.467 2.94314 100.124 1.6 98.467 1.6V4.6ZM98.467 20V23C100.124 23 101.467 21.6569 101.467 20H98.467ZM95.101 20H92.101C92.101 21.6569 93.4442 23 95.101 23V20ZM95.101 9.946H98.101C98.101 8.62099 97.2318 7.4529 95.9626 7.07238C94.6934 6.69185 93.3249 7.18901 92.5959 8.29546L95.101 9.946ZM90.767 16.524V19.524C91.7758 19.524 92.7171 19.017 93.2722 18.1745L90.767 16.524ZM90.679 16.524L88.1738 18.1744C88.7288 19.0169 89.6701 19.524 90.679 19.524V16.524ZM86.389 10.012L88.8943 8.3616C88.1653 7.25509 86.7968 6.75785 85.5275 7.13835C84.2583 7.51885 83.389 8.68696 83.389 10.012H86.389ZM86.389 20V23C88.0459 23 89.389 21.6569 89.389 20H86.389ZM86.067 20V4.6H80.067V20H86.067ZM83.067 7.6H86.719V1.6H83.067V7.6ZM84.1712 6.1838L88.2192 12.6958L93.3149 9.5282L89.2669 3.0162L84.1712 6.1838ZM93.3149 12.6958L97.3629 6.1838L92.2672 3.0162L88.2192 9.5282L93.3149 12.6958ZM94.815 7.6H98.467V1.6H94.815V7.6ZM95.467 4.6V20H101.467V4.6H95.467ZM98.467 17H95.101V23H98.467V17ZM98.101 20V9.946H92.101V20H98.101ZM92.5959 8.29546L88.2619 14.8735L93.2722 18.1745L97.6062 11.5965L92.5959 8.29546ZM90.767 13.524H90.679V19.524H90.767V13.524ZM93.1843 14.8736L88.8943 8.3616L83.8838 11.6624L88.1738 18.1744L93.1843 14.8736ZM83.389 10.012V20H89.389V10.012H83.389ZM86.389 17H83.067V23H86.389V17ZM100.407 20H97.4066C97.4066 21.6569 98.7498 23 100.407 23V20ZM100.407 4.6V1.6C98.7498 1.6 97.4066 2.94314 97.4066 4.6H100.407ZM112.023 4.6H115.023C115.023 2.94314 113.679 1.6 112.023 1.6V4.6ZM112.023 7.614V10.614C113.679 10.614 115.023 9.27085 115.023 7.614H112.023ZM103.773 7.614V4.614C102.116 4.614 100.773 5.95715 100.773 7.614H103.773ZM103.773 10.738H100.773C100.773 12.3949 102.116 13.738 103.773 13.738V10.738ZM111.033 10.738H114.033C114.033 9.08115 112.689 7.738 111.033 7.738V10.738ZM111.033 13.752V16.752C112.689 16.752 114.033 15.4089 114.033 13.752H111.033ZM103.773 13.752V10.752C102.116 10.752 100.773 12.0951 100.773 13.752H103.773ZM103.773 16.986H100.773C100.773 18.6429 102.116 19.986 103.773 19.986V16.986ZM112.133 16.986H115.133C115.133 15.3291 113.789 13.986 112.133 13.986V16.986ZM112.133 20V23C113.789 23 115.133 21.6569 115.133 20H112.133ZM103.407 20V4.6H97.4066V20H103.407ZM100.407 7.6H112.023V1.6H100.407V7.6ZM109.023 4.6V7.614H115.023V4.6H109.023ZM112.023 4.614H103.773V10.614H112.023V4.614ZM100.773 7.614V10.738H106.773V7.614H100.773ZM103.773 13.738H111.033V7.738H103.773V13.738ZM108.033 10.738V13.752H114.033V10.738H108.033ZM111.033 10.752H103.773V16.752H111.033V10.752ZM100.773 13.752V16.986H106.773V13.752H100.773ZM103.773 19.986H112.133V13.986H103.773V19.986ZM109.133 16.986V20H115.133V16.986H109.133ZM112.133 17H100.407V23H112.133V17Z"
    fill="black"/>
  <path
    d="M11.9651 20.264C9.57442 20.264 7.62375 19.516 6.11309 18.02C4.61709 16.524 3.86909 14.6173 3.86909 12.3C3.86909 10.0853 4.63909 8.208 6.17909 6.668C7.71909 5.11333 9.64042 4.336 11.9431 4.336C13.2778 4.336 14.4071 4.512 15.3311 4.864C16.2551 5.20133 17.1424 5.72933 17.9931 6.448L15.8591 9.022C15.2138 8.47933 14.5904 8.08333 13.9891 7.834C13.3878 7.58467 12.6691 7.46 11.8331 7.46C10.6011 7.46 9.55242 7.93667 8.68709 8.89C7.83642 9.82867 7.41109 10.9653 7.41109 12.3C7.41109 13.708 7.84375 14.874 8.70909 15.798C9.58909 16.722 10.7111 17.184 12.0751 17.184C13.3364 17.184 14.3998 16.876 15.2651 16.26V14.06H11.8551V11.134H18.5431V17.822C16.6218 19.45 14.4291 20.264 11.9651 20.264ZM20.043 20V4.6H31.659V7.614H23.409V10.738H30.669V13.752H23.409V16.986H31.769V20H20.043ZM36.6073 20V7.724H31.9213V4.6H44.6813V7.724H39.9953V20H36.6073ZM50.3626 20V4.6H56.6546C58.4733 4.6 59.9106 5.09133 60.9666 6.074C62.0226 7.05667 62.5506 8.35467 62.5506 9.968C62.5506 11.684 61.964 13.0187 60.7906 13.972C59.6173 14.9107 58.1286 15.38 56.3246 15.38H53.7506V20H50.3626ZM53.7506 12.366H56.4346C57.2706 12.366 57.9233 12.146 58.3926 11.706C58.8766 11.266 59.1186 10.694 59.1186 9.99C59.1186 9.242 58.8766 8.67 58.3926 8.274C57.9086 7.86333 57.234 7.658 56.3686 7.658H53.7506V12.366ZM63.298 20V4.6H70.338C72.2886 4.6 73.7846 5.12067 74.826 6.162C75.706 7.042 76.146 8.23 76.146 9.726C76.146 12.0873 75.046 13.6787 72.846 14.5L76.608 20H72.648L69.304 15.072H66.686V20H63.298ZM66.686 12.08H70.118C70.9393 12.08 71.5773 11.882 72.032 11.486C72.4866 11.0753 72.714 10.5327 72.714 9.858C72.714 9.13933 72.4793 8.59667 72.01 8.23C71.5406 7.84867 70.888 7.658 70.052 7.658H66.686V12.08ZM77.5904 20V4.6H80.9784V20H77.5904ZM83.067 20V4.6H86.719L90.767 11.112L94.815 4.6H98.467V20H95.101V9.946L90.767 16.524H90.679L86.389 10.012V20H83.067ZM100.407 20V4.6H112.023V7.614H103.773V10.738H111.033V13.752H103.773V16.986H112.133V20H100.407Z"
    fill="white"/>
</svg>
