<svg width="28" height="67" viewBox="0 0 28 67" fill="none" xmlns="http://www.w3.org/2000/svg">
<path d="M14 12C17.3137 12 20 9.31371 20 6C20 2.68629 17.3137 0 14 0C10.6863 0 8 2.68629 8 6C8 9.31371 10.6863 12 14 12Z" fill="white"/>
<path d="M24 13H4C2.93913 13 1.92172 13.4741 1.17157 14.318C0.421428 15.1619 0 16.3065 0 17.5V37C0 38.6569 1.34315 40 3 40V40C4.65685 40 6 38.6569 6 37V22H7V63.75C7 65.5449 8.45507 67 10.25 67V67C12.0449 67 13.5 65.5449 13.5 63.75V41.125H14.5V63.75C14.5 65.5449 15.9551 67 17.75 67V67C19.5449 67 21 65.5449 21 63.75V22H22V37C22 38.6569 23.3431 40 25 40V40C26.6569 40 28 38.6569 28 37V17.5C28 16.3065 27.5786 15.1619 26.8284 14.318C26.0783 13.4741 25.0609 13 24 13Z" fill="white"/>
</svg>
