<svg width="239" height="50" viewBox="0 0 239 50" fill="none" xmlns="http://www.w3.org/2000/svg">
<path d="M96 29H101V38.5C101 39.8807 99.8807 41 98.5 41C97.1193 41 96 39.8807 96 38.5V29Z" fill="#FF7700"/>
<path fill-rule="evenodd" clip-rule="evenodd" d="M86.3414 10.0235C87.7065 10.2118 88.6613 11.469 88.4774 12.8338L88.476 12.8448C88.4743 12.859 88.4711 12.886 88.467 12.9248C88.4588 13.0027 88.447 13.1277 88.4357 13.2931C88.4131 13.6248 88.3932 14.1128 88.4079 14.7035C88.4377 15.9015 88.6083 17.4355 89.1297 18.9231C89.6465 20.3974 90.4779 21.7474 91.7924 22.7377C93.0905 23.7157 95.0673 24.5001 98.1644 24.5001C101.067 24.5001 102.931 23.7312 104.171 22.7634C105.437 21.7758 106.261 20.4182 106.785 18.9227C107.313 17.419 107.502 15.8708 107.551 14.6648C107.575 14.0699 107.564 13.5783 107.548 13.2437C107.54 13.0769 107.531 12.9506 107.524 12.8716C107.521 12.8321 107.518 12.8046 107.516 12.7899L107.515 12.7788L107.516 12.7814L107.516 12.7831L107.515 12.7788C107.362 11.41 108.345 10.1736 109.715 10.0164C111.086 9.8589 112.326 10.8432 112.483 12.2149L110 12.5001C112.483 12.2149 112.484 12.2173 112.484 12.2173L112.484 12.2201L112.485 12.2266L112.487 12.2436L112.492 12.2934C112.496 12.3336 112.501 12.3875 112.506 12.4542C112.518 12.5876 112.531 12.7728 112.542 13.0025C112.564 13.4609 112.578 14.1021 112.547 14.8665C112.486 16.3793 112.248 18.4561 111.504 20.5774C110.757 22.7069 109.466 24.9743 107.247 26.7055C105.002 28.4565 102.012 29.5001 98.1644 29.5001C94.1792 29.5001 91.0943 28.4719 88.7837 26.7312C86.4895 25.0028 85.165 22.7277 84.4112 20.577C83.662 18.4396 83.4473 16.3487 83.4094 14.8279C83.3903 14.0592 83.4159 13.4144 83.4473 12.9531C83.4631 12.722 83.4804 12.5355 83.4946 12.401C83.5016 12.3336 83.508 12.2792 83.5129 12.2385L83.5229 12.161C83.5234 12.1575 87.6576 12.7287 83.5232 12.1585C83.7119 10.7907 84.9736 9.83486 86.3414 10.0235Z" fill="#FF7700"/>
<path d="M54 12.5C54 13.8806 55.1191 15 56.5 15H65V38.5C65 39.8806 66.1191 41 67.5 41C68.8809 41 70 39.8806 70 38.5V15H78.5C79.8809 15 81 13.8806 81 12.5C81 11.1194 79.8809 10 78.5 10H56.5C55.1191 10 54 11.1194 54 12.5Z" fill="#FF7700"/>
<path d="M136.23 35.7656L140 32.5L144.425 36.8891C145.401 37.8654 145.401 39.4483 144.425 40.4247C143.448 41.401 141.865 41.401 140.889 40.4247L136.23 35.7656Z" fill="#192329"/>
<path fill-rule="evenodd" clip-rule="evenodd" d="M129 33C133.971 33 138 28.9706 138 24C138 19.0294 133.971 15 129 15C124.029 15 120 19.0294 120 24C120 28.9706 124.029 33 129 33ZM129 38C136.732 38 143 31.732 143 24C143 16.268 136.732 10 129 10C121.268 10 115 16.268 115 24C115 31.732 121.268 38 129 38Z" fill="#192329"/>
<path fill-rule="evenodd" clip-rule="evenodd" d="M157.231 11.2155C159.87 10.0091 162.791 9.6886 165.612 10.3083C168.41 10.923 170.944 12.4257 172.916 14.5844C174.636 16.312 176.171 18.2351 177.5 20.3162C178.829 18.2351 180.364 16.3121 182.084 14.5844C184.056 12.4257 186.59 10.923 189.388 10.3083C192.209 9.6886 195.13 10.0091 197.769 11.2155C200.403 12.42 202.615 14.4408 204.154 16.9826C205.691 19.5226 206.5 22.4861 206.5 25.5C206.5 28.5139 205.691 31.4774 204.154 34.0175C202.615 36.5592 200.403 38.58 197.769 39.7845C195.13 40.9909 192.209 41.3114 189.388 40.6917C186.59 40.077 184.056 38.5744 182.084 36.4156C180.364 34.688 178.829 32.7649 177.5 30.6839C176.171 32.7649 174.636 34.688 172.916 36.4156C170.944 38.5744 168.41 40.077 165.612 40.6917C162.791 41.3114 159.87 40.9909 157.231 39.7845C154.597 38.58 152.385 36.5592 150.846 34.0175C149.309 31.4774 148.5 28.5139 148.5 25.5C148.5 22.4861 149.309 19.5226 150.846 16.9826C152.385 14.4408 154.597 12.42 157.231 11.2155ZM174.717 25.5C173.291 22.7229 171.477 20.2218 169.349 18.0884C169.331 18.07 169.312 18.0513 169.294 18.0322C169.276 18.0133 169.258 17.9942 169.241 17.975C167.927 16.5285 166.285 15.5755 164.539 15.1919C162.791 14.8078 160.975 15.0017 159.31 15.7629C157.641 16.5261 156.173 17.8378 155.124 19.5718C154.073 21.3076 153.5 23.3713 153.5 25.5C153.5 27.6287 154.073 29.6924 155.124 31.4282C156.173 33.1623 157.641 34.474 159.31 35.2371C160.975 35.9984 162.791 36.1923 164.539 35.8082C166.29 35.4234 167.936 34.4662 169.252 33.0129C169.28 32.9826 169.308 32.9531 169.337 32.9242C171.47 30.7881 173.288 28.2826 174.717 25.5ZM180.283 25.5C181.712 28.2826 183.53 30.7881 185.663 32.9242C185.692 32.9531 185.72 32.9826 185.748 33.0129C187.064 34.4662 188.71 35.4234 190.461 35.8082C192.209 36.1923 194.025 35.9984 195.69 35.2371C197.359 34.474 198.827 33.1623 199.876 31.4282C200.927 29.6924 201.5 27.6287 201.5 25.5C201.5 23.3713 200.927 21.3076 199.876 19.5718C198.827 17.8378 197.359 16.5261 195.69 15.7629C194.025 15.0017 192.209 14.8078 190.461 15.1919C188.71 15.5766 187.064 16.5339 185.748 17.9872C185.72 18.0174 185.692 18.047 185.663 18.0758C183.53 20.212 181.712 22.7175 180.283 25.5Z" fill="#FF7700"/>
<path fill-rule="evenodd" clip-rule="evenodd" d="M165.5 10.1889V15.307C167.073 15.7481 168.543 16.6565 169.741 17.975C169.758 17.9942 169.776 18.0133 169.794 18.0322C169.812 18.0513 169.831 18.07 169.849 18.0884C171.977 20.2218 173.791 22.7229 175.217 25.5C173.788 28.2826 171.97 30.7881 169.837 32.9242C169.808 32.9531 169.78 32.9826 169.752 33.0129C168.552 34.3379 167.078 35.2506 165.5 35.693V40.8112C165.704 40.7762 165.908 40.7364 166.112 40.6917C168.91 40.077 171.444 38.5744 173.416 36.4156C175.136 34.688 176.671 32.7649 178 30.6839C179.329 32.7649 180.864 34.688 182.584 36.4156C184.556 38.5744 187.09 40.077 189.888 40.6917C190.092 40.7364 190.296 40.7762 190.5 40.8112V35.693C188.922 35.2506 187.448 34.3379 186.248 33.0129C186.22 32.9826 186.192 32.9531 186.163 32.9242C184.03 30.7881 182.212 28.2826 180.783 25.5C182.212 22.7175 184.03 20.212 186.163 18.0758C186.192 18.047 186.22 18.0174 186.248 17.9872C187.448 16.6621 188.922 15.7494 190.5 15.307V10.1889C190.296 10.2238 190.092 10.2636 189.888 10.3083C187.09 10.923 184.556 12.4257 182.584 14.5844C180.864 16.3121 179.329 18.2351 178 20.3162C176.671 18.2351 175.136 16.312 173.416 14.5844C171.444 12.4257 168.91 10.923 166.112 10.3083C165.908 10.2636 165.704 10.2238 165.5 10.1889Z" fill="#FF9C00"/>
<path fill-rule="evenodd" clip-rule="evenodd" d="M165.5 15.307V10.1889C165.704 10.2238 165.908 10.2636 166.112 10.3083C168.91 10.923 171.444 12.4257 173.416 14.5844C175.136 16.312 176.671 18.2351 178 20.3162C179.329 18.2351 180.864 16.3121 182.584 14.5844C184.556 12.4257 187.09 10.923 189.888 10.3083C190.092 10.2636 190.296 10.2238 190.5 10.1889V15.307C188.922 15.7494 187.448 16.6621 186.248 17.9872C186.22 18.0174 186.192 18.047 186.163 18.0758C184.03 20.212 182.212 22.7175 180.783 25.5C182.212 28.2826 184.03 30.7881 186.163 32.9242C186.192 32.9531 186.22 32.9826 186.248 33.0129C187.448 34.3379 188.922 35.2506 190.5 35.693V40.8112C190.296 40.7762 190.092 40.7364 189.888 40.6917C187.09 40.077 184.556 38.5744 182.584 36.4156C180.864 34.688 179.329 32.7649 178 30.6839C176.671 32.7649 175.136 34.688 173.416 36.4156C171.444 38.5744 168.91 40.077 166.112 40.6917C165.908 40.7364 165.704 40.7762 165.5 40.8112V35.693C167.078 35.2506 168.552 34.3379 169.752 33.0129C169.78 32.9826 169.808 32.9531 169.837 32.9242C171.97 30.7881 173.788 28.2826 175.217 25.5C173.791 22.7229 171.977 20.2218 169.849 18.0884C169.831 18.07 169.812 18.0513 169.794 18.0322C169.776 18.0133 169.758 17.9942 169.741 17.975C168.543 16.6565 167.073 15.7481 165.5 15.307Z" fill="#FF9C00"/>
<path d="M214.727 41C212.909 41 212 40.1114 212 38.3343V12.7517C212 11.8632 212.227 11.1896 212.682 10.7309C213.167 10.2436 213.788 10 214.545 10C215.242 10 215.758 10.129 216.091 10.387C216.455 10.6163 216.879 11.0176 217.364 11.5908L233.591 31.4979V12.6227C233.591 10.8742 234.5 10 236.318 10C238.106 10 239 10.8742 239 12.6227V38.4203C239 39.2228 238.788 39.8534 238.364 40.3121C237.939 40.7707 237.364 41 236.636 41C235.939 41 235.379 40.871 234.955 40.613C234.561 40.3551 234.121 39.9394 233.636 39.3662L217.409 19.4161V38.3343C217.409 40.1114 216.515 41 214.727 41Z" fill="#FF7700"/>
<g clip-path="url(#clip0_140_1037)">
<rect width="50" height="50" rx="9" fill="url(#paint0_radial_140_1037)"/>
<g clip-path="url(#clip1_140_1037)">
<path d="M27.5279 -1H29.1146C29.5404 -0.887024 29.9889 -0.887024 30.4146 -1L31.4279 -1C31.8946 -0.912426 32.3677 -0.861931 32.8426 -0.849001C33.4818 -0.779122 34.0964 -0.566085 34.6396 -0.226129C34.7277 -0.146895 34.7985 -0.0508282 34.8478 0.0562431C34.8971 0.163314 34.9238 0.279157 34.9264 0.396743V2.28423C34.9264 2.51073 34.9264 2.73723 34.9264 2.96373C34.9358 3.03894 34.9358 3.11502 34.9264 3.19023C34.9264 3.47335 34.9264 3.7376 34.9264 4.02073C34.9264 4.30385 34.9264 4.83235 34.9264 5.22872C34.9264 5.62509 34.9264 5.81384 34.9264 6.09697V8.5507C34.9264 10.0796 34.9264 11.5896 34.9264 13.1184C34.8877 13.3939 34.8877 13.6734 34.9264 13.9489C34.9354 14.0746 34.9354 14.2007 34.9264 14.3264V15.1192C34.9264 15.3645 34.9264 15.6288 34.9264 15.893C34.9264 16.1573 35.1176 16.4215 35.4999 16.2139C35.7805 16.1171 36.0681 16.0414 36.3602 15.9874L36.9911 15.7232L37.5455 15.5533L37.9852 15.4023L38.4249 15.2513L38.9793 15.1192L39.3617 15.0248C39.5567 14.9987 39.7487 14.9545 39.9352 14.8927H40.1455C40.2875 14.8919 40.4268 14.9312 40.547 15.0059C40.8902 15.5073 41.1604 16.0537 41.3499 16.6292C41.572 17.2412 41.7321 17.8734 41.8279 18.5167C41.838 18.6234 41.838 18.7308 41.8279 18.8375C41.857 19.2063 41.8181 19.5772 41.7132 19.9323C41.6268 20.1956 41.5114 20.4488 41.369 20.6873C41.369 20.8571 41.1587 21.0081 41.0632 21.178C40.9078 21.3753 40.7419 21.5644 40.5661 21.7443L40.222 22.084C40.117 22.2065 40.0019 22.3201 39.8779 22.4238C39.7868 22.4773 39.7113 22.5533 39.6589 22.6443C39.6065 22.7353 39.5789 22.8381 39.5789 22.9428C39.5789 23.0475 39.6065 23.1504 39.6589 23.2414C39.7113 23.3324 39.7868 23.4084 39.8779 23.4619C40.2014 23.8047 40.4373 24.2189 40.5661 24.6699C40.7573 25.5469 40.7573 26.4542 40.5661 27.3312C40.5661 27.7087 40.5661 28.0862 40.4323 28.4637C40.2985 29.2754 40.1455 30.087 40.0499 30.8986C40.0662 31.2913 40.1109 31.6824 40.1838 32.0688V33.3523C40.1838 33.7676 40.069 34.2017 40.3176 34.5792C40.5661 34.9567 40.5661 34.9001 40.6617 35.0511C40.7848 35.2289 40.9189 35.3991 41.0632 35.5607L41.2352 35.8627C41.2352 35.9759 41.3308 36.0892 41.3882 36.1836C41.4455 36.2779 41.5411 36.5233 41.5985 36.6932C41.6558 36.8631 41.694 36.9197 41.7323 37.0518C41.8073 37.2687 41.8712 37.4892 41.9235 37.7124C41.9909 37.9203 42.0295 38.1361 42.0382 38.3542C42.0476 38.4672 42.0476 38.5809 42.0382 38.6939C42.0382 39.2413 42.0382 39.8075 42.0382 40.3549C42.0382 40.9023 41.9043 40.94 41.847 41.2232C41.7332 41.5888 41.5992 41.9479 41.4455 42.299C41.4455 42.5067 41.2543 42.7143 41.1396 42.9219C41.0249 43.1295 40.7382 43.6014 40.5088 43.9223C40.2793 44.2432 39.6676 45.017 39.2088 45.5078C38.4892 46.1886 37.7227 46.8193 36.9146 47.3953C36.6852 47.5651 36.4367 47.6973 36.2073 47.8483C35.9779 47.9993 36.0926 48.1503 36.2073 48.2635L36.5323 48.4711L36.9911 48.7731C37.2843 48.9315 37.5337 49.1583 37.7176 49.4338C37.7893 49.5837 37.8408 49.7424 37.8705 49.9056C37.8728 49.9599 37.8618 50.014 37.8385 50.0633C37.8152 50.1125 37.7803 50.1556 37.7367 50.1888C37.5268 50.2076 37.3157 50.2076 37.1058 50.1888C36.5495 49.634 35.9034 49.1747 35.194 48.8298C35.6911 49.1884 36.4367 49.3394 36.5132 50.151C36.382 50.1882 36.2429 50.1882 36.1117 50.151C35.6964 49.8862 35.2543 49.6648 34.7926 49.4904C34.5955 49.4011 34.404 49.3002 34.219 49.1884C33.9705 49.4904 34.6587 49.9623 34.0087 50.1699C33.397 49.4149 32.7279 49.698 32.0014 50C31.5014 50.1564 30.9764 50.2204 30.4529 50.1888H23.819C22.9588 50.1888 22.1749 49.7358 21.3146 49.698C21.0279 49.8113 20.8749 50.1133 20.5499 50.1888C20.3401 50.2076 20.1289 50.2076 19.919 50.1888C19.747 50.0378 19.8043 49.8679 19.919 49.698V49.5281C20.1485 49.2828 20.1293 49.094 19.8043 48.943C19.4945 48.7916 19.1944 48.6214 18.9058 48.4334C18.4331 48.2061 17.9954 47.9138 17.6058 47.5651C17.3974 47.2777 17.146 47.0231 16.8602 46.8101C16.5974 46.5315 16.3547 46.2351 16.1338 45.923L15.9999 45.7531C15.3117 44.8094 15.3117 44.8094 14.2602 45.2058C13.9543 45.319 13.6293 45.3379 13.3235 45.4323C13.07 45.4698 12.8122 45.4698 12.5588 45.4323C11.5706 45.3206 10.6653 44.8331 10.0352 44.0733C9.94738 43.9282 9.87069 43.7767 9.80581 43.6203C9.69893 43.4503 9.60314 43.2738 9.51905 43.0918C9.51905 42.8842 9.34699 42.6577 9.27052 42.4312C9.18573 42.1561 9.14699 41.8692 9.15581 41.5818C9.15581 41.3553 9.15581 41.1477 9.15581 40.94C9.1646 40.8081 9.1646 40.6757 9.15581 40.5437C9.16302 40.4179 9.16302 40.2919 9.15581 40.1662C9.19314 40.0145 9.25101 39.8685 9.32787 39.7321L9.49993 39.4112L9.80581 38.9582L10.1882 38.6373C10.4176 38.3353 10.1882 38.0899 10.1882 37.8446C10.1882 37.5992 9.78669 37.0518 9.5764 36.6366C9.3661 36.2213 9.13669 35.3719 8.90728 34.7491C8.67787 34.1262 8.73522 33.8808 8.62052 33.4656C8.50581 33.0503 8.46757 32.6351 8.41022 32.2198C8.41022 31.2195 8.18081 30.2191 8.29552 29.181C8.29552 28.6147 7.7411 28.728 7.4161 28.5581C7.24231 28.5184 7.075 28.4549 6.91905 28.3694L6.28816 28.0485C6.00197 27.9049 5.74323 27.7133 5.52346 27.4822C5.31316 27.2746 5.12199 27.067 4.91169 26.8971C4.66184 26.6853 4.45434 26.4293 4.29993 26.1421C4.03228 25.7646 3.80287 25.3682 3.55434 24.953C3.37343 24.565 3.25723 24.1507 3.21022 23.7261C3.11044 23.5232 3.05859 23.3005 3.05859 23.0749C3.05859 22.8494 3.11044 22.6267 3.21022 22.4238C3.34024 22.2973 3.4969 22.2006 3.66905 22.1406L4.03228 21.9896C4.24062 21.8958 4.43912 21.782 4.62493 21.6499C4.7988 21.5592 4.9858 21.4955 5.17934 21.4611C5.33562 21.4484 5.48972 21.4167 5.63816 21.3668C5.83367 21.3341 6.02568 21.2836 6.21169 21.2158H6.40287L7.11022 21.0836C7.38654 21.0644 7.66119 21.0266 7.93228 20.9704H8.46757H8.73522C8.96463 20.9704 9.21316 20.9704 9.42346 20.8571C9.42346 20.3475 9.09846 19.97 9.02199 19.4981C8.94552 19.0263 8.69699 18.8564 8.58228 18.5167C8.46758 18.1769 8.2764 17.8749 8.16169 17.5352C8.02335 17.177 7.85717 16.8299 7.66463 16.497V16.2328C7.5844 15.9702 7.47542 15.7171 7.33963 15.4778L7.22493 15.2324C7.07048 14.9658 6.93629 14.6882 6.82346 14.4019C6.8124 14.3016 6.8124 14.2003 6.82346 14.0999C6.76655 13.9341 6.68952 13.7756 6.59405 13.6281C6.59405 13.4582 6.46022 13.2883 6.38375 13.1373C6.30728 12.9863 6.19258 12.8164 6.13522 12.6466C6.06399 12.4469 5.981 12.2515 5.88669 12.0614C5.82819 11.8871 5.75794 11.7169 5.6764 11.5518C5.58081 11.3253 5.46611 11.0988 5.38963 10.8723C5.31316 10.6458 5.25581 10.5514 5.17934 10.3816L4.91169 10.1173C4.90132 10.0106 4.90132 9.90316 4.91169 9.79645C4.86912 9.66131 4.81804 9.52892 4.75875 9.40007L4.49111 9.0792C4.39514 8.87823 4.34304 8.65959 4.33816 8.43745C4.45287 7.73908 5.14111 7.53146 5.54258 7.07846C6.7661 6.07809 8.12346 5.19097 9.3661 4.30385C13.6827 1.67096 18.5189 -0.0214743 23.5514 -0.660252C24.8896 -0.811251 26.2087 -0.811251 27.5279 -1Z" fill="black"/>
<path d="M20.7601 30.1624C20.7601 30.1624 20.7601 30.1624 20.8557 30.1624C22.7674 29.5207 24.9086 29.2375 26.8968 28.6335C28.661 28.1088 30.3912 27.4785 32.0777 26.7461C32.3972 26.5308 32.782 26.4308 33.1674 26.4629C33.5498 26.6706 33.8939 26.4629 34.2571 26.4629C34.8044 26.218 35.4184 26.1593 36.0031 26.2959C36.5878 26.4326 37.11 26.7568 37.488 27.2179C37.9048 28.3285 38.1621 29.4911 38.2527 30.672C38.4576 31.9222 38.4576 33.1968 38.2527 34.447C38.2258 34.6214 38.2412 34.7996 38.2977 34.967C38.3542 35.1344 38.4502 35.2861 38.5777 35.4096C39.4384 36.3805 39.9376 37.6124 39.9924 38.9015C40.071 40.3637 39.7925 41.8231 39.1803 43.1567C38.5681 44.4904 37.6402 45.6592 36.4748 46.5647C34.3681 48.2457 31.8098 49.2822 29.1145 49.5469C26.0408 49.736 22.9703 49.131 20.2057 47.7916C19.6281 47.5829 19.11 47.2397 18.6954 46.7912L18.8483 46.6591L18.7145 46.8101C18.0586 46.4669 17.5 45.9673 17.0895 45.3567C16.2823 44.2916 15.6382 43.115 15.1777 41.8649C15.0248 41.5251 15.1777 41.3741 15.388 41.1854C15.6653 41.0584 15.8894 40.8403 16.0219 40.5683C16.1544 40.2964 16.1871 39.9874 16.1145 39.6942C15.7819 37.1919 15.6667 34.666 15.7704 32.1443C15.7511 31.861 15.7969 31.5772 15.9042 31.3138C16.2726 30.9752 16.742 30.7633 17.2424 30.7098C18.3984 30.4353 19.5746 30.2523 20.7601 30.1624V30.1624Z" fill="#F8CEAA"/>
<path d="M23.2263 0.698863C24.0147 0.436174 24.8413 0.30229 25.6734 0.30249C25.8378 0.331453 26.0061 0.331453 26.1704 0.30249C27.7381 0.396865 28.0822 0.698864 28.1778 2.18998C28.4454 4.98347 28.694 7.85245 28.9999 10.5704C29.0511 10.7536 29.064 10.9451 29.0377 11.1334C29.0114 11.3216 28.9465 11.5026 28.8469 11.6652C27.5469 11.9294 26.2278 12.1748 25.0234 12.4579C23.1116 12.8921 21.3719 13.5338 19.5557 14.0812C19.3646 13.9302 19.3646 13.7037 19.3263 13.496C18.7719 11.0234 18.294 8.43757 17.7587 5.81396C17.6698 5.44461 17.6871 5.05808 17.8087 4.69792C17.9303 4.33776 18.1513 4.01828 18.4469 3.77547C19.5724 2.74568 20.909 1.9668 22.366 1.49161C22.5559 1.41896 22.7556 1.37443 22.9587 1.35949C22.7276 1.36442 22.4999 1.4158 22.2896 1.51048C19.5627 2.47833 16.9428 3.71788 14.4704 5.20997C13.5337 5.77621 12.5587 6.34246 11.6793 6.85208C11.5569 6.89872 11.4457 6.97022 11.3531 7.06196C11.2605 7.15371 11.1884 7.26364 11.1415 7.38464C11.0946 7.50565 11.0741 7.63502 11.0811 7.76438C11.0881 7.89374 11.1225 8.0202 11.1822 8.13558C11.8513 10.5327 12.5587 12.9676 13.3234 15.3458C13.4381 15.61 13.6293 15.8932 13.4381 16.214C13.5719 16.6293 13.3234 16.7614 12.9793 16.7992C12.6352 16.8369 12.6543 16.5538 12.5587 16.3839C11.5072 13.5904 10.4749 10.7214 9.38516 8.00345C9.11751 7.34283 9.38516 6.94646 9.90133 6.55008C11.8991 4.94763 14.1205 3.63807 16.4969 2.66185C17.8933 2.04384 19.3383 1.53885 20.8175 1.15186C21.0273 1.12843 21.233 1.07765 21.4293 1.00086C21.651 0.926543 21.8834 0.888294 22.1175 0.887613C22.2976 0.786953 22.5037 0.740993 22.7102 0.755488C22.8249 0.887613 22.9969 0.528989 23.2263 0.698863Z" fill="#00365B"/>
<path d="M9.51926 21.8953C8.21183 22.0513 6.92812 22.3618 5.69573 22.8202C5.17955 22.9712 5.08396 23.2354 5.54278 23.594C6.48351 24.2753 7.5803 24.7162 8.73543 24.8775C12.4236 25.5378 16.183 25.7218 19.9193 25.4249C23.3356 25.2148 26.7064 24.5415 29.9369 23.4242L31.0075 23.0089C31.2751 23.141 31.4663 23.0089 31.6766 22.8768C33.1886 22.5169 34.6427 21.9516 35.9972 21.1969C36.6854 20.8006 36.8957 20.8949 37.0295 21.6877C37.1724 22.1585 37.2306 22.6504 37.2016 23.141C36.6167 23.6343 35.8676 23.8965 35.0987 23.8772C34.725 23.825 34.3441 23.8832 34.0039 24.0445C33.6637 24.2057 33.3794 24.4627 33.1869 24.7832C32.9694 25.0993 32.6435 25.3272 32.2693 25.4249C30.2868 26.0432 28.2697 26.5474 26.2281 26.9349C26.1277 26.9791 26.0146 26.9862 25.9094 26.9551C25.8041 26.9239 25.7137 26.8565 25.6545 26.765C25.3742 26.4394 25.021 26.1827 24.6229 26.015C24.2247 25.8474 23.7926 25.7735 23.3605 25.7991C22.9285 25.8247 22.5084 25.9492 22.1334 26.1627C21.7585 26.3762 21.439 26.6729 21.2001 27.0293C21.0354 27.2968 20.8059 27.5197 20.5323 27.6778C20.2586 27.836 19.9494 27.9245 19.6325 27.9353C15.8925 28.3789 12.1122 28.3789 8.3722 27.9353C7.27804 27.6898 6.2842 27.1245 5.52031 26.313C4.75642 25.5016 4.25792 24.4817 4.08984 23.3864C4.08984 22.9334 4.35749 22.8768 4.62514 22.7635C6.08882 22.1607 7.64819 21.8157 9.23249 21.7443C9.38543 21.6499 9.51926 21.6499 9.51926 21.8953Z" fill="#00365B"/>
<path d="M13.4383 16.214C12.5589 13.5149 11.7177 10.7592 10.8765 8.04118C10.6471 7.53156 10.6471 7.11631 11.2589 6.83319C13.5148 5.58745 15.6559 4.15295 18.0074 3.05821C19.3996 2.37491 20.8522 1.81892 22.3471 1.39722C22.5 1.39722 22.5192 1.39722 22.4809 1.52934C20.9568 2.11449 19.566 2.99355 18.3898 4.1152C18.1878 4.28221 18.0364 4.50091 17.9521 4.7473C17.8678 4.99369 17.8538 5.25825 17.9118 5.51195C18.4089 8.15443 18.925 10.7969 19.4221 13.4394C19.4221 13.6848 19.4221 13.949 19.4221 14.2133L14.6236 15.9875C14.2221 16.1574 13.9353 16.6293 13.4383 16.214Z" fill="black"/>
<path d="M29.7645 20.1965C27.2005 21.1617 24.521 21.7961 21.7925 22.084C21.4292 22.084 21.3145 22.084 21.2572 21.6499C20.9704 19.7624 20.5689 17.8749 20.2057 15.8175C20.2057 15.6099 20.2057 15.3834 19.9189 15.3268C19.9189 15.0059 20.2631 14.9682 20.5116 14.9115C22.9586 14.1943 25.4248 13.4959 27.9484 13.024C29.1145 12.7975 29.2866 12.873 29.4013 14.0055C29.5925 15.893 29.8028 17.6295 29.9175 19.4415C29.9424 19.7025 29.8892 19.965 29.7645 20.1965V20.1965Z" fill="#E5C06B"/>
<path d="M28.8469 11.7972C28.7322 9.9097 28.4836 7.85233 28.2733 5.88934C28.1204 4.43597 27.9483 2.96373 27.8336 1.47261C27.846 1.29687 27.7924 1.12279 27.6831 0.983544C27.5738 0.844302 27.4164 0.749643 27.241 0.717616L25.6733 0.302368C27.5779 0.10154 29.4953 0.0447503 31.4086 0.132494H31.6763C33.7219 0.226868 33.7983 0.321243 33.8366 2.30311C33.8366 5.07772 33.9895 7.83346 34.1042 10.6081C34.1042 11.1932 33.9704 11.3819 33.3586 11.3819C31.8483 11.4413 30.3423 11.5799 28.8469 11.7972V11.7972Z" fill="#006599"/>
<path d="M20.8943 1.24613C17.6097 2.19019 14.4896 3.6222 11.6414 5.49298C10.8958 6.0026 9.93989 6.4556 9.57665 7.2106C9.21342 7.96559 9.97812 8.85272 10.2649 9.66434C11.1252 12.0614 12.0619 14.4208 12.9796 16.7991L9.959 18.4034C9.5193 18.6299 9.55753 18.2147 9.48106 18.0259C8.73548 16.2328 7.97077 14.4208 7.22518 12.6088C6.82371 11.4386 6.2693 10.325 5.77224 9.07921C5.7203 8.97097 5.70715 8.84851 5.73493 8.73191C5.76272 8.61531 5.8298 8.51149 5.92518 8.43747C10.0605 4.96561 14.9454 2.4735 20.2061 1.15175C20.32 1.13309 20.4363 1.13309 20.5502 1.15175C20.7222 1.07625 20.8943 0.981877 20.8943 1.24613Z" fill="#FEFEFE"/>
<path d="M29.7648 20.1964C29.5881 19.5377 29.5045 18.8581 29.5163 18.1768C29.2868 16.6857 29.153 15.1757 29.0765 13.6846C29.0765 13.0806 28.7707 13.024 28.2927 13.1183C26.1707 13.5525 24.0677 14.0621 21.9839 14.6661C21.2495 14.8376 20.5277 15.0584 19.8236 15.3267L15.1398 16.7989C14.8721 16.7989 14.6045 17.2331 14.356 16.7989C17.8125 15.3769 21.364 14.1913 24.9854 13.2505C27.709 12.5308 30.482 12.0072 33.2824 11.6838C33.7986 11.6838 34.0471 11.6838 34.028 12.2878C34.028 14.0243 34.028 15.7419 34.181 17.4784C34.2045 17.6835 34.1592 17.8905 34.0522 18.0678C33.9451 18.2451 33.7822 18.3828 33.5883 18.4599C32.3743 19.1606 31.0936 19.7422 29.7648 20.1964V20.1964Z" fill="#FBEEB7"/>
<path d="M16.7458 23.1975C19.8479 23.0484 22.9279 22.5996 25.9414 21.8574C29.0108 21.2215 31.9679 20.1402 34.7164 18.6487C34.5634 19.2527 34.0664 19.7057 32.5561 20.6683C31.6958 21.2157 30.7972 21.6875 29.8987 22.1594C31.3388 21.8379 32.7106 21.2693 33.9517 20.4795C34.1046 20.4795 34.1237 20.4795 34.0855 20.6117C32.1047 22.0444 29.8362 23.042 27.4325 23.5373C25.3188 24.0336 23.161 24.3244 20.9899 24.4055C19.5647 24.5185 18.1327 24.5185 16.7075 24.4055L20.5311 24.0658C20.8943 23.8393 21.334 23.9337 21.7355 23.8204C21.8819 23.8301 22.0288 23.8301 22.1752 23.8204L21.3149 23.9525H17.2428C17.2428 23.9525 17.109 23.8582 17.2428 23.7638H17.6634C18.1414 23.5373 18.6384 23.7638 19.212 23.5184C18.4678 23.67 17.7002 23.67 16.9561 23.5184C16.6693 23.5184 16.3252 23.6317 16.0767 23.3674C16.2296 23.1598 16.5164 23.3485 16.7458 23.1975Z" fill="#00365B"/>
<path d="M9.86318 32.9748C11.7749 30.5588 14.5088 28.7279 15.8661 28.8223C15.518 30.1804 15.3319 31.574 15.3117 32.9748C15.323 33.0792 15.2938 33.1841 15.23 33.2681C15.1661 33.3522 15.0724 33.4092 14.9676 33.4277C13.5529 34.0317 12.3294 34.9566 10.9911 35.6739C10.647 35.8437 10.647 36.0325 10.7426 36.3534C10.8976 36.8725 11.0126 37.4025 11.0867 37.9389C10.5061 37.0791 10.0613 36.1372 9.76759 35.1454C9.14834 33.2782 8.8953 31.3115 9.022 29.3508C9.022 29.1243 8.9073 28.7279 9.40436 28.7845C9.90142 28.8411 9.65289 29.1809 9.63377 29.3885C9.60103 30.5883 9.67781 31.7886 9.86318 32.9748V32.9748Z" fill="#FDFDFD"/>
<path d="M36.4751 46.4137C37.2786 45.5122 38.0134 44.5532 38.6736 43.5447C39.367 42.4429 39.7612 41.1832 39.8181 39.8872C39.8751 38.5913 39.5928 37.3027 38.9986 36.1457C38.8075 35.7871 38.6354 35.3718 38.1957 35.202C38.1249 35.1801 38.0645 35.1337 38.0258 35.0712C37.9871 35.0087 37.9727 34.9344 37.9854 34.8622C38.3199 32.4022 38.1244 29.9002 37.4119 27.5199C37.4023 27.3816 37.4023 27.2429 37.4119 27.1046C37.8516 27.3878 38.0427 27.2934 38.0236 26.7649C37.9246 25.8138 37.4508 24.9393 36.7045 24.33C37.4119 23.8015 37.4501 23.8015 37.7751 24.5754C38.3643 26.1719 38.7184 27.8437 38.8266 29.5395C38.9986 31.1439 39.1133 32.786 39.1325 34.4092C39.1238 34.513 39.1381 34.6174 39.1744 34.7152C39.2107 34.813 39.2682 34.9018 39.3427 34.9755C40.2496 35.864 40.8446 37.0158 41.0407 38.2622C41.2368 39.5086 41.0236 40.7843 40.4325 41.9026C39.5899 43.7569 38.2137 45.3256 36.4751 46.4137V46.4137Z" fill="#FEF4E4"/>
<path d="M37.2015 23.0466C36.8383 22.4237 36.9721 21.6687 36.6662 20.9703C35.1066 21.91 33.3813 22.5504 31.5809 22.8578C31.428 22.8578 31.4089 22.8578 31.428 22.7257C33.9915 21.737 36.3842 20.3616 38.5206 18.6487C38.9012 18.3233 39.2356 17.9487 39.5148 17.5351C39.6486 17.3275 39.6486 17.1765 39.3618 17.1387C39.2774 16.9819 39.2448 16.8028 39.2689 16.6267C39.2929 16.4507 39.3722 16.2865 39.4956 16.1572C39.7251 16.1572 39.8398 16.2516 39.9353 16.4403C40.5 17.1762 40.7519 18.1003 40.6377 19.0166C40.5235 19.9329 40.0521 20.7691 39.3236 21.3478C38.6988 22.0078 37.9847 22.5794 37.2015 23.0466V23.0466Z" fill="#006499"/>
<path d="M14.1839 22.2162L11.3545 21.8953C11.2345 21.8928 11.1183 21.8533 11.0222 21.7822C10.9262 21.7111 10.8552 21.612 10.8192 21.4989C10.5324 20.7439 10.2266 19.97 9.92068 19.2151C9.80598 18.9697 9.92068 18.8376 10.0927 18.7243C11.0737 18.2115 12.082 17.7515 13.1133 17.3464C13.2063 17.4019 13.2867 17.4758 13.3492 17.5636C13.4117 17.6513 13.4551 17.7509 13.4766 17.8561C13.8972 19.0829 14.3177 20.3098 14.7192 21.631C14.9104 22.1595 14.8339 22.235 14.1839 22.2162Z" fill="#FEFEFD"/>
<path d="M33.1677 26.4441C29.3595 28.1883 25.3456 29.4564 21.2192 30.2191C21.0989 30.2378 20.9763 30.2378 20.856 30.2191C21.353 29.8227 21.8501 29.4074 22.3663 29.0299C22.7298 28.7032 23.1606 28.458 23.6293 28.3114C24.0979 28.1648 24.5932 28.1201 25.081 28.1806C25.2436 28.2319 25.4198 28.2217 25.5752 28.1519C25.7307 28.0821 25.8543 27.9578 25.9221 27.8031C25.9221 27.5388 26.228 27.5577 26.4383 27.5199C28.4803 27.1583 30.4979 26.6729 32.4795 26.0666C33.0339 25.7835 32.9192 26.312 33.1677 26.4441Z" fill="#EBAB8E"/>
<path d="M20.7603 30.1625C19.6299 30.465 18.4803 30.692 17.3191 30.842C16.8029 30.9364 16.3632 31.2195 15.847 31.2761C15.8374 31.1631 15.8374 31.0494 15.847 30.9364C16.0191 28.728 16.0191 28.728 18.2176 28.577L20.2059 28.3694C20.2059 28.9168 19.8044 29.4264 20.2059 29.9549C20.3397 30.1814 20.55 30.1625 20.7603 30.1625Z" fill="#EBAB8E"/>
<path d="M12.559 44.2997C12.4881 44.336 12.4094 44.355 12.3296 44.355C12.2497 44.355 12.171 44.336 12.1001 44.2997C11.6179 43.9588 11.1811 43.5593 10.8001 43.1105C10.5962 42.8646 10.4439 42.5811 10.352 42.2765C10.2601 41.9719 10.2305 41.6523 10.2648 41.3363C10.2999 41.2411 10.3675 41.161 10.456 41.1098C10.7208 41.0719 10.9785 40.9956 11.2207 40.8833C12.1957 40.8833 12.234 40.8833 12.3487 41.9403C12.4825 41.1475 12.7119 41.0343 13.3237 41.4118C13.6876 41.6427 13.9999 41.9446 14.2413 42.2989C14.3089 42.4242 14.3603 42.5574 14.3943 42.6953C14.4136 42.8014 14.4136 42.9101 14.3943 43.0162C14.3432 43.3159 14.2115 43.5966 14.0132 43.829C13.8148 44.0613 13.5569 44.2369 13.2663 44.3374C13.0369 44.2997 12.7884 44.2997 12.559 44.2997Z" fill="#EBAB8E"/>
<path d="M10.6472 41.1099L10.4752 41.242C10.284 41.393 10.609 41.7516 10.2266 41.8082C10.1386 41.3467 10.1386 40.873 10.2266 40.4115C10.2714 40.0966 10.3876 39.7958 10.5665 39.5314C10.7454 39.267 10.9823 39.0458 11.2598 38.8844C11.5372 38.7229 11.848 38.6253 12.1689 38.5989C12.4899 38.5724 12.8127 38.6178 13.1134 38.7316C13.276 38.7494 13.4269 38.8237 13.539 38.9413C13.6511 39.0589 13.7171 39.2121 13.7252 39.3734C13.9062 40.3023 14.1554 41.217 14.4708 42.1102C14.4408 42.1238 14.4082 42.1308 14.3752 42.1308C14.3422 42.1308 14.3096 42.1238 14.2796 42.1102C14.0119 41.9403 13.8781 41.6572 13.6487 41.4496C13.3296 41.1166 12.9204 40.8809 12.4698 40.7705C12.0191 40.6601 11.5458 40.6796 11.1061 40.8267C10.8958 40.9589 10.7811 41.1476 10.6472 41.1099Z" fill="#F7CDA9"/>
<path d="M14.1839 22.2163C14.5853 22.2163 14.7192 22.103 14.5662 21.6878C14.0692 20.2533 13.5912 18.7999 13.1133 17.3465C13.1133 17.1578 13.3809 17.2144 13.5339 17.1955C13.6262 17.1406 13.732 17.1116 13.8398 17.1116C13.9475 17.1116 14.0533 17.1406 14.1456 17.1955C13.8589 17.3843 13.9736 17.6297 14.1456 17.875C14.528 19.0075 14.8912 20.1589 15.2736 21.2914C15.3522 21.364 15.4113 21.4548 15.4456 21.5556C15.4456 21.3858 15.4456 21.1781 15.4456 21.0083L15.2545 18.9131C15.2545 18.781 15.1206 18.6111 15.3883 18.6489L16.7265 22.4239C15.8744 22.4304 15.0234 22.3609 14.1839 22.2163V22.2163Z" fill="#E3BF6A"/>
<path d="M39.4958 16.2139L39.3238 17.1954L35.8061 17.7239H35.2326C35.0988 17.7239 34.9267 17.7239 34.8885 17.554C34.8502 17.3841 34.9841 17.3275 35.1179 17.2709C36.5299 16.7493 37.9994 16.3945 39.4958 16.2139V16.2139Z" fill="#00355A"/>
<path d="M39.4954 27.4632C39.3042 26.7649 39.1322 26.0665 38.9601 25.3681C38.8248 24.8403 38.619 24.3325 38.3484 23.8581C38.3484 23.6694 38.0425 23.4995 38.3484 23.273C38.6542 23.0465 38.7881 23.273 38.941 23.4806C39.2418 23.7487 39.4733 24.0838 39.6163 24.4581C39.7593 24.8324 39.8096 25.235 39.7631 25.6324C39.7631 26.2364 39.6483 26.8592 39.591 27.5199L39.4954 27.4632Z" fill="#FAFAFA"/>
<path d="M13.2661 44.2998C13.7263 43.9771 14.0843 43.532 14.2985 43.0163C14.4705 43.0163 14.4132 42.6199 14.6999 42.7521C15.0632 43.8846 14.9676 43.9978 13.4191 44.4131C13.3868 44.4061 13.3565 44.3925 13.3301 44.3729C13.3037 44.3534 13.2819 44.3284 13.2661 44.2998V44.2998Z" fill="#F3C9A6"/>
<path d="M10.1309 41.8082C10.322 41.6761 10.1309 41.3741 10.3794 41.2419C10.377 41.8094 10.5327 42.3666 10.8294 42.8526C11.1261 43.3386 11.5524 43.7347 12.0617 43.9977C12.0617 43.9977 12.5397 44.0921 12.0617 44.2431C11.5354 44.0658 11.0727 43.7412 10.7299 43.3089C10.387 42.8766 10.1789 42.3552 10.1309 41.8082V41.8082Z" fill="#EFC5A1"/>
<path d="M35.5002 49.9623H34.1619C34.1619 49.7169 34.009 49.4716 33.9134 49.2451C33.8178 49.0186 33.7031 48.943 33.9134 48.792C34.1237 48.641 34.2193 48.7921 34.334 48.9053C34.4718 49.0349 34.6188 49.1548 34.7737 49.2639C35.0222 49.4149 35.5002 49.4149 35.5002 49.9623Z" fill="#133E59"/>
<path d="M37.0483 49.9622H36.4366C36.0542 49.2261 35.2513 48.9807 34.6777 48.49C35.4998 48.7354 36.5704 48.9241 37.0483 49.9622Z" fill="#005C8E"/>
<path d="M17.1662 23.896H21.6206C21.7735 23.896 21.9074 23.7827 21.9074 24.047L20.6074 24.1791C19.4671 24.0251 18.3133 23.9935 17.1662 24.0847C16.769 24.133 16.3661 24.0743 16 23.9149C16.1338 23.8016 16.3059 23.9149 16.4588 23.9149C16.6118 23.9149 16.9368 23.7639 17.1662 23.896Z" fill="#000102"/>
<path d="M23.6851 49.9622H21.3527C21.1998 49.7924 21.3527 49.5847 21.1807 49.396C22.0457 49.4153 22.8978 49.6079 23.6851 49.9622V49.9622Z" fill="#006295"/>
<path d="M16.7455 23.1978C16.5353 23.4054 16.2485 23.1978 16 23.3299C15.7164 23.4274 15.4155 23.4659 15.1161 23.4432C14.8168 23.4205 14.5254 23.3369 14.2603 23.1978H16.7455Z" fill="#000F18"/>
<path d="M16.8794 23.5374H19.3265C18.7737 23.752 18.1793 23.8423 17.5867 23.8016C17.4147 23.5374 17.0515 23.7261 16.8794 23.5374Z" fill="#000A10"/>
<path d="M14.1455 17.2143H13.5337C13.8017 16.9941 14.1257 16.8505 14.4705 16.7991C14.719 17.0067 14.9866 16.6669 15.2543 16.7991C14.9115 16.9991 14.5364 17.1396 14.1455 17.2143V17.2143Z" fill="#FAECB4"/>
<path d="M35.4998 49.9623C35.3851 49.6037 34.9454 49.5659 34.7925 49.2639C35.0439 49.2839 35.2882 49.3566 35.5091 49.477C35.7299 49.5974 35.9223 49.7628 36.0734 49.9623H35.4998Z" fill="#CCA961"/>
<path d="M21.1808 49.3394C21.5058 49.4526 21.372 49.698 21.3529 49.9056H20.6455C20.7537 49.6623 20.9424 49.4626 21.1808 49.3394V49.3394Z" fill="#017FB0"/>
<path d="M9.51919 21.8952C9.51919 21.7819 9.34713 21.7631 9.23242 21.7442C9.51919 21.5366 9.84419 21.6121 10.2265 21.7442C10.0162 22.0084 9.7486 21.8763 9.51919 21.8952Z" fill="#002237"/>
<path d="M14.6998 42.6955C14.4513 42.6955 14.6998 43.375 14.2983 42.9598V42.6766C14.2983 42.5445 14.413 42.4501 14.566 42.5068L14.6998 42.6955Z" fill="#2A2019"/>
<path d="M20.8943 1.24613L20.5693 1.114C20.7414 0.94413 20.9517 1.00075 21.162 0.98188C21.3723 0.963005 21.4679 0.849755 21.487 1.114L20.8943 1.24613Z" fill="#DADFE1"/>
<path d="M21.4866 1.11408L21.1616 0.981952C21.4633 0.856102 21.7965 0.823206 22.1175 0.887577C22.1175 0.887577 22.1175 0.887577 22.1175 0.887577L21.4866 1.11408Z" fill="#CACED0"/>
<path d="M34.0088 20.6118L33.875 20.4797L34.4485 20.0645C34.4366 20.1879 34.3888 20.3053 34.3107 20.4024C34.2327 20.4995 34.1278 20.5723 34.0088 20.6118V20.6118Z" fill="#002B47"/>
<path d="M15.3116 21.0271C15.4292 21.2674 15.4692 21.5375 15.4263 21.801C15.216 21.6877 15.216 21.4801 15.1777 21.3102L15.3116 21.0271Z" fill="#433123"/>
<path d="M14.5661 42.5066L14.2984 42.6765L14.1455 42.4123C14.1455 42.4123 14.1455 42.1858 14.2793 42.1292H14.4705L14.5661 42.5066Z" fill="#110D0B"/>
<path d="M16.3824 23.896H15.7324V23.7827H16.3824V23.896Z" fill="#002135"/>
<path d="M13.2659 44.2998L13.4189 44.413H12.5586C12.7689 44.1488 13.0365 44.2998 13.2659 44.2998Z" fill="#F6CBA8"/>
<path d="M15.2543 18.6677L15.1205 18.932C15.0686 18.8361 15.0415 18.7292 15.0415 18.6205C15.0415 18.5119 15.0686 18.4049 15.1205 18.3091C15.2161 18.3657 15.2352 18.5167 15.2543 18.6677Z" fill="#6D5336"/>
<path d="M23.2264 0.69862L22.6338 0.887369C22.6338 0.887369 23.0161 0.415496 23.2264 0.69862Z" fill="#566974"/>
<path d="M16.3823 23.896V23.7639H17.1088V23.896H16.3823Z" fill="#002B46"/>
<path d="M31.4279 22.7825L31.5809 22.9146C31.5469 22.9577 31.5034 22.9926 31.4537 23.0166C31.404 23.0406 31.3494 23.0531 31.2941 23.0531C31.2388 23.0531 31.1842 23.0406 31.1345 23.0166C31.0848 22.9926 31.0413 22.9577 31.0073 22.9146L31.4279 22.7825Z" fill="#005584"/>
<path d="M22.6339 0.69873C22.653 0.74728 22.653 0.801181 22.6339 0.84973L22.1177 0.88748C22.2133 0.642106 22.4427 0.717605 22.6339 0.69873Z" fill="#B1BABE"/>
<path d="M25.941 40.8268C26.555 41.0893 27.1959 41.2855 27.8527 41.4119C27.8527 41.6195 27.7189 41.6384 27.5851 41.6761C26.2325 41.522 24.9289 41.0844 23.7615 40.3927C23.682 40.8487 23.7289 41.3176 23.8972 41.7495C24.0654 42.1814 24.3489 42.5604 24.7174 42.8464C24.9851 43.054 25.3483 43.1861 25.5012 43.5259C25.6542 43.8656 25.5012 43.7146 25.3292 43.7713C24.9353 43.7824 24.5445 43.7009 24.1888 43.5335C23.8331 43.3662 23.5229 43.1177 23.2836 42.8086C22.9454 42.4523 22.6678 42.0444 22.4615 41.6006C22.4915 42.4026 22.747 43.1806 23.1994 43.8473C23.6519 44.514 24.2834 45.0432 25.0233 45.3756C26.1765 45.952 27.4663 46.209 28.7556 46.1193C30.0449 46.0295 31.2855 45.5964 32.3454 44.866C32.613 44.6773 33.0145 44.5263 32.938 44.0733C32.8615 43.6203 32.5174 43.9034 32.4792 43.6391C32.9114 43.0669 33.2471 42.4296 33.4733 41.7516C33.4462 41.6336 33.4462 41.5111 33.4733 41.393C34.2157 41.2474 34.9085 40.9183 35.487 40.4363C36.0654 39.9543 36.5105 39.3354 36.7807 38.6373C36.7807 38.524 36.9145 38.4108 36.8954 38.3164C36.6468 37.4104 37.316 37.6747 37.6983 37.7313C38.0073 37.7602 38.3046 37.8629 38.5644 38.0306C38.8242 38.1983 39.0388 38.426 39.1895 38.6939C38.8836 38.977 38.616 38.6939 38.3674 38.5995C38.1189 38.5052 37.5262 38.3919 37.2586 39.0148C37.1245 39.4238 36.9081 39.8019 36.6222 40.1262C36.3364 40.4506 35.9871 40.7146 35.5954 40.9023C35.366 41.0721 35.4042 41.3741 35.3468 41.6006C34.8746 43.2665 33.8115 44.7092 32.3516 45.6655C30.8916 46.6218 29.132 47.0281 27.3939 46.8101C26.3707 46.761 25.3745 46.4695 24.4895 45.9603C23.6044 45.4511 22.8564 44.7391 22.3086 43.8845C22.0853 43.6986 21.905 43.4677 21.7797 43.2072C21.6544 42.9467 21.587 42.6628 21.5821 42.3745C21.6195 42.1749 21.6195 41.9702 21.5821 41.7705C21.5061 41.5052 21.5061 41.2242 21.5821 40.9589C21.3527 40.9589 21.1807 41.2609 20.9321 40.9589C21.2111 40.5073 21.6008 40.1322 22.0652 39.8683C22.5296 39.6045 23.0538 39.4602 23.5895 39.4489H24.2204C24.5071 39.4489 24.7365 39.3357 25.0042 39.3357C25.2718 39.3357 25.3483 39.3357 25.4248 39.5055C25.4248 40.1473 24.9851 39.9397 24.5645 39.9208C24.8321 40.4115 25.5395 40.3738 25.941 40.8268Z" fill="#010101"/>
<path d="M25.2339 39.5055C25.1 39.3734 24.9471 39.4111 24.775 39.4111C24.7296 39.4407 24.6782 39.4603 24.6244 39.4687C24.5706 39.477 24.5157 39.474 24.4632 39.4597C24.4107 39.4454 24.3619 39.4202 24.3201 39.3858C24.2782 39.3514 24.2443 39.3085 24.2206 39.2601C23.6475 38.904 23.2364 38.3425 23.0736 37.6935C23.0659 37.6044 23.0327 37.5193 22.978 37.4481C22.3662 36.8819 22.3662 36.8819 23.1118 36.5421C21.9289 36.5543 20.7528 36.7193 19.6133 37.0329C20.3089 36.5747 21.088 36.2542 21.9074 36.0891C21.5594 35.4411 21.4512 34.6935 21.6015 33.9751C21.7258 33.4263 22.0402 32.9375 22.4904 32.593C22.9405 32.2484 23.4984 32.0697 24.0677 32.0877C24.6462 32.1068 25.1984 32.331 25.6232 32.7192C26.0479 33.1074 26.3169 33.6337 26.3809 34.2016C26.3895 34.484 26.467 34.7601 26.6068 35.0065C26.7466 35.253 26.9445 35.4625 27.1839 35.6173C27.5268 35.8607 27.7785 36.2094 27.8995 36.6089C28.0206 37.0084 28.0042 37.4363 27.853 37.8256C27.7267 38.2973 27.4543 38.7183 27.0738 39.0296C26.6934 39.341 26.2238 39.5272 25.7309 39.5621C25.6162 39.6187 25.4059 39.7131 25.2339 39.5055Z" fill="#010100"/>
<path d="M35.4998 36.2592C35.4998 35.9005 35.4998 35.7307 35.0792 35.6174C34.6529 35.4521 34.2922 35.155 34.051 34.7706C33.8098 34.3862 33.701 33.935 33.741 33.4845C33.7111 33.0329 33.8166 32.5826 34.0444 32.1898C34.2722 31.797 34.6122 31.4793 35.0219 31.2762C35.375 31.154 35.7606 31.1589 36.1104 31.2902C36.4602 31.4214 36.7518 31.6705 36.9336 31.9934C37.1825 32.5422 37.3313 33.1301 37.3734 33.7299C37.5645 34.4283 37.1057 34.5793 36.7998 34.9002L36.0925 35.5985C35.8439 35.8062 35.6336 36.0327 35.4998 36.2592Z" fill="#010101"/>
<path d="M33.5882 45.6587L33.9706 45.1113C33.8758 45.9446 33.5355 46.7322 32.9918 47.3764C32.4481 48.0205 31.7248 48.493 30.9117 48.7353C30.3811 49.0106 29.7853 49.14 29.1867 49.1101C28.5881 49.0802 28.0086 48.8921 27.5088 48.5654L29.5735 48.2446C29.7073 48.4899 29.7838 48.2446 29.8794 48.2446C30.1142 48.1862 30.3443 48.1105 30.5676 48.0181C30.7242 47.9719 30.8726 47.9019 31.0073 47.8104C32.0472 47.3342 32.9384 46.5911 33.5882 45.6587Z" fill="#E9AA8D"/>
<path d="M35.5957 40.8269C36.3587 40.2252 36.9405 39.4289 37.2781 38.5242C37.4119 38.1655 37.6031 38.2222 37.8707 38.241C38.1384 38.2599 38.6928 38.7506 39.1898 38.6751C39.4384 39.0149 39.3236 39.2414 38.9604 39.4679C37.9152 40.0869 36.7806 40.5451 35.5957 40.8269V40.8269Z" fill="#EAAB8E"/>
<path d="M34.6013 37.5425C34.4332 37.8286 34.192 38.066 33.9018 38.231C33.6116 38.3961 33.2825 38.4829 32.9476 38.4829C32.6127 38.4829 32.2837 38.3961 31.9934 38.231C31.7032 38.066 31.462 37.8286 31.2939 37.5425C31.5042 37.4482 31.6572 37.2028 31.9057 37.165C32.4576 36.9934 33.0194 36.8548 33.5881 36.7498C34.3337 36.6365 34.6778 36.9385 34.6013 37.5425Z" fill="#EBAC8F"/>
<path d="M21.7542 42.2613C21.8318 42.8087 22.0204 43.3351 22.3086 43.809C21.8307 43.6958 21.6586 43.2428 21.3336 42.9597C21.2601 42.9448 21.193 42.9077 21.1416 42.8536C21.0903 42.7996 21.0572 42.7311 21.0468 42.6577C21.0468 42.1103 20.3013 41.6384 20.7601 40.9778C21.1233 40.9778 21.3145 40.6192 21.8307 40.4871C21.2954 40.9212 21.6777 41.2987 21.6586 41.6762C21.6775 41.7313 21.6775 41.791 21.6586 41.8461C21.6586 41.8461 21.3336 41.8461 21.6586 42.0914C21.7036 42.1398 21.7364 42.198 21.7542 42.2613V42.2613Z" fill="#E7A88B"/>
<path d="M25.2337 39.5056H25.8072C25.6543 39.6377 25.4248 39.751 25.6734 39.9964C25.7697 40.1001 25.8432 40.2225 25.8893 40.3556C25.9353 40.4888 25.9529 40.63 25.941 40.7702C25.2202 40.561 24.5365 40.2426 23.9146 39.8265C24.3351 39.5622 24.9087 39.9586 25.2337 39.5056Z" fill="#DCA084"/>
<path d="M31.8484 37.2593C31.6572 37.2593 31.5616 37.6368 31.2939 37.5425C31.5419 37.1428 31.876 36.8019 32.2725 36.5442C32.669 36.2865 33.1182 36.1182 33.5881 36.0513C33.7946 35.9871 34.0159 35.9852 34.2236 36.0457C34.4313 36.1062 34.6161 36.2265 34.7542 36.3911C34.7542 36.5421 34.7542 36.5987 34.6204 36.6365C33.6565 36.5945 32.699 36.8097 31.8484 37.2593Z" fill="#100D0A"/>
<path d="M31.8486 37.2595C32.6898 36.731 33.4927 36.1459 34.5825 36.5612C34.9648 36.6744 34.7927 37.033 34.8883 37.2784L34.6016 37.5426C34.6016 36.8254 34.0663 36.8254 33.531 36.882C32.9957 36.9386 32.4795 37.3916 31.8486 37.2595Z" fill="#F3C9A6"/>
<path d="M33.5881 45.6587C33.0944 46.6938 32.2191 47.5039 31.1411 47.9237C31.0072 47.9237 30.9117 47.7916 30.9881 47.6406C31.7515 47.2697 32.4488 46.7788 33.0528 46.1872C33.2058 45.9229 33.2822 45.6587 33.5881 45.6587Z" fill="#110D0A"/>
<path d="M33.4546 41.4119L33.5693 41.695C33.0328 41.9662 32.4302 42.0839 31.8296 42.0347H29.4781C29.2192 42.08 28.9525 42.026 28.7325 41.8837C28.6369 41.7327 28.7325 41.6572 28.8664 41.6761H30.9311C31.7792 41.6733 32.6248 41.5847 33.4546 41.4119V41.4119Z" fill="#1A1918"/>
<path d="M28.8662 41.6574L28.6942 41.7895C28.6003 41.8536 28.4945 41.8986 28.3828 41.9219C28.2712 41.9452 28.156 41.9463 28.0439 41.9253C27.9318 41.9042 27.8251 41.8613 27.73 41.7991C27.6348 41.7369 27.5532 41.6567 27.4897 41.563L27.8147 41.412C28.1803 41.4078 28.5413 41.492 28.8662 41.6574V41.6574Z" fill="#2E2722"/>
<path d="M20.4353 44.8661C20.4353 45.017 20.2823 45.1303 20.1294 45.0925C20.0635 45.0925 20.0003 45.0667 19.9537 45.0207C19.907 44.9747 19.8809 44.9123 19.8809 44.8472C19.8809 44.7821 19.907 44.7197 19.9537 44.6737C20.0003 44.6277 20.0635 44.6018 20.1294 44.6018C20.3397 44.6207 20.4353 44.6962 20.4353 44.8661Z" fill="#2F241C"/>
<path d="M20.5884 43.658C20.6615 43.6526 20.7339 43.675 20.7908 43.7206C20.8477 43.7662 20.8847 43.8317 20.8943 43.9034C20.8943 44.0544 20.8943 44.1299 20.684 44.1677C20.6487 44.1791 20.6113 44.1827 20.5745 44.178C20.5376 44.1733 20.5023 44.1605 20.4712 44.1406C20.44 44.1207 20.4137 44.0941 20.3943 44.0629C20.3749 44.0316 20.3628 43.9965 20.359 43.96C20.3207 43.809 20.4354 43.7147 20.5884 43.658Z" fill="#2E231B"/>
<path d="M21.047 42.6577L21.3338 42.9597C21.2191 43.1296 21.1043 43.375 20.8749 43.1485C20.6455 42.922 20.8176 42.771 21.047 42.6577Z" fill="#2C221A"/>
<path d="M18.753 46.8102C18.753 46.6215 18.6383 46.3572 18.9824 46.3195C19.0165 46.3125 19.0519 46.314 19.0853 46.3239C19.1187 46.3338 19.1491 46.3517 19.1737 46.376C19.1984 46.4003 19.2165 46.4303 19.2265 46.4633C19.2365 46.4963 19.238 46.5312 19.2309 46.5649C19.2309 46.9046 18.9251 46.7725 18.7339 46.7914L18.753 46.8102Z" fill="#231B15"/>
<path d="M22.7865 37.939C22.7865 38.1467 22.7865 38.241 22.538 38.2599C22.2895 38.2788 22.3277 38.2599 22.2895 38.0712C22.2777 38.0389 22.2735 38.0044 22.2772 37.9703C22.2809 37.9362 22.2923 37.9034 22.3108 37.8743C22.3292 37.8452 22.354 37.8207 22.3834 37.8024C22.4129 37.7842 22.4461 37.7729 22.4806 37.7692C22.6527 37.7314 22.7292 37.8447 22.7865 37.939Z" fill="#251C16"/>
<path d="M22.2895 38.7695C22.3243 38.7739 22.3578 38.7854 22.3877 38.8034C22.4177 38.8214 22.4434 38.8454 22.4633 38.874C22.4831 38.9025 22.4967 38.9348 22.503 38.9689C22.5093 39.0029 22.5082 39.0379 22.4998 39.0715C22.4974 39.0988 22.4896 39.1254 22.4767 39.1497C22.4639 39.174 22.4463 39.1955 22.4249 39.2131C22.4036 39.2306 22.379 39.2438 22.3525 39.2519C22.3259 39.26 22.2981 39.2629 22.2704 39.2603C22.2348 39.2614 22.1994 39.2543 22.167 39.2396C22.1347 39.2248 22.1062 39.2029 22.084 39.1754C22.0617 39.1479 22.0462 39.1157 22.0388 39.0813C22.0313 39.0469 22.0321 39.0112 22.041 38.9772C22.0535 38.9204 22.0847 38.8693 22.1296 38.8317C22.1745 38.7942 22.2308 38.7723 22.2895 38.7695V38.7695Z" fill="#17110D"/>
<path d="M19.3838 45.7531C19.3866 45.6951 19.4088 45.6396 19.4468 45.5952C19.4848 45.5509 19.5366 45.5201 19.5941 45.5078C19.627 45.4993 19.6615 45.4982 19.6949 45.5045C19.7284 45.5109 19.7599 45.5245 19.7874 45.5443C19.8149 45.5642 19.8375 45.5899 19.8537 45.6195C19.8698 45.649 19.8791 45.6818 19.8808 45.7154C19.8901 45.7444 19.8922 45.7751 19.8868 45.8051C19.8814 45.835 19.8688 45.8632 19.8501 45.8873C19.8313 45.9114 19.8069 45.9306 19.779 45.9434C19.7511 45.9562 19.7204 45.9622 19.6897 45.9608C19.6555 45.9727 19.619 45.9765 19.5831 45.9718C19.5473 45.9671 19.513 45.9541 19.4832 45.9339C19.4533 45.9136 19.4288 45.8867 19.4115 45.8553C19.3942 45.8239 19.3847 45.7889 19.3838 45.7531V45.7531Z" fill="#19140F"/>
<path d="M34.8884 37.2782C34.6016 37.1084 34.7928 36.7497 34.5825 36.561L34.7546 36.3911C34.8822 36.4977 34.9662 36.6465 34.9908 36.8098C35.0154 36.973 34.979 37.1395 34.8884 37.2782V37.2782Z" fill="#292018"/>
<path d="M30.7398 48.0748C30.4913 48.2258 30.2619 48.4334 29.9751 48.1881V48.0937C30.128 47.9427 30.3383 47.9427 30.5104 47.8672C30.5648 47.8763 30.6154 47.9008 30.6561 47.9376C30.6968 47.9744 30.7259 48.0221 30.7398 48.0748V48.0748Z" fill="#3C2C23"/>
<path d="M30.7399 48.0748L30.5679 47.9238C30.5679 47.8294 30.6635 47.8294 30.7208 47.7728L30.9885 47.6218L31.1414 47.9049L30.7399 48.0748Z" fill="black"/>
<path d="M30.7206 47.7917L30.5677 47.9428L29.9941 48.1126C30.1471 47.8295 30.4147 47.7917 30.7206 47.7917Z" fill="#E9AA8D"/>
<path d="M29.8792 48.2068C29.8772 48.2525 29.8653 48.2973 29.8443 48.3382C29.8233 48.379 29.7937 48.415 29.7575 48.4436C29.7213 48.4722 29.6793 48.4928 29.6343 48.504C29.5893 48.5153 29.5425 48.5169 29.4968 48.5088C29.4968 48.5088 29.3439 48.5088 29.3821 48.4144C29.4203 48.32 29.5159 48.3012 29.5733 48.2445L29.8792 48.2068Z" fill="#8B5F4C"/>
<path d="M24.2204 39.2603C24.3808 39.3748 24.5776 39.4285 24.7748 39.4112C24.5454 39.6755 24.2969 39.4112 24.0483 39.4112L24.2204 39.2603Z" fill="#DCA084"/>
<path d="M22.481 1.54809L22.3472 1.41597C22.5575 1.18947 22.806 1.30272 23.2457 1.24609C23.03 1.42476 22.762 1.53059 22.481 1.54809Z" fill="#001623"/>
<path d="M21.9074 24.0281L21.6206 23.8771C21.8883 23.6695 22.1941 23.7638 22.5765 23.7638C22.3928 23.9284 22.1553 24.0222 21.9074 24.0281V24.0281Z" fill="#001D2E"/>
<path d="M13.075 31.6157C12.0101 32.4058 11.0695 33.3472 10.2838 34.4092C9.8441 33.4655 9.8441 33.3333 10.6088 32.7482C11.3018 32.1419 12.1589 31.7484 13.075 31.6157V31.6157Z" fill="#050505"/>
<path d="M14.4704 32.484C13.0557 33.2968 11.7678 34.3077 10.6468 35.4852C10.2836 34.9944 10.341 34.6547 10.8571 34.296C11.7668 33.6414 12.7327 33.0667 13.7439 32.5784C13.851 32.5121 13.9713 32.4693 14.0967 32.453C14.2221 32.4367 14.3495 32.4473 14.4704 32.484V32.484Z" fill="#050505"/>
<path d="M14.2793 42.1102C14.2853 42.1649 14.2759 42.2203 14.2524 42.2702C14.2288 42.3201 14.1918 42.3627 14.1455 42.3933C13.8787 42.0303 13.5485 41.7171 13.1705 41.4684C13.0175 41.3741 12.8646 41.1664 12.6734 41.2608C12.4822 41.3552 12.5205 41.6194 12.4822 41.8082C12.444 41.9969 12.5587 42.2234 12.5587 42.4122C12.4355 42.346 12.3372 42.2422 12.2786 42.1164C12.22 41.9905 12.2043 41.8493 12.2337 41.7138C12.4249 40.7701 11.8322 40.8645 11.2396 40.94C11.0675 40.94 11.0293 40.94 11.0484 40.7512C11.6603 40.5191 12.3396 40.5312 12.9426 40.7848C13.5456 41.0384 14.025 41.5138 14.2793 42.1102V42.1102Z" fill="#0D0A08"/>
<path d="M10.9527 40.8079L11.1439 40.9966C10.9527 40.9966 10.8189 41.3741 10.5513 41.1099C10.6469 41.0155 10.7616 40.8267 10.9527 40.8079Z" fill="#2F241C"/>
<path d="M17.0323 47.5084C17.0323 47.3574 16.9176 47.1121 17.1661 47.1121C17.4146 47.1121 17.2808 47.3574 17.2808 47.5084H17.0323Z" fill="#0A0602"/>
<path d="M27.4899 41.563C27.8729 41.7141 28.2818 41.791 28.6943 41.7895H29.3634C30.2156 41.8649 31.073 41.8649 31.9252 41.7895L33.5693 41.6385C33.432 42.4063 33.0343 43.1052 32.4414 43.6203C32.4414 43.6203 32.1928 43.6203 32.3458 43.7713C32.4987 43.9223 32.8046 43.7713 33.0149 43.9035C33.2252 44.0356 33.1678 44.3942 33.0149 44.583C31.6725 45.7129 29.9552 46.3146 28.1917 46.2728C26.4281 46.231 24.742 45.5487 23.4561 44.3565C23.0414 43.9349 22.7322 43.4236 22.553 42.8633C22.3737 42.3029 22.3295 41.709 22.4237 41.1288C22.6551 41.7596 23.0478 42.3205 23.5637 42.7571C24.0796 43.1937 24.7011 43.4911 25.3678 43.6203C25.5574 43.6552 25.7518 43.6552 25.9414 43.6203C25.86 43.6385 25.7749 43.6298 25.6989 43.5958C25.623 43.5617 25.5604 43.504 25.5208 43.4316C24.9732 43.216 24.5009 42.8478 24.1615 42.3719C23.8221 41.8961 23.6301 41.333 23.609 40.7514C23.5812 40.5126 23.6209 40.2709 23.7237 40.053C24.8939 40.7427 26.1639 41.2519 27.4899 41.563V41.563Z" fill="#FEFEFE"/>
<path d="M33.0148 43.96H31.9824C32.0094 43.8648 32.0714 43.783 32.1563 43.7307C32.2411 43.6783 32.3428 43.6591 32.4412 43.6769C32.5177 43.96 32.9001 43.7146 33.0148 43.96Z" fill="#BAB9B7"/>
<path d="M25.3678 43.5447L25.9413 43.7334C25.8361 43.8101 25.7088 43.8514 25.5781 43.8514C25.4473 43.8514 25.32 43.8101 25.2148 43.7334L25.3678 43.5447Z" fill="#484644"/>
<path d="M27.3752 37.5049C27.3752 37.6559 27.5472 37.7314 27.4707 37.9579C27.2527 38.4071 26.8848 38.7685 26.4288 38.9816C25.9728 39.1946 25.4564 39.2464 24.9663 39.1282C24.4855 39.0157 24.0636 38.732 23.7814 38.3315C23.4992 37.931 23.3765 37.4418 23.4369 36.9575C23.4369 36.5234 23.6855 36.429 24.106 36.4668C25.0635 36.5393 25.9948 36.8094 26.8399 37.2595C26.9546 37.3539 27.1075 37.2595 27.2222 37.2595C27.3369 37.2595 27.3943 37.3917 27.3752 37.5049Z" fill="#F7CEAA"/>
<path d="M25.7311 33.8053C25.7479 34.0538 25.6683 34.2993 25.5086 34.4921C25.3488 34.6848 25.1208 34.8104 24.8708 34.8434C24.6192 34.8069 24.3895 34.6816 24.2243 34.4907C24.0591 34.2999 23.9696 34.0563 23.9723 33.8053C23.9545 33.5574 24.0307 33.3119 24.1862 33.1165C24.3417 32.9211 24.5653 32.7899 24.8134 32.7483C24.9441 32.7578 25.0716 32.7928 25.1886 32.8512C25.3055 32.9095 25.4096 32.9901 25.4949 33.0884C25.5802 33.1866 25.645 33.3005 25.6855 33.4235C25.726 33.5466 25.7415 33.6763 25.7311 33.8053V33.8053Z" fill="#FBFBFB"/>
<path d="M27.3749 37.5047C27.1646 37.5047 27.1073 37.3537 27.0117 37.2405L26.4955 36.863C26.3831 36.8203 26.2844 36.7485 26.2099 36.6551C26.1354 36.5617 26.0877 36.4501 26.0721 36.3322C26.0564 36.2143 26.0733 36.0944 26.1209 35.9852C26.1685 35.876 26.2451 35.7815 26.3426 35.7116C26.3863 35.678 26.4401 35.6597 26.4955 35.6597C26.5509 35.6597 26.6048 35.678 26.6485 35.7116C26.9823 35.8978 27.2551 36.1746 27.4347 36.5091C27.6143 36.8436 27.693 37.2218 27.6617 37.5991C27.6617 37.5991 27.4514 37.4481 27.3749 37.5047Z" fill="#EFC6A3"/>
<path d="M23.5324 35.3719C23.5324 35.5984 23.5324 35.806 23.2074 35.8249C23.1088 35.8043 23.0204 35.7508 22.957 35.6735C22.8935 35.5962 22.8589 35.4997 22.8589 35.4002C22.8589 35.3007 22.8935 35.2043 22.957 35.1269C23.0204 35.0496 23.1088 34.9962 23.2074 34.9756C23.4177 34.9567 23.5133 35.1266 23.5324 35.3719Z" fill="#F4F4F4"/>
<path d="M26.9545 37.1462C27.0336 37.1538 27.1092 37.1823 27.1731 37.2289C27.2371 37.2754 27.2871 37.3382 27.3178 37.4105C27.0501 37.6559 26.9737 37.4105 26.8398 37.2595L26.9545 37.1462Z" fill="#47372B"/>
<path d="M35.3086 32.9748C35.3086 32.4463 35.4998 32.0122 36.0542 32.0122C36.6086 32.0122 36.8189 32.4652 36.8189 32.956C36.8189 33.4467 36.666 33.8242 36.1115 33.8431C35.5571 33.8619 35.3659 33.4467 35.3086 32.9748Z" fill="#FCFCFC"/>
<path d="M34.6206 34.0129C34.6684 34.0176 34.7148 34.0317 34.7571 34.0542C34.7994 34.0767 34.8367 34.1073 34.8669 34.1442C34.8972 34.181 34.9197 34.2234 34.9332 34.2689C34.9467 34.3145 34.9509 34.3622 34.9456 34.4093C34.9456 34.5981 34.85 34.7868 34.6206 34.7679C34.5737 34.7657 34.5277 34.7539 34.4855 34.7334C34.4433 34.7128 34.4058 34.684 34.3754 34.6486C34.3449 34.6133 34.3221 34.5721 34.3084 34.5277C34.2947 34.4833 34.2904 34.4366 34.2956 34.3904C34.2904 34.3443 34.2947 34.2976 34.3084 34.2532C34.3221 34.2088 34.3449 34.1676 34.3754 34.1322C34.4058 34.0969 34.4433 34.068 34.4855 34.0475C34.5277 34.027 34.5737 34.0152 34.6206 34.0129V34.0129Z" fill="#EFF0F0"/>
<path d="M21.6207 41.7705C21.6301 41.8525 21.6213 41.9355 21.5949 42.0137C21.5685 42.0919 21.5251 42.1635 21.4677 42.2235C21.2766 42.2235 21.1236 42.2235 21.1427 41.997C21.1618 41.7705 21.4295 41.7705 21.6207 41.7705Z" fill="#1A130F"/>
<path d="M31.925 41.8459C31.0798 42.0158 30.2085 42.0158 29.3633 41.8459H31.925Z" fill="#313030"/>
</g>
</g>
<defs>
<radialGradient id="paint0_radial_140_1037" cx="0" cy="0" r="1" gradientUnits="userSpaceOnUse" gradientTransform="translate(26.5 25.5102) rotate(90) scale(28.0612)">
<stop offset="0.519837" stop-color="#FFE7A2"/>
<stop offset="0.944494" stop-color="#FD7C0F"/>
</radialGradient>
<clipPath id="clip0_140_1037">
<rect width="50" height="50" fill="white"/>
</clipPath>
<clipPath id="clip1_140_1037">
<rect width="39" height="51" fill="white" transform="translate(3 -1)"/>
</clipPath>
</defs>
</svg>
