<svg id="tyqoon-mall" xmlns="http://www.w3.org/2000/svg" xmlns:xlink="http://www.w3.org/1999/xlink" viewBox="0 0 690.72 428.4">
  <defs>
    <radialGradient id="mall-radgrad" cx="227.48" cy="172.54" r="31.38" gradientUnits="userSpaceOnUse">
      <stop offset="0" stop-color="#fff"/>
      <stop offset="0.09" stop-color="#fff9f4"/>
      <stop offset="0.25" stop-color="#ffe8d5"/>
      <stop offset="0.45" stop-color="#ffcda4"/>
      <stop offset="0.71" stop-color="#ffa860"/>
      <stop offset="0.99" stop-color="#ff790a"/>
      <stop offset="1" stop-color="#ff7707"/>
    </radialGradient>
    <filter id="mall-dropshad" x="-20%" y="-20%" width="140%" height="140%" filterUnits="objectBoundingBox" primitiveUnits="userSpaceOnUse" color-interpolation-filters="linearRGB">
      <feDropShadow stdDeviation="5 5" in="SourceGraphic" dx="0" dy="6" flood-color="#000000" flood-opacity="0.4" x="0%" y="0%" width="100%" height="100%" result="dropShadow"/>
    </filter>
    <mask id="mall-mask" x="381.66" y="148.42" width="72.35" height="46.56" maskUnits="userSpaceOnUse">
      <rect x="403.63" y="148.42" width="29.45" height="46.56" fill="#fff"/>
    </mask>
  </defs>
  <image width="512" height="333" transform="translate(51.7 14.35) scale(1.15)" xlink:href="/assets/images/game-board-parts/tyqoon-mall.png"/>
  <g>
    <rect x="196.1" y="141.16" width="62.76" height="62.76" rx="13.09" fill="url(#mall-radgrad)"/>
    <path d="M244.93,184.65s0-2.24-.26-4.92v0c0-.44-.08-.9-.13-1.36h0c-.14-1.21-.32-2.45-.56-3.56h0a8.84,8.84,0,0,0-1.28-3.41c0-.06-.1-.12-.15-.18l-.18-.17-.21.13h0l0,0h0l-.13.08c-.32.19-.66.38-1,.57l-.22.12-.22.11-.23.12-.12.05-.24.12-.12,0-.22.1-.28.13-.2.08-.16.07-.19.08-.2.08-.14.06-.61.24-.22.08-.29.1-.22.08-.23.08-.18.06-.13,0-.14,0-.14,0-.13,0-.19.06-.38.12-.19.06h-.05l-.34.1c-.4.12-.81.23-1.24.34l-.15,0-.15,0c-.58.15-1.19.29-1.82.43l-.18,0-.21.05-.33.07h0l-.31.06-.33.07-.43.09-.42.08-.87.17-.39.07-.46.08-.34.06-.41.07-.4.07-.09,0-.32.05-.41.06-.4.07-.36.05-.11,0-.36.05h-.08l-.42.06-.34.05h-.08l-.42.06-.29,0-.37.05h-.06l-.24,0-.18,0-1.44.16-.43,0-.49.05-.22,0-.38,0-.51.05h0l-.53.05-.49,0h0l-.46,0h-.11l-.12.38,0,.1c0,.05,0,.1,0,.15a.14.14,0,0,0,0,.06.74.74,0,0,0,0,.14.83.83,0,0,0,0,.15s0,.08,0,.12a9.1,9.1,0,0,0-.27,1.59c-.08.93-.08,1.87-.17,2.8,0,0,0,0,0,.05v.05a0,0,0,0,1,0,0v0l0,0h0c0,.22,0,.44,0,.66s0,.68,0,1c0,.17,0,.34,0,.51s0,.58,0,.87a2.26,2.26,0,0,1,0,.26c0,.09,0,.17,0,.26v.18l0,.72a1.34,1.34,0,0,0,0,.2,1.48,1.48,0,0,0,0,.21v.21a.22.22,0,0,1,0,.08c0,.5.05,1,.08,1.5h0c.13,1.31.24,2.19.24,2.19l-.17.18-.06.06a3.23,3.23,0,0,1-.45.4h0l-.22.19-.32.27,0,0,0,0s0,0-.05.05l-.19.15h0l0,0h0c.13.37.27.75.43,1.12l0,.1.25.58a.89.89,0,0,1,.08.17.2.2,0,0,1,0,.08l.09.18h0l0,0,.24.47a12.41,12.41,0,0,0,2.77,3.62l.17.14.41.33a13.18,13.18,0,0,0,3,1.68l.77.29a5,5,0,0,1,1.82.53l.26.06h0l.26.05.13,0h0l.61.12h.08l.29.05h0l.28,0,.56.07.55.07.5,0,.32,0,.26,0h.27c.54,0,1.06,0,1.55,0h.48c.24,0,.47,0,.68,0h.39l.26,0h0l.16,0,.22,0c.48-.06.89-.12,1.21-.19a15.63,15.63,0,0,0,3-1.12l.44-.21.08,0,.25-.12.73-.39h0l.48-.28c3.42-2,7.2-5.25,7.67-9.55A7.28,7.28,0,0,0,244.93,184.65Zm-21,10a.14.14,0,0,0,0-.06l-.06-.2a.24.24,0,0,1,0-.08.83.83,0,0,1,0-.15s0,0,0-.07,0-.06,0-.09,0,0,0-.06l0-.16v-.09s0-.07,0-.11v-.23a.66.66,0,0,0,0-.14v0h0V193h0v-.17a.25.25,0,0,0,0-.08v-.08a.11.11,0,0,0,0,0c0-.05,0-.09,0-.13s0-.07,0-.1v0h0a.59.59,0,0,0,0-.13.17.17,0,0,0,0-.07l0-.13a.19.19,0,0,1,0-.08s0-.06,0-.09a1.29,1.29,0,0,1,0-.19.29.29,0,0,1,0-.09v0l0-.11h0a1,1,0,0,0,0-.17H224l.07,0h0l.14-.06.13,0,0,0,.12,0,.11,0,.31-.08.09,0h.09l.07,0h.05l.09.07h0l.15.09,0,0,.11.06h0l0,0,.08,0,.21.13.62.33.16.08.6.28.12,0h0l.41.17.58.22.11,0,.2.07.11,0,.12,0,.18.06.21.06.14,0,.11,0,.48.13.2,0,.68.14.13,0,.19,0,.3.05h.09l.11,0h.12l.3,0,.18,0h.29l.2,0h.22l.44,0h1l.43,0h.21l.21,0,.4,0,.2,0,.19,0h0l.19,0c.25,0,.49-.07.73-.12l.17,0,.2,0,.34-.09.12,0,.13,0,.07,0h0l.11,0h0l.15-.05.13,0,.26-.11.08,0,.1,0h0l.1-.05.1,0,.08,0,.22-.13.11-.07a.43.43,0,0,1,0,.11.5.5,0,0,1,0,.12.36.36,0,0,1,0,.1l0,.16h0s0,.06,0,.09v0s0,0,0,.08a.56.56,0,0,1,0,.12l0,.14-.05.17h0a3,3,0,0,1-.15.45l-.06.18-.06.15,0,.06a1.22,1.22,0,0,1-.07.17l0,.1c0,.07-.07.15-.11.23l-.09.16-.09.17,0,.05-.06.11,0,.05-.1.16a1.63,1.63,0,0,1-.11.17l-.07.11-.09.13-.08.1,0,0-.07.1-.09.1,0,0-.11.13h0l-.07.08,0,0-.09.1-.11.12a.57.57,0,0,0-.11.11l-.12.11-.09.09-.06,0h0l-.11.09-.17.15,0,0,0,0h0l-.07.05h0l-.06,0-.09.07-.1.07h0l-.12.09-.13.08-.09.06-.06,0-.07,0-.21.12-.09,0-.24.13,0,0-.23.11-.08,0-.07,0-.07,0-.23.1-.18.07-.12,0h0l-.05,0h0l-.08,0-.31.1-.15,0-.13,0-.07,0-.11,0-.08,0-.11,0-.16,0H233l-.25,0-.13,0-.17,0c-3.14.48-6.61-.72-8.11-3.43l-.09-.16-.05-.09,0-.07,0,0c0-.05,0-.11-.08-.17S224,194.83,223.93,194.69Z" fill="#f7c6a4"/>
    <path d="M208,176.75l-.1,0a.66.66,0,0,0,0,.28,6.86,6.86,0,0,1-3-1,7.36,7.36,0,0,1-3.2-5.7c2.92-1.74,8.14-1.8,8.14-1.8h0l.43,1c17.24,2.88,28.55-4.63,28.55-4.63l0-1.28a21.41,21.41,0,0,1,6.76-2.06s1.89,3.55,1,5.29a9.8,9.8,0,0,1-3,3.36c-.38.29-.79.57-1.25.86a30.31,30.31,0,0,1-8.63,3.49,97.56,97.56,0,0,1-16.86,2.63l0,0h0l-.15,0a.56.56,0,0,0,0-.12l-.77.19a50.12,50.12,0,0,1-6.39,0c-.56-.12-1.1-.3-1.65-.45Z" fill="#003f63"/>
    <path d="M242.59,203.92h-1.8a1,1,0,0,0,.07-.72.85.85,0,0,0-.14-.21h0a7,7,0,0,0-2.05-1.3l-.18-.08-.48-.21.25-.12.73-.39v0a3.37,3.37,0,0,1,.51.14,7.88,7.88,0,0,1,2.55,1.48S242.25,203.13,242.59,203.92Z" fill="#006b96"/>
    <path d="M240.79,203.92h-2.33c-.34-.94-.64-1.59-.79-1.91l-.12-.23-.06-.13.44-.21.08,0,.48.21h0l.18.08a7,7,0,0,1,2.05,1.3h0a.85.85,0,0,1,.14.21A1,1,0,0,1,240.79,203.92Z" fill="#003f63"/>
    <path d="M235.44,203.92h-3.07l0-.06h0l.38-.46c0-.07.11-.13.17-.2l.08-.08.62.19C234.11,203.45,234.75,203.66,235.44,203.92Z" fill="#fff"/>
    <path d="M226.06,203.06h0l0,.05c-.1.19-.24.47-.39.8h-4.43a3.79,3.79,0,0,1,1.2-1.77,1.1,1.1,0,0,1,.46-.18,1.56,1.56,0,0,1,.31,0c.6.21,1.21.38,1.82.53.37.17.69.36.94.5Z" fill="#006b96"/>
    <path d="M238.79,163.58l0,1.28s-11.31,7.51-28.55,4.63l-.43-1-1.2-2.87a78.35,78.35,0,0,1,15.62-6.39,60.47,60.47,0,0,1,14.42-2.64Z" fill="#e0b870"/>
    <path d="M238.45,143l.23,13.59a60.47,60.47,0,0,0-14.42,2.64,78.35,78.35,0,0,0-15.62,6.39L203.36,153a42.64,42.64,0,0,1,20.44-10c12.14-2,14.65,0,14.65,0Z" fill="#003f63"/>
    <path d="M238.46,203.92h-3c-.69-.26-1.33-.47-1.77-.61l-.62-.19V203l.22,0c.48-.06.89-.12,1.21-.19a15.63,15.63,0,0,0,3-1.12l.06.13.12.23C237.82,202.33,238.12,203,238.46,203.92Z" fill="#fff"/>
    <path d="M239.67,192.19a8.1,8.1,0,0,1-7.2,6.87c-3.14.48-6.61-.72-8.11-3.43a5.48,5.48,0,0,1-.45-4.38c.2-.09.39-.16.59-.23a6.38,6.38,0,0,1,.72-.19,15.94,15.94,0,0,0,8.34,2.56c2.7.06,4.7-.3,6.11-1.2Z" fill="#fff"/>
    <path d="M233.05,203.12l-.08.08c-.06.07-.12.13-.17.2l-.38.46h0l0,.06h-5.53c-.15-.3-.28-.54-.37-.73l-.08-.15-.12-.24h0l-.08.14,0,.08h0l-.17-.11c-.23-.13-.54-.3-.88-.46l.26.06h0l.26.05.13,0h0l.61.12h.08l.29.05h0l.28,0,.56.07.55.07.5,0,.32,0,.26,0h.27c.54,0,1.06,0,1.55,0h.48c.24,0,.47,0,.68,0h.39l.26,0h0l.16,0v.14Z" fill="#fff"/>
    <path d="M226.84,203.92h-1.12c.14-.32.28-.59.38-.79l0,0,0-.06h0l0-.08.08-.14h0l.12.24.08.15C226.56,203.38,226.69,203.62,226.84,203.92Z" fill="#003f63"/>
    <path d="M214.93,193.11a20.21,20.21,0,0,0,.95,2.27c-.08.23-.69,1.66-3.27,1.57-2.81-.09-4.49-3.7-3-6.39a2.72,2.72,0,0,1,1.22-1.19h0a20.39,20.39,0,0,0,2.34-.13,5.62,5.62,0,0,1,.61.18,1,1,0,0,1,.07.15c.07.16.13.31.19.47a28.46,28.46,0,0,0,.9,3.07Z" fill="#f7c6a4"/>
    <path d="M216.35,180.75a5,5,0,0,1,2.17-.73c6.78-1.18,13.64-2.61,19.72-5.83a10.54,10.54,0,0,0,4.13-3.36,42.86,42.86,0,0,1-10.55,4c-2.61.62-5.3.86-7.94,1.3-1.33.22-2.65.42-4,.6-.81.1-2.15,0-2.77.63s-.7,2.45-.78,3.4Z" fill="#e7a58d"/>
    <path d="M240.92,191a2.54,2.54,0,0,0-.74,1.23,14.88,14.88,0,0,0,3.9-1.59c.28-.16.61-.43.52-.75a.68.68,0,0,0-.3-.37c-.4-.3-1.61-1-2.11-.7-.24.14-.38.8-.51,1a6.29,6.29,0,0,1-.76,1.14Z" fill="#e7a58d"/>
    <path d="M222.21,193.51A12.22,12.22,0,0,0,224,196a7.21,7.21,0,0,1-.42-2.2,3.19,3.19,0,0,1,.3-1.52,1.84,1.84,0,0,1,1.16-1,2.69,2.69,0,0,1,1.74.34,5.65,5.65,0,0,0,1.68.68,1.09,1.09,0,0,0-.27-1.09,2.14,2.14,0,0,0-1-.58,4.74,4.74,0,0,0-3.48.4c-.8.43-2,1.56-1.5,2.49Z" fill="#e7a58d"/>
    <path d="M235.59,188.06c-.14.07-.3.15-.35.3s.19.44.42.54a3.16,3.16,0,0,0,2.11.27c.59-.17,1.82-1.23.8-1.7-.76-.35-2.28.3-3,.59Z" fill="#e7a58d"/>
    <path d="M211.28,191.58a1.76,1.76,0,0,0-1.51,1.42,2.6,2.6,0,0,0,.64,1.71,4.76,4.76,0,0,0,1.24,1.29,2,2,0,0,0,1.71.27,1.89,1.89,0,0,0,1.13-1.85,3.06,3.06,0,0,0-3.21-2.84Z" fill="#e7a58d"/>
    <path d="M204.55,152.32A1.3,1.3,0,0,0,204,154a62.29,62.29,0,0,0,4.9,11.28c3.05-1.72.88-.48,4.11-1.83l-4.46-11.94c3.91-3.62,10.58-7.34,22.53-9.29-3.67.91-10.21,1.35-13.83,2.48a27.32,27.32,0,0,0-3.83,1.28,34.85,34.85,0,0,0-4.39,2.72,46,46,0,0,0-4.52,3.6Z" fill="#fff"/>
    <path d="M208.65,166.11l4.44-2.36,2.23,6.74a5.57,5.57,0,0,1-5-1h0Z" fill="#fff"/>
    <path d="M226.34,203.92h-.57c.13-.3.26-.58.35-.78v0l0,0,0-.09.07-.15h0l.1.28,0,.08v0l.1.31,0,.13Z" fill="#e0b870"/>
    <g style="mix-blend-mode: screen">
      <g clip-path="url(#clip-path)">
        <path d="M225.38,159.16s.6-.56,5.33-1.48a65.44,65.44,0,0,1,8.06-1.12l-.14,8.16a24.84,24.84,0,0,1-3.43,2c-1.25.51-2,.88-2,.88l-.88-9.18s-4.82.51-19,5.33c-3.55,1.21-4,1.44-4,1.44a156.13,156.13,0,0,1,16.13-6.07" fill="#e0b870"/>
      </g>
    </g>
    <path d="M240.72,203.92H240a1.18,1.18,0,0,0,.09-.58c-.09-.49-1.47-1.2-2.07-1.48l-.2-.1-.06,0,0,0,.19-.11.16-.09.35.1.21.07c.69.24,1.79.7,2.05,1.3h0v0A1.39,1.39,0,0,1,240.72,203.92Z" fill="#e0b870"/>
    <path d="M242.48,171.26l1.39-1a3.44,3.44,0,0,1,1.76,3.48c-.42,2.32-.65,4.82-.65,4.82s-1.07-5.15-2.5-7.32Z" fill="#fff"/>
    <path d="M225.19,143s11.91-.3,12.58-.14.56.42.56.42l.44,13.32s-3.57.31-6.7.79l-1.32-13.48s-.9-.91-5.56-.91Z" fill="#006b96"/>
    <path d="M244.66,162.22A3.67,3.67,0,0,1,244,165c-1,1.49-9.87,5.7-9.87,5.7a12.91,12.91,0,0,0,3.7-.83,31.53,31.53,0,0,0,3.62-1.76l.46,2.82s5-3.15,5.15-5-1.58-4.22-2.41-3.66Z" fill="#006b96"/>
    <path d="M222.65,203.92h-1.42a6.52,6.52,0,0,1,.55-.82c.29-.4.54-.62.9-.57a1.19,1.19,0,0,1,.45.15A11.27,11.27,0,0,0,222.65,203.92Z" fill="#0285ad"/>
    <path d="M236.43,199.1a10.15,10.15,0,0,1-6.2,2.47,1.51,1.51,0,0,0,1.26.65,6.57,6.57,0,0,0,6.29-3.21,2.07,2.07,0,0,0,.34-1.38.39.39,0,0,0-.15-.27c-.28-.19-.54.62-.66.78a5.73,5.73,0,0,1-.88,1Z" fill="#e7a58d"/>
    <g style="mix-blend-mode: screen">
      <g clip-path="url(#clip-path-2)">
        <path d="M242.83,185.27c.37-.06.7.25.93.54a8.55,8.55,0,0,1,.71,8.33A17.24,17.24,0,0,1,239,200.8a12.6,12.6,0,0,0,2.06-1.15,16.07,16.07,0,0,0,4.28-3.48,9.78,9.78,0,0,0,1.46-8.52,4.63,4.63,0,0,0-1.53-2.59,1.74,1.74,0,0,1-.52-.49,1.24,1.24,0,0,1,0-.74c.55-4.18-.55-8.75-2-12.66-.53-1.42-1,1-1,1.52a9.19,9.19,0,0,0,.56,2.52c.27,1,.52,2.08.7,3.14a22.52,22.52,0,0,1,.33,3.47c0,.36,0,3.39-.38,3.45" fill="#f7c6a4"/>
      </g>
    </g>
    <path d="M214.07,163.75s3.71-1.49,7.41-2.51l1.62,8.53s-3.93.94-5.74.29l-2-5.62.55,5.1Z"/>
    <path d="M239.09,164.37a33,33,0,0,1,4.61-.5c.86.12-.22,1.45-3.93,3.68a36.63,36.63,0,0,1-6.48,3.15,39.4,39.4,0,0,0,4.48-2.66,20.7,20.7,0,0,0,2.25-1.91,35,35,0,0,1-4.29,2.59,19.26,19.26,0,0,1-3.87,1.33,33.41,33.41,0,0,0,4.76-2.44,7.56,7.56,0,0,0,2.63-2.52Z"/>
    <path d="M213.61,162.71a58.87,58.87,0,0,1,7.21-2.88q-1-5.12-1.91-10.24a2.41,2.41,0,0,1,0-1.1,2.29,2.29,0,0,1,.78-1.07,15.65,15.65,0,0,1,5.65-3.21,5.65,5.65,0,0,0-1.9.39,49.29,49.29,0,0,0-9.29,4.46l-2.18,1.33c-.41.26-1.6.73-1.64,1.26a4.74,4.74,0,0,0,.35,1.3c.12.45.24.89.37,1.34.24.87.49,1.74.74,2.61.15.49,1.88,5.79,1.86,5.81Z"/>
    <path d="M210.14,189a.75.75,0,0,0,.28.33.77.77,0,0,0,.4.07,19.53,19.53,0,0,0,2.42-.14.61.61,0,0,1,.38,0,.63.63,0,0,1,.22.31,18.34,18.34,0,0,1,1.09,3.54c.44-.36.88-.73,1.3-1.11a.55.55,0,0,0,.19-.24.61.61,0,0,0,0-.3c-.28-2.65-.33-5.31-.38-8,0-1.06,0-2.13.06-3.2a15.18,15.18,0,0,1,.66-3.27,15.34,15.34,0,0,1-7,.22c-.66-.13-1.29-.34-1.94-.52,0,.12,0,.27,0,.4s0,.44-.07.65c0,.42-.06.85-.08,1.27a19.63,19.63,0,0,0,1.25,7.4,18.06,18.06,0,0,0,1.16,2.53Z"/>
    <path d="M225.21,186.85c.4-.07.79-.14,1.19-.18A16,16,0,0,1,228,187c.3,0,.28-.07.42-.26a3.29,3.29,0,0,0,.68-2.15,3,3,0,1,0-5.91.21,3.33,3.33,0,0,0,.7,1.93,2.57,2.57,0,0,0,1.3.13Z"/>
    <path d="M221.69,177.3c-.58,1.36,0,2.14.46,2,1-.37,1.74-1.67,3.64-2.41,1.19-.46,2.2.3,2.67-.51s-.72-2.61-3-2.5c-1.62.09-3,1.55-3.82,3.45Z"/>
    <path d="M242.37,173.17c.85,1.12.89,2.65.51,2.6-.88-.1-.68-1.58-3.57-1.34-1.08.09-1.64.83-2.25.18s-.07-2.57,1.72-3c1.3-.32,2.39,0,3.59,1.57Z"/>
    <path d="M240.5,185.38a4.07,4.07,0,0,1,1.48-1.09,3.09,3.09,0,0,0,.18-1,2.53,2.53,0,0,0-2.11-2.83,2.83,2.83,0,0,0-.17,5.51h.2a3.38,3.38,0,0,1,.42-.62Z"/>
    <path d="M225.65,191.18s-.44.51.07,2.25,3.13,2.46,3.13,2.46A6.26,6.26,0,0,1,226,195a6.83,6.83,0,0,1-1.79-2.41c-.11-.09-.56.67-.56.67s0-1.69.4-2.09,1.62-.44,1.64,0Z"/>
    <path d="M237.89,193a11.22,11.22,0,0,1-1.39,2.6,2.63,2.63,0,0,1-1.07.32s.77,0,1.3,0c.74,0,.46.88.37,1.18a9.8,9.8,0,0,0,2.11-3.2c.58-1.5.51-1.6.51-1.6Z"/>
    <path d="M203.92,170.79s1.46-1.32,6.09-1.69a1.39,1.39,0,0,0,.35.6,77.2,77.2,0,0,0,11.66.4,27.21,27.21,0,0,0,3.43-.51s-3.5,1.36-11.27,1.34a43.8,43.8,0,0,0,7.07.23,32.77,32.77,0,0,1-5.91.4,47.33,47.33,0,0,0,9.32,0s-1.6.58-8.53.83c0,0,1.88.42,7.79-.09a41.24,41.24,0,0,0,7.67-1.09,38.92,38.92,0,0,1-13.49,2c-8.3-.07-11-.18-14.18-2.41Z"/>
    <polygon points="235.66 203.92 232.37 203.92 232.41 203.86 232.42 203.86 232.42 203.86 232.75 203.4 233.02 203.03 233.04 203.03 233.8 203.29 235.66 203.92"/>
    <path d="M216.75,177.14h0l-.1,0a4.54,4.54,0,0,0-1.18.44c-.33.17-.65.37-1,.55A22.42,22.42,0,0,0,211.8,180a11,11,0,0,0-2.56,2.8,17.69,17.69,0,0,1-.22-5.2h0c0-.14,0-.28.06-.42a2.57,2.57,0,0,0-.78-.15h0a.28.28,0,0,0-.18,0,.36.36,0,0,0-.08.15,2.5,2.5,0,0,0-.07.26c-.05.16-.09.33-.13.5h0a12.13,12.13,0,0,0-.27,1.58,4.74,4.74,0,0,0,.19,1.91c0,.12.09.27.14.45h0a66.79,66.79,0,0,0,2.71,7.13l.15.25a.44.44,0,0,0,.1.12.35.35,0,0,1-.06-.14,1.84,1.84,0,0,1,0-.29h0a10.31,10.31,0,0,0-.61-2.81c1.8-.93,3.73-2.42,5.64-3.15h0l.15-.06a.26.26,0,0,0,.13-.06l0,0,0,0v0a0,0,0,0,0,0,0v-.05s0,0,0-.05c.09-.93.09-1.87.17-2.8a9.1,9.1,0,0,1,.27-1.59s0-.08,0-.12a.83.83,0,0,1,0-.15.74.74,0,0,1,0-.14.14.14,0,0,1,0-.06c0-.05,0-.1,0-.15l0-.1.12-.38,0,0h0Zm-3.07,3.64a12.44,12.44,0,0,0-4,3.8,12.45,12.45,0,0,1-.32-1.48A7.66,7.66,0,0,1,213.68,180.78Zm2.13.86a16.71,16.71,0,0,0-3.07,1.76,10.55,10.55,0,0,0-2.7,2.45c-.15-.46-.21-.62-.33-1.06a20.69,20.69,0,0,1,3.72-2.43,11.55,11.55,0,0,1,2.38-.75l.12,0Z" fill="#fff"/>
    <path d="M220.25,188.1c.1-.08.18-.18.28-.26a3.5,3.5,0,0,1,.3-.24,5.38,5.38,0,0,1,.66-.38,8.23,8.23,0,0,1,1.43-.54l.18-.05.19,0,.37-.08c.25,0,.51-.09.76-.11l.38,0h.77l.38,0a7.87,7.87,0,0,1,1.52.23,6,6,0,0,1,1.42.57,11.11,11.11,0,0,1,1.26.85l.29.22.3.22.3.23.29.23-.33-.16-.33-.18-.64-.4a11.59,11.59,0,0,0-1.28-.72,5.77,5.77,0,0,0-1.38-.42,8.79,8.79,0,0,0-1.45-.14h-1.09l-.36,0c-.24,0-.48.05-.72.07l-.36.06-.18,0-.18,0a8.31,8.31,0,0,0-1.4.4l-.69.26-.34.14-.18.07-.17.09Z"/>
    <path d="M235,188.28a.48.48,0,0,1,.16-.35,2,2,0,0,1,.24-.27,5.17,5.17,0,0,1,.55-.5c.21-.14.42-.27.64-.39l.17-.07.17-.07.18-.07.18-.05a2.74,2.74,0,0,1,.76-.12,1.68,1.68,0,0,1,.78.18,1.09,1.09,0,0,1,.33.27,1,1,0,0,1,.19.38,1.08,1.08,0,0,1,0,.4,1.46,1.46,0,0,1,0,.2.2.2,0,0,1,0,.08.22.22,0,0,1-.09.07l-.06,0a.2.2,0,0,1,0-.1.11.11,0,0,1,0-.08s0-.11,0-.16a.61.61,0,0,0-.05-.3.63.63,0,0,0-.16-.24,1,1,0,0,0-.24-.15,1.53,1.53,0,0,0-.61-.08,2.88,2.88,0,0,0-.64.12l-.16.05-.16.06-.16.06-.16.07a4.92,4.92,0,0,0-.61.3,5.12,5.12,0,0,0-.56.39,1.94,1.94,0,0,0-.26.23c-.09.07-.15.17-.3.2Z"/>
    <path d="M212.83,197.38h-.24a3.92,3.92,0,0,1-3.29-2.11,5,5,0,0,1-.1-4.91,3.12,3.12,0,0,1,3-1.68,5.17,5.17,0,0,1,1.82.4l-.34.78c-.11-.05-2.67-1.13-3.76.9a4.22,4.22,0,0,0,.09,4.09,3.12,3.12,0,0,0,2.58,1.68c2.4.08,2.84-1.24,2.86-1.3l.82.24C216.28,195.55,215.73,197.38,212.83,197.38Z"/>
    <path d="M210.1,192.67a.29.29,0,0,1,.08-.21l.07-.08.09-.07a2.22,2.22,0,0,1,.37-.21,2.58,2.58,0,0,1,.82-.19H212l.42.08a4,4,0,0,1,.76.34,4.54,4.54,0,0,1,.67.48,4.07,4.07,0,0,1,.55.62,2.82,2.82,0,0,1,.38.73,1.82,1.82,0,0,1,.11.4,1.49,1.49,0,0,1,0,.21.22.22,0,0,1-.06.2h-.07a.26.26,0,0,1-.09-.18.84.84,0,0,0,0-.17,2,2,0,0,0-.13-.34,2.85,2.85,0,0,0-.43-.6,3.64,3.64,0,0,0-.53-.51,4.14,4.14,0,0,0-.61-.42,3.27,3.27,0,0,0-.66-.3,2.14,2.14,0,0,0-.34-.09l-.09,0h-.09l-.18,0a2.12,2.12,0,0,0-.71.07,1.22,1.22,0,0,0-.33.14l-.08.05-.07,0a.75.75,0,0,1-.18.07Z"/>
    <path d="M212.6,192.37l0,0,0,0a.3.3,0,0,0,0,.1,1.18,1.18,0,0,0-.07.2,2,2,0,0,0,0,1.26,1.59,1.59,0,0,0,.18.4,1.88,1.88,0,0,0,.12.18l.07.09,0,0,0,0a3,3,0,0,0,.73.55,3,3,0,0,1-.82-.45l-.05,0,0,0-.09-.08-.16-.18a1.88,1.88,0,0,1-.27-.42,2.15,2.15,0,0,1-.22-1,4.07,4.07,0,0,1,0-.5c0-.09,0-.17.05-.25s0-.08,0-.13l0-.06a.64.64,0,0,0,0-.07Z"/>
    <path d="M213.36,186.06c.31,1.14.56,2.28.84,3.41a27.8,27.8,0,0,0,1.71,4.92,14.56,14.56,0,0,0,2.82,4.23c2.46,2.39,6,3.46,9.28,3.89a23.65,23.65,0,0,0,3.47.16,13.81,13.81,0,0,0,3.39-.42c4.85-1.58,11.25-5.74,11.85-11.23a7,7,0,0,0-2.07-6l0,0-.18-.15v-.23c-.05-2.34-.19-4.69-.47-7a27.61,27.61,0,0,0-.6-3.43,8.56,8.56,0,0,0-.88-2.34,2,2,0,0,0-.46-.53l.53-.75c2.43,1.72,2.78,11,2.87,14l-.19-.38a7.32,7.32,0,0,1,2,3.18,8.65,8.65,0,0,1,.34,3.68c-.67,5.82-7.35,10.23-12.51,11.9a16.05,16.05,0,0,1-3.59.46c-5.28.13-11.45-.91-14.68-5.54a20.9,20.9,0,0,1-3.18-8.34,13.62,13.62,0,0,1-.28-3.54Z"/>
    <path d="M228.25,183.64a1.06,1.06,0,1,1-2.08.07,1.06,1.06,0,1,1,2.08-.07Z" fill="#fff"/>
    <path d="M225.64,185.61a.45.45,0,1,1-.45-.52.49.49,0,0,1,.45.52Z" fill="#fff"/>
    <path d="M221.69,193.12l.11-.2.12-.19.12-.19.14-.18.14-.18.16-.17.17-.16.17-.15a5.1,5.1,0,0,1,1.61-.9,7.06,7.06,0,0,1,.91-.21,4.7,4.7,0,0,1,.92,0l.23,0,.23,0,.22,0,.22.06.22.06.22.08.21.08.21.08-.22,0-.22,0-.44,0h-.88a6.32,6.32,0,0,0-.86.11,5.8,5.8,0,0,0-.82.21A6.9,6.9,0,0,0,223,192l-.18.12-.18.13-.17.14-.17.13-.17.15-.16.15-.16.15Z"/>
    <path d="M232.3,201.51l.24-.07.25-.07.47-.18.46-.2.45-.22.44-.24.43-.26.41-.28.4-.29.39-.32.36-.33.36-.36.34-.36.32-.39.3-.4.28-.42.25-.45-.18.48c-.07.16-.14.31-.22.47s-.16.3-.25.45l-.28.43-.31.42-.35.38-.37.37-.4.33-.42.31c-.14.1-.29.19-.44.28l-.46.24a4,4,0,0,1-.47.21l-.49.18-.5.13-.5.09-.26,0Z"/>
    <path d="M210.23,189.55a19.75,19.75,0,0,1-2.75-8.82,18,18,0,0,1,.14-4.13l.72.13a17.79,17.79,0,0,0-.12,4,18.77,18.77,0,0,0,2.64,8.47Z"/>
    <path d="M209.83,168.91a25.41,25.41,0,0,0-4.08.5,12,12,0,0,0-3.77,1.35l.26-.45a2.23,2.23,0,0,0,0,.36,7.25,7.25,0,0,0,3.16,5.13c3.49,1.91,13.23.94,17.35.42,6.55-.94,14.63-2.21,20.07-6.09a9.78,9.78,0,0,0,3.23-3.6c.48-1.23-.55-3.54-1.16-4.67l.69.39h-.09a19.46,19.46,0,0,0-4.19.84c-.55.16-1.15.37-1.7.57l-.83.33-.31-.67.82-.41a25.8,25.8,0,0,1,4.32-1.69,11.9,11.9,0,0,1,1.88-.42l.44-.05.25.43c.72,1.53,1.71,4.14,1,5.79a12.75,12.75,0,0,1-5.34,4.92c-4.78,2.58-10.16,3.6-15.45,4.51a102.93,102.93,0,0,1-10.65,1.19,45.29,45.29,0,0,1-7.18-.08,10,10,0,0,1-3.6-.94,7.51,7.51,0,0,1-1-.72,8.27,8.27,0,0,1-2.84-5.07l0-.44V170l.26-.15a17.69,17.69,0,0,1,7.34-1.73c.36,0,.7,0,1.07,0v.87Z"/>
    <path d="M205.45,170c-.25.16-.5.31-.73.48a2.76,2.76,0,0,0-.61.51l0-.34s0,0,0,0a3.5,3.5,0,0,0,.94.67,9.07,9.07,0,0,0,1.21.5,29.3,29.3,0,0,0,8,1.14,48.66,48.66,0,0,0,21.15-3.47,28.89,28.89,0,0,0,8-4.82,4.59,4.59,0,0,0,.81-1l.21.39a14.7,14.7,0,0,0-2-.16h-.68c.66-.14,1.35-.26,2-.34a7.27,7.27,0,0,1,1.14,0l-.21.39a5.23,5.23,0,0,1-.92,1.11,29.36,29.36,0,0,1-8.2,4.93,49.09,49.09,0,0,1-21.38,3.51c-3-.12-7.51-.41-10-2.07a2.91,2.91,0,0,1-.49-.44.52.52,0,0,1-.08-.11l-.12-.18.16-.15a1.74,1.74,0,0,1,.45-.23c.42-.15.85-.26,1.28-.37Z"/>
    <path d="M214.92,193.09l-.1-.41.05.2-.05-.2a3.41,3.41,0,0,0,1.46-1,68.94,68.94,0,0,1-.51-9.27c.15-4.06.93-5.34,1-5.39l.36.23s-.74,1.26-.89,5.18a66.83,66.83,0,0,0,.52,9.29v.1l-.06.07A3.79,3.79,0,0,1,214.92,193.09Z"/>
    <path d="M225.35,190.6a14.83,14.83,0,0,0,6.7,2.54,17.36,17.36,0,0,0,4.83-.1,5.92,5.92,0,0,0,4-2.29,6.47,6.47,0,0,0,.92-2.16l.51.14a6.43,6.43,0,0,1-2,3.18c-1.64,1.34-3.85,1.58-5.89,1.62a17.63,17.63,0,0,1-6.07-.93,16.28,16.28,0,0,1-3.1-1.4L225,191Z"/>
    <path d="M241.37,188.64a1.8,1.8,0,0,1,1.85-.06,2.44,2.44,0,0,1,1.34,1.28,6,6,0,0,0-.75-.45,4.33,4.33,0,0,0-.78-.3,6.42,6.42,0,0,1-1.66-.47Z"/>
    <path d="M239.65,186.92a.78.78,0,0,0,0-.14c0-.05,0-.1,0-.14l0-.14.05-.13c0-.09.07-.17.11-.26l.13-.24a4,4,0,0,1,.71-.87,3.73,3.73,0,0,1,.43-.36l.24-.16.11-.07.13-.07a3.29,3.29,0,0,1,1.06-.34l-.22.17-.11.08-.1.09-.21.16-.2.17-.11.08-.09.09-.2.17c-.12.12-.26.23-.38.36l-.72.75-.18.19-.18.2-.09.1-.09.1-.09.1-.1.11Z"/>
    <path d="M241.57,182.62a.94.94,0,1,1-1.83.06.94.94,0,1,1,1.83-.06Z" fill="#fff"/>
    <path d="M239.32,184.39a.44.44,0,0,1-.38.48.42.42,0,0,1-.41-.45.43.43,0,0,1,.38-.48.43.43,0,0,1,.41.45Z" fill="#fff"/>
    <path d="M224.21,191.3a5.5,5.5,0,0,0-.15,2.9,6.18,6.18,0,0,0,3.9,4.15,9.07,9.07,0,0,0,8.54-1.18,7.47,7.47,0,0,0,2.54-3.59,7.84,7.84,0,0,0,.34-1.45l.59.1a8.75,8.75,0,0,1-1.07,3c-2.42,4.19-8.51,5.42-12.53,2.88a6.58,6.58,0,0,1-2.21-2.27,5.8,5.8,0,0,1-.53-4.66l.58.15Z"/>
    <path d="M245.17,179.79l-.84-.14c0-.05.83-4.93.83-6.45,0-1.12-1.22-2.32-1.69-2.69l.52-.67c.08.06,2,1.6,2,3.36C246,174.8,245.2,179.59,245.17,179.79Z"/>
    <path d="M239.24,164.85v-1.47h0v-.44l-.16-20v-.29l-.22-.18a3.37,3.37,0,0,0-.85-.42l-.16-.05-.15-.05-.16,0-.31-.08a27.17,27.17,0,0,0-8.15-.2c-1.55.14-3.22.36-4.74.61-1,.15-2,.35-2.95.57a43.19,43.19,0,0,0-14.66,6.7,36.59,36.59,0,0,0-3.78,3l-.31.31c2.19,5.09,4.41,10.17,6.61,15.21l.19.43.18.43.08.17h0v0c.11.23.21.47.31.7.38.07.77.14,1.15.19h0l.66.09c.45,0,1.18.12,1.62.15.62.05,1.23.08,1.85.11,1.39.06,2.79.07,4.18,0s3.07-.2,4.59-.4h0a47.84,47.84,0,0,0,6.36-1.31,44.16,44.16,0,0,0,5.26-1.82,30.85,30.85,0,0,0,3.37-1.64l.2-.13Zm-35.13-11.69a34.76,34.76,0,0,1,3.32-2.59,41.85,41.85,0,0,1,14.23-6.52l1.13-.25,1.15-.21,1.78-.27h0l1.93-.26,1.92-.2h0a40.24,40.24,0,0,1,4.24-.15l1.15.07h0a11.54,11.54,0,0,1,2.35.39,4.84,4.84,0,0,1,.49.18h0l.34,13.08v.31l.2,7.89h0c-.3.2-.64.4-.94.58a35.23,35.23,0,0,1-8.92,3.47,41.47,41.47,0,0,1-10.91,1.17h0c-.3,0-1.09,0-1.37-.05l-1.17-.08h-.2c-.29,0-1.1-.12-1.37-.14-1.66-.17-3-.42-3-.42-.44-1.12-.89-2.23-1.33-3.34l-.12-.3-.06-.14-.06-.15h0l-.39-1h0c-1.49-3.72-3-7.41-4.46-11.1Z"/>
    <path d="M238.77,156.62a11,11,0,0,1-2,.29l-.49.06-.49.07-1,.13c-1.31.2-2.61.44-3.9.71l-1,.2-1,.23-.48.11-.48.12-.95.25c-.64.18-1.27.34-1.9.53l-1,.29-.94.3-.94.3-.94.32-.47.15-.47.16-.94.33-.46.16-.47.17-.93.33-.93.35c-.31.12-.62.23-.92.36l-.92.36-.92.37-.91.38-.46.2-.45.2-.46.2-.45.21-.44.2-.45.22-.44.22-.45.22a4.12,4.12,0,0,1-.92.37l-.06-.09a3.62,3.62,0,0,1,.81-.6l.44-.24.44-.24.44-.23.44-.23.45-.22.44-.22.45-.22.45-.22.91-.42.9-.41.92-.4.92-.38.92-.38.93-.36.47-.18.46-.17.94-.34.47-.17.47-.16.95-.32.94-.31.95-.3,1-.29c.64-.19,1.29-.36,1.93-.53l1-.23.49-.11.49-.1,1-.21,1-.18c1.31-.22,2.63-.41,3.95-.56l1-.1.5,0,.5,0a7.45,7.45,0,0,1,2,0Z"/>
    <path d="M226.44,203.21h0l-.09,0h0l-.13,0-.06,0h0l-.07,0-.14,0a16.15,16.15,0,0,0-1.75-.56,3,3,0,0,0-1.11-.11h0a.78.78,0,0,0-.33.16,3.29,3.29,0,0,0-.82,1.22l-.06.17h-1c.07-.18.14-.37.22-.54a4.35,4.35,0,0,1,1-1.4,2.09,2.09,0,0,1,.29-.23,1,1,0,0,1,.23-.12,2.11,2.11,0,0,1,1.32,0h0a4.26,4.26,0,0,1,.47.15h0a6,6,0,0,1,1.49.87h0l.25.2.08.08.08.07h0l.15.15,0,0,0,0Z"/>
    <path d="M243.06,203.92h-.93c-.22-.52-.37-.94-.44-1.13a7.1,7.1,0,0,0-2.7-1.44h-.07l.08-.42v0l.07-.38a3.12,3.12,0,0,1,.41.1l.5.18a8.55,8.55,0,0,1,2.35,1.43l.09.08,0,.12A13.9,13.9,0,0,0,243.06,203.92Z"/>
    <path d="M226.72,203.23l.37.69h-.49c0-.1-.1-.19-.14-.28s-.14-.27-.19-.37a.34.34,0,0,1-.06-.12l0,0,0-.07h0v0l-.06-.13h0l.16-.08.17-.08h0v0Z"/>
    <path d="M238.69,203.92h-.46a16.49,16.49,0,0,0-.76-1.82l-.11-.22.19-.1.19-.1,0,0,0,0,.08.16A21.21,21.21,0,0,1,238.69,203.92Z"/>
    <path d="M226.46,202.9l-.07.14,0,0,0,0,0,.06a.47.47,0,0,0,0,.1c-.11.2-.21.42-.32.65h-.47l.4-.83,0-.06,0-.05,0-.07.06-.11.05-.1.19.1Z"/>
    <path d="M241,203.92h-.46a.8.8,0,0,0,.1-.63,6,6,0,0,0-2.42-1.56l-.29-.12-.08,0,.06-.14.1-.26.23.1.47.2h0c.82.38,2.07,1,2.32,1.64A1,1,0,0,1,241,203.92Z"/>
    <path d="M236.05,203.92h-1.23c-.77-.27-1.4-.47-1.68-.55h0l-.46.55h-.54l.4-.5c.12-.15.25-.29.37-.42l0,0,.09-.09.13,0,.14.05c.18,0,.49.14.89.28S235.34,203.64,236.05,203.92Z"/>
    <path d="M229.08,185.22A3,3,0,0,0,228,185a3,3,0,0,0-2.52,1.33h0a3.4,3.4,0,0,0-.26.5l0,.05a2,2,0,0,0-.1.35,2.35,2.35,0,0,0-.07.6,1.41,1.41,0,0,0,0,.2,2.91,2.91,0,0,0,3,2.62,3,3,0,0,0,2.85-2l0-.12a2.44,2.44,0,0,0,.1-.71A2.82,2.82,0,0,0,229.08,185.22Zm-1.09,5a2.47,2.47,0,0,1-2.53-2.39,2.24,2.24,0,0,1,.21-1,.83.83,0,0,1,.07-.13,1.7,1.7,0,0,1,.26-.38,2.58,2.58,0,0,1,2-.92,2.74,2.74,0,0,1,1,.19,2.4,2.4,0,0,1,1.54,2.2,2.09,2.09,0,0,1,0,.43,1.36,1.36,0,0,1,0,.17A2.53,2.53,0,0,1,228,190.24Z"/>
    <path d="M224.94,188.06h-.17a.42.42,0,0,1,0-.84h.17a.42.42,0,0,1,0,.84Z"/>
    <path d="M215.27,196.77h-.06l-.05,0-.06,0,0,0s0,0,0,0l0-.06s0,0,0-.05v-.06a.31.31,0,0,1,.09-.22l0,0,.06,0,.05,0h.12l.06,0,.05,0,.05,0a.36.36,0,0,1,.09.22.31.31,0,0,1-.09.21l-.05,0-.05,0-.06,0Z"/>
    <path d="M218,199.75h0a.3.3,0,0,0-.3.26.31.31,0,0,0,.25.35h0a.32.32,0,0,0,.2-.08.29.29,0,0,0,.1-.18v0A.3.3,0,0,0,218,199.75Zm1.45,0a.31.31,0,0,0-.28-.18l-.1,0h0a.3.3,0,0,0-.15.4.3.3,0,0,0,.11.14.29.29,0,0,0,.16,0,.28.28,0,0,0,.13,0,.3.3,0,0,0,.18-.23v0A.28.28,0,0,0,219.44,199.78Zm-2.53-.37a.28.28,0,0,0-.15,0,.3.3,0,0,0-.26.16.31.31,0,0,0,.12.42.32.32,0,0,0,.14,0,.29.29,0,0,0,.16,0,.43.43,0,0,0,.11-.12.23.23,0,0,0,0-.14A.3.3,0,0,0,216.91,199.41Zm3.46-.46a.3.3,0,0,0-.21-.09.28.28,0,0,0-.22.1.29.29,0,0,0,0,.43.3.3,0,0,0,.21.08.31.31,0,0,0,.22-.09h0a.34.34,0,0,0,.08-.21A.31.31,0,0,0,220.37,199Zm-4.28-.27a.33.33,0,0,0-.25-.13.32.32,0,0,0-.18.06.3.3,0,0,0-.07.42.29.29,0,0,0,.25.13.34.34,0,0,0,.17,0,.3.3,0,0,0,.13-.25A.29.29,0,0,0,216.09,198.68Zm5-.75a.34.34,0,0,0-.17-.05.3.3,0,0,0-.25.14.3.3,0,0,0,.08.42.28.28,0,0,0,.17.05.33.33,0,0,0,.26-.13.37.37,0,0,0,.05-.17A.31.31,0,0,0,221.1,197.93Zm-5.45-.28h0a.31.31,0,0,0-.3-.24h-.06a.3.3,0,0,0-.24.36.34.34,0,0,0,.11.17.32.32,0,0,0,.19.07h.07a.31.31,0,0,0,.24-.3S215.65,197.67,215.65,197.65Zm6.06-.81a.32.32,0,0,0-.14,0,.29.29,0,0,0-.27.16.3.3,0,0,0,.13.41.33.33,0,0,0,.14,0,.27.27,0,0,0,.15,0,.28.28,0,0,0,.12-.12.32.32,0,0,0,0-.14A.3.3,0,0,0,221.71,196.84Zm.53-1.13a.28.28,0,0,0-.13,0,.3.3,0,0,0-.12.58.27.27,0,0,0,.12,0,.34.34,0,0,0,.17,0,.32.32,0,0,0,.14-.26A.3.3,0,0,0,222.24,195.71Zm.46-1.17-.11,0a.31.31,0,0,0-.28.2.31.31,0,0,0,.17.39.23.23,0,0,0,.11,0,.34.34,0,0,0,.17,0,.33.33,0,0,0,.12-.14.43.43,0,0,0,0-.11A.32.32,0,0,0,222.7,194.54Zm.42-1.18H223a.3.3,0,0,0-.28.2.3.3,0,0,0,.18.39l.1,0a.28.28,0,0,0,.18-.06.25.25,0,0,0,.11-.15.3.3,0,0,0,0-.1A.32.32,0,0,0,223.12,193.36Zm.57-1h0s0,0,0,0a.34.34,0,0,0-.18-.15h-.09a.3.3,0,0,0-.29.21.3.3,0,0,0,.2.38l.06,0h0a.28.28,0,0,0,.18-.06l.06-.05v0a.18.18,0,0,0,0-.09.29.29,0,0,0,0-.09A.27.27,0,0,0,223.69,192.34Zm.38-1.15,0-.05a.32.32,0,0,0-.12-.14l-.08,0h-.08a.29.29,0,0,0-.28.19v0a.13.13,0,0,0,0,.06.31.31,0,0,0,.08.24.47.47,0,0,0,.14.08h.15l.11-.05.06,0h0a.37.37,0,0,0,.05-.11.31.31,0,0,0,0-.08h0S224.07,191.21,224.07,191.19Zm.11-1.43h-.08a.3.3,0,0,0-.08.6h.08a.28.28,0,0,0,.18-.06.25.25,0,0,0,.11-.17.19.19,0,0,0,0-.08A.31.31,0,0,0,224.18,189.76Zm.53-.92a.31.31,0,0,0-.24-.3h-.07a.32.32,0,0,0-.3.24.31.31,0,0,0,.23.36h.07a.31.31,0,0,0,.3-.23h0S224.71,188.86,224.71,188.84Z"/>
    <path d="M224.68,187.87h-.06l-.06,0-.05,0a.08.08,0,0,1,0,0,.27.27,0,0,1-.09-.21v-.06s0,0,0-.06l0,0,0-.05a.31.31,0,0,1,.21-.09.36.36,0,0,1,.22.09l0,.05a.13.13,0,0,1,0,0,.14.14,0,0,1,0,.06s0,0,0,.06a.31.31,0,0,1-.31.3Z"/>
  </g>
  <g id="logo-group">
    <g id="letter-t">
      <path id="t-1" d="M268,157.54h25.77" fill="none" stroke="#ff7600" stroke-linecap="round" stroke-miterlimit="10" stroke-width="7.25"/>
      <path id="t-2" d="M280.85,157.54v30.12" fill="none" stroke="#ff7600" stroke-linecap="round" stroke-miterlimit="10" stroke-width="7.25"/>
    </g>
    <g id="letter-y">
      <path id="y-1" d="M303.68,157.54v3.62a15.06,15.06,0,1,0,30.12,0v-3.62" fill="none" stroke="#ff7600" stroke-linecap="round" stroke-miterlimit="10" stroke-width="7.25"/>
      <path id="y-2" d="M318.74,176.22v11.44" fill="none" stroke="#ff7600" stroke-linecap="round" stroke-miterlimit="10" stroke-width="7.25"/>
    </g>
    <g id="letter-q">
      <path id="q-1" d="M343,171.31a14,14,0,1,0,14-14A14,14,0,0,0,343,171.31Z" fill="none" stroke="#22282d" stroke-linecap="round" stroke-miterlimit="10" stroke-width="6.71"/>
      <path id="q-2" d="M366.52,181.69l5.9,6.21" fill="none" stroke="#22282d" stroke-linecap="round" stroke-miterlimit="10" stroke-width="6.71"/>
    </g>
    <path id="letter-n" d="M463.45,187.62V157.55l26.83,30.07V157.55" fill="none" stroke="#ff7600" stroke-linecap="round" stroke-linejoin="round" stroke-width="7.25"/>
    <path id="infinity-1" d="M417.83,172.55s-8.05,15.63-18.46,15.63c-7.61,0-14.76-5.4-14.76-15.59a15.18,15.18,0,0,1,14.76-15.69c6.69,0,12.12,3.37,18.46,15.65,0,0,8.05,15.63,18.46,15.63,7.61,0,14.76-5.4,14.76-15.59a15.18,15.18,0,0,0-14.76-15.69c-6.69,0-12.12,3.37-18.46,15.65" fill="none" stroke="#ff7600" stroke-linecap="round" stroke-miterlimit="10" stroke-width="5.9"/>
    <g mask="url(#mall-mask)">
      <path id="infinity-2" d="M417.83,172.55s-8.05,15.63-18.46,15.63c-7.61,0-14.76-5.4-14.76-15.59a15.18,15.18,0,0,1,14.76-15.69c6.69,0,12.12,3.37,18.46,15.65,0,0,8.05,15.63,18.46,15.63,7.61,0,14.76-5.4,14.76-15.59a15.18,15.18,0,0,0-14.76-15.69c-6.69,0-12.12,3.37-18.46,15.65" fill="none" stroke="#ff9b16" stroke-linecap="round" stroke-miterlimit="10" stroke-width="5.9"/>
    </g>
  </g>
  <g id="products-right">
    <path id="bubble-right" filter="url(#mall-dropshad)" d="M486.11,64.4c0-27.68,28.92-50.13,64.58-50.13s64.58,22.45,64.58,50.13-28.91,50.12-64.58,50.12a81.29,81.29,0,0,1-21.23-2.78l.06,0-30.24,9.67,4.23-22.82.06,0C492.75,89.69,486.11,77.65,486.11,64.4Z" fill="#fff"/>
    <image id="product-2" width="117" height="147" transform="translate(517.34 21.39) scale(0.58)" xlink:href="/assets/images/game-board-parts/product-2.png"/>
    <image id="product-4" width="87" height="148" transform="translate(527.67 23.28) scale(0.55)" xlink:href="/assets/images/game-board-parts/product-4.png"/>
    <image id="product-6" width="150" height="150" transform="translate(511 23.28) scale(0.53)" xlink:href="/assets/images/game-board-parts/product-6.png"/>
  </g>
  <g id="products-left">
    <path id="bubble-left" filter="url(#mall-dropshad)" d="M195.6,64.4c0-27.68-28.91-50.13-64.58-50.13S66.44,36.72,66.44,64.4,95.35,114.52,131,114.52a81.29,81.29,0,0,0,21.23-2.78l-.05,0,30.24,9.67L178.2,98.62l0,0C189,89.69,195.6,77.65,195.6,64.4Z" fill="#fff"/>
    <image id="product-1" width="91" height="145" transform="translate(108.28 23.22) scale(0.55)" xlink:href="/assets/images/game-board-parts/product-1.png"/>
    <image id="product-5" width="124" height="99" transform="translate(87.88 27.61) scale(0.73)" xlink:href="/assets/images/game-board-parts/product-5.png"/>
    <image id="product-3" width="148" height="123" transform="translate(89.41 29.31) scale(0.57)" xlink:href="/assets/images/game-board-parts/product-3.png"/>
  </g>

  <style>
    #tyqoon-mall #products-left {
      transform-origin: 182.4373px 121.438px;
      animation: products-left 8s cubic-bezier(0.34, 1.56, 0.64, 1) both infinite;
    }

    #tyqoon-mall #products-right {
      transform-origin: 499.2774px 121.438px;
      animation: products-right 8s 4s cubic-bezier(0.34, 1.56, 0.64, 1) both infinite;
    }

    @keyframes products-left {
      0%, 37.5%, 100% {
        opacity: 0;
        transform: rotate(-60deg);
      }
      10%, 25% {
        opacity: 1;
        transform: rotate(0deg);
      }
    }

    @keyframes products-right {
      0%, 37.5%, 100% {
        opacity: 0;
        transform: rotate(60deg);
      }
      10%, 25% {
        opacity: 1;
        transform: rotate(0deg);
      }
    }

    #tyqoon-mall #product-1 {
      animation: product-opacity 24s linear both infinite;
    }
    #tyqoon-mall #product-2 {
      animation: product-opacity 24s 4s linear both infinite;
    }
    #tyqoon-mall #product-3 {
      animation: product-opacity 24s 8s linear both infinite;
    }
    #tyqoon-mall #product-4 {
      animation: product-opacity 24s 12s linear both infinite;
    }
    #tyqoon-mall #product-5 {
      animation: product-opacity 24s 16s linear both infinite;
    }
    #tyqoon-mall #product-6 {
      animation: product-opacity 24s 20s linear both infinite;
    }

    @keyframes product-opacity {
      0%, 12.5%, 100% {
        opacity: 0;
      }
      0.1%, 12.4% {
        opacity: 1;
      }
    }

    #tyqoon-mall #t-1 {
      stroke-dasharray: 26;
      stroke-dashoffset: 26;
      animation: t-1 4.7s cubic-bezier(0.37, 0, 0.63, 1) both infinite;
    }

    @keyframes t-1 {
      0% {
        stroke-dashoffset: 26;
      }
      6.38%, 63.8% {
        stroke-dashoffset: 0;
      }
      69.1%, 100% {
        stroke-dashoffset: -26;
      }
    }

    #tyqoon-mall #t-2 {
      stroke-dasharray: 31;
      stroke-dashoffset: 31;
      animation: t-2 4.7s cubic-bezier(0.37, 0, 0.63, 1) both infinite;
    }

    @keyframes t-2 {
      0%, 4.25% {
        stroke-dashoffset: 31;
      }
      12.76%, 63.8% {
        stroke-dashoffset: 0;
      }
      65.95%, 100% {
        stroke-dashoffset: 31;
      }
    }

    #tyqoon-mall #y-1 {
      stroke-dasharray: 55;
      stroke-dashoffset: 55;
      animation: y-1 4.7s cubic-bezier(0.37, 0, 0.63, 1) both infinite;
    }

    @keyframes y-1 {
      0%, 4.25% {
        stroke-dashoffset: 55;
      }
      14.89%, 65.95% {
        stroke-dashoffset: 0;
      }
      72.34%, 100% {
        stroke-dashoffset: -55;
      }
    }

    #tyqoon-mall #y-2 {
      stroke-dasharray: 12;
      stroke-dashoffset: 12;
      animation: y-2 4.7s cubic-bezier(0.37, 0, 0.63, 1) both infinite;
    }

    @keyframes y-2 {
      0%, 10.63% {
        stroke-dashoffset: 12;
      }
      14.89%, 65.95% {
        stroke-dashoffset: 0;
      }
      68%, 100% {
        stroke-dashoffset: 12;
      }
    }

    #tyqoon-mall #q-1 {
      stroke-dasharray: 88;
      stroke-dashoffset: 88;
      animation: q-1 4.7s cubic-bezier(0.37, 0, 0.63, 1) both infinite;
    }

    @keyframes q-1 {
      0%, 8.5% {
        stroke-dashoffset: 88;
      }
      21.27%, 68.08% {
        stroke-dashoffset: 0;
      }
      77.65%, 100% {
        stroke-dashoffset: -88;
      }
    }

    #tyqoon-mall #q-2 {
      stroke-dasharray: 9;
      stroke-dashoffset: 9;
      animation: q-2 4.7s cubic-bezier(0.37, 0, 0.63, 1) both infinite;
    }

    @keyframes q-2 {
      0%, 13.76% {
        stroke-dashoffset: 9;
      }
      17.02%, 68.08% {
        stroke-dashoffset: 0;
      }
      72.34%, 100% {
        stroke-dashoffset: 9;
      }
    }

    #tyqoon-mall #infinity-1,
    #tyqoon-mall #infinity-2 {
      stroke-dasharray: 198;
      stroke-dashoffset: 198;
      animation: infinity 4.7s cubic-bezier(0.37, 0, 0.63, 1) both infinite;
    }

    @keyframes infinity {
      0%, 12.76% {
        stroke-dashoffset: 198;
      }
      34.04%, 70.21% {
        stroke-dashoffset: 0;
      }
      85.1%, 100% {
        stroke-dashoffset: -198;
      }
    }

    #tyqoon-mall #letter-n {
      stroke-dasharray: 101;
      stroke-dashoffset: 101;
      animation: letter-n 4.7s cubic-bezier(0.37, 0, 0.63, 1) both infinite;
    }

    @keyframes letter-n {
      0%, 21.27% {
        stroke-dashoffset: 101;
      }
      36.17%, 74.46% {
        stroke-dashoffset: 0;
      }
      87.1% {
        opacity: 1;
      }
      89.36%, 100% {
        opacity: 0;
        stroke-dashoffset: -101;
      }
    }
  </style>
</svg>
