<?xml version="1.0" encoding="utf-8"?>
<!-- Generator: Adobe Illustrator 23.0.2, SVG Export Plug-In . SVG Version: 6.00 Build 0)  -->
<!DOCTYPE svg PUBLIC "-//W3C//DTD SVG 1.1//EN" "http://www.w3.org/Graphics/SVG/1.1/DTD/svg11.dtd" [
	<!ENTITY ns_extend "http://ns.adobe.com/Extensibility/1.0/">
	<!ENTITY ns_ai "http://ns.adobe.com/AdobeIllustrator/10.0/">
	<!ENTITY ns_graphs "http://ns.adobe.com/Graphs/1.0/">
	<!ENTITY ns_vars "http://ns.adobe.com/Variables/1.0/">
	<!ENTITY ns_imrep "http://ns.adobe.com/ImageReplacement/1.0/">
	<!ENTITY ns_sfw "http://ns.adobe.com/SaveForWeb/1.0/">
	<!ENTITY ns_custom "http://ns.adobe.com/GenericCustomNamespace/1.0/">
	<!ENTITY ns_adobe_xpath "http://ns.adobe.com/XPath/1.0/">
]>
<svg version="1.1" id="Layer_1" xmlns:x="&ns_extend;" xmlns:i="&ns_ai;" xmlns:graph="&ns_graphs;"
	 xmlns="http://www.w3.org/2000/svg" xmlns:xlink="http://www.w3.org/1999/xlink" x="0px" y="0px" viewBox="0 0 595.28 150.75"
	 style="enable-background:new 0 0 595.28 150.75;" xml:space="preserve">
<style type="text/css">
	.st0{fill:#FF7600;}
	.st1{fill:#FF9B16;}
	.st2{fill:#22282D;}
</style>
<metadata>
	<sfw  xmlns="&ns_sfw;">
		<slices></slices>
		<sliceSourceBounds  bottomLeftOrigin="true" height="95.01" width="583.36" x="5.96" y="-472.92"></sliceSourceBounds>
	</sfw>
</metadata>
<g>
	<g>
		<path class="st0" d="M339.52,33.3c6.71-1.37,13.72-1.27,20.39,0.3l0,0.06c-0.05,5.3,0.01,10.59-0.04,15.89
			c-6.78-2.47-14.42-2.56-21.25-0.24c-6.84,2.32-12.29,7.76-15.42,14.17c-3.27,6.75-4.09,14.49-3.24,21.88
			c0.87,7.57,4.61,14.79,10.46,19.72c7.95,6.85,19.83,8.25,29.45,4.37c0.06,5.46,0.01,10.92,0.02,16.38v0.03
			c-7.35,2.09-15.21,1.83-22.63,0.24c-8.83-1.91-16.93-6.81-22.78-13.67c-5.57-6.37-8.98-14.45-10.2-22.79
			c-1.24-8.53-0.89-17.41,1.88-25.62c2.84-8.5,8.25-16.03,15.09-21.78C326.49,37.82,332.8,34.68,339.52,33.3z"/>
		<path class="st0" d="M434.5,33.15c6.68-1.33,13.64-0.95,20.27,0.5c8.64,1.92,16.58,6.67,22.39,13.33
			c5.57,6.24,9.08,14.17,10.39,22.41c1.5,9.5,0.99,19.5-2.61,28.5c-3.48,8.7-9.58,16.33-17.19,21.78
			c-9.44,6.76-21.7,8.99-33.04,6.94c-0.02-5.36,0.08-10.72-0.06-16.07c6.19,1.58,12.87,1.35,18.9-0.79
			c6.87-2.46,12.37-8.02,15.32-14.63c2.39-5.34,3.19-11.27,3.03-17.08c-0.15-5.66-1.53-11.34-4.44-16.23
			c-3.28-5.48-8.25-10.08-14.28-12.35c-5.86-2.17-12.44-2.47-18.44-0.68c-0.18-5.1,0.22-10.22-0.21-15.31L434.5,33.15z"/>
		<g>
			<path class="st1" d="M414.23,43.48c5.81-4.96,12.73-8.78,20.25-10.33l0.05,0.33c0.44,5.09,0.03,10.21,0.21,15.31
				c-5.81,1.74-10.93,5.28-15.26,9.45c-6.44,6.25-11.45,13.79-15.77,21.59c4.36,8.66,9.76,17.05,17.22,23.38
				c3.99,3.36,8.65,6.01,13.72,7.33c0.13,5.36,0.03,10.72,0.06,16.07c-9.49-1.7-18.03-6.97-24.75-13.75
				c-5.63-5.6-10.24-12.14-14.18-19.01c-4.57,7.15-9.55,14.14-15.78,19.97c-5.7,5.39-12.48,9.88-20.1,12
				c-0.01-5.46,0.04-10.92-0.02-16.38c6.02-2.43,11.13-6.64,15.47-11.39c5.05-5.56,9.16-11.89,12.78-18.45
				c-4.95-9.76-11.17-19.31-20.19-25.78c-2.49-1.76-5.2-3.22-8.06-4.29c0.06-5.3,0-10.6,0.04-15.89
				c11.85,2.68,21.71,10.84,28.85,20.4c2.79,3.66,5.22,7.57,7.46,11.58C401.15,57.46,406.94,49.7,414.23,43.48z"/>
		</g>
	</g>
	<path class="st0" d="M87.21,35.1c1.77,1.82,2.65,4.01,2.65,6.56c0,2.56-0.88,4.72-2.65,6.49c-1.77,1.77-3.93,2.65-6.49,2.65H69.37
		H57.13v67.39c0,2.56-0.91,4.72-2.73,6.49c-1.82,1.77-4.01,2.65-6.56,2.65c-2.56,0-4.72-0.88-6.49-2.65
		c-1.77-1.77-2.65-3.93-2.65-6.49V50.8H27.49H15.1c-2.56,0-4.72-0.88-6.49-2.65c-1.77-1.77-2.65-3.93-2.65-6.49
		c0-2.56,0.88-4.74,2.65-6.56c1.77-1.82,3.93-2.73,6.49-2.73h12.39h41.88h11.36C83.28,32.37,85.44,33.28,87.21,35.1z"/>
	<path class="st0" d="M182.47,32.52c2.56,0,4.72,0.88,6.49,2.65c1.77,1.77,2.65,3.93,2.65,6.49v9.44c-0.1,3.15-0.44,6.19-1.03,9.14
		c-0.59,2.95-1.53,5.85-2.8,8.7c-2.36,5.51-5.7,10.52-10.03,15.04c-2.26,2.16-4.62,4.11-7.08,5.83c-2.46,1.72-5.11,3.17-7.96,4.35
		c-1.57,0.59-3.12,1.13-4.65,1.62c-1.53,0.49-3.12,0.88-4.79,1.18v21.38c0,2.56-0.89,4.7-2.65,6.42c-1.77,1.72-3.93,2.58-6.49,2.58
		c-2.46,0-4.57-0.86-6.34-2.58c-1.77-1.72-2.65-3.86-2.65-6.42V96.96c-1.67-0.3-3.27-0.69-4.79-1.18c-1.53-0.49-3.07-1.03-4.64-1.62
		c-2.85-1.18-5.51-2.63-7.96-4.35c-2.46-1.72-4.82-3.66-7.08-5.83c-4.33-4.42-7.72-9.44-10.17-15.04
		c-2.26-5.6-3.49-11.55-3.69-17.84v-9.44c0-2.56,0.88-4.72,2.65-6.49c1.77-1.77,3.93-2.65,6.49-2.65c2.56,0,4.69,0.88,6.42,2.65
		c1.72,1.77,2.58,3.93,2.58,6.49v8.85c0,4.03,0.76,7.81,2.29,11.35c1.52,3.54,3.61,6.64,6.27,9.29c2.65,2.65,5.75,4.74,9.29,6.27
		c3.54,1.53,7.32,2.29,11.36,2.29c4.03,0,7.84-0.76,11.43-2.29c3.59-1.52,6.71-3.61,9.36-6.27c2.65-2.65,4.74-5.75,6.27-9.29
		c1.52-3.54,2.29-7.32,2.29-11.35v-8.85c0-2.56,0.86-4.72,2.58-6.49C177.77,33.4,179.91,32.52,182.47,32.52z"/>
	<path class="st2" d="M206.2,49.91c4.28-5.71,9.64-10.12,16.09-13.22c6.45-3.1,13.26-4.52,20.44-4.27
		c5.82,0.15,11.42,1.44,16.81,3.84c5.38,2.41,10.06,5.77,14.04,10.08c3.16,3.45,5.74,7.29,7.74,11.52
		c2.01,4.23,3.31,8.65,3.91,13.26c0.71,5.65,0.35,11.18-1.06,16.58c-1.42,5.4-3.77,10.36-7.05,14.87l9.76,10.26
		c1.64,1.73,2.42,3.77,2.33,6.13c-0.09,2.36-0.99,4.36-2.71,6c-1.72,1.64-3.75,2.43-6.08,2.36c-2.33-0.06-4.32-0.96-5.96-2.68
		l-9.95-10.46c-5.71,3.41-11.88,5.48-18.5,6.21c-6.62,0.73-13.11-0.06-19.46-2.36c-3.53-1.32-6.84-3.04-9.93-5.17
		c-3.09-2.12-5.87-4.57-8.33-7.36c-2.46-2.78-4.54-5.86-6.24-9.24c-1.7-3.38-2.96-6.89-3.78-10.54c-0.11-0.78-0.24-1.51-0.39-2.19
		c-0.15-0.68-0.24-1.38-0.29-2.1c-0.64-5.71-0.21-11.25,1.31-16.62C200.42,59.45,202.85,54.49,206.2,49.91z M268.31,72.24
		c-0.57-3.38-1.73-6.52-3.47-9.41c-1.75-2.89-3.95-5.41-6.62-7.55c-1.21-1-2.51-1.88-3.92-2.63c-1.41-0.75-2.85-1.37-4.33-1.86
		c-3.6-1.13-7.28-1.55-11.04-1.26c-3.76,0.29-7.28,1.36-10.56,3.22c-3.34,1.79-6.17,4.16-8.47,7.11c-2.3,2.95-3.92,6.26-4.84,9.92
		c-1.21,4.82-1.11,9.6,0.3,14.33c1.41,4.73,3.92,8.8,7.53,12.19c2.72,2.6,5.85,4.56,9.38,5.88c6.73,2.16,12.99,2.06,18.94-0.18
		c3-1.08,5.71-2.68,8.12-4.79c2.41-2.1,4.36-4.56,5.85-7.37c1.49-2.68,2.49-5.53,3.02-8.56C268.72,78.24,268.75,75.23,268.31,72.24z
		"/>
</g>
<path class="st0" d="M502.76,118.07v-76.4c0-5.14,4.17-9.31,9.31-9.31h0.16c2.44,0,4.76,1.04,6.39,2.86l52.28,58.64V41.58
	c0-5.09,4.13-9.22,9.22-9.22h0c5.09,0,9.22,4.13,9.22,9.22v76.52c0,5.1-4.14,9.23-9.24,9.22l-0.13,0c-2.61,0-5.09-1.12-6.82-3.07
	l-51.94-58.4v52.23c0,5.11-4.16,9.24-9.26,9.22h0C506.86,127.26,502.76,123.14,502.76,118.07z"/>
</svg>
