<?xml version="1.0" encoding="utf-8"?>
<!-- Svg Vector Icons : http://www.onlinewebfonts.com/icon -->
<!DOCTYPE svg PUBLIC "-//W3C//DTD SVG 1.1//EN" "http://www.w3.org/Graphics/SVG/1.1/DTD/svg11.dtd">
<svg version="1.1" xmlns="http://www.w3.org/2000/svg" xmlns:xlink="http://www.w3.org/1999/xlink" x="0px" y="0px" viewBox="0 0 1000 1000" enable-background="new 0 0 1000 1000" xml:space="preserve">
<metadata> Svg Vector Icons : http://www.onlinewebfonts.com/icon </metadata>
<g><path d="M958.2,990l-74.6-5.7c-11.4-149.9-108.9-275.5-243-328.3c-42.6,20.5-90.2,32.3-140.6,32.3c-50.5,0-98.1-11.8-140.7-32.3c-134.1,52.8-231.5,178.4-243,328.3L41.8,990c10.9-165.6,109.7-307,250.2-378.5c-78.3-61.7-128.8-157.2-128.8-264.6C163.1,160.8,314,10,500,10c186,0,336.8,150.8,336.8,336.9c0,107.4-50.5,202.9-128.8,264.6C848.5,683,947.3,824.4,958.2,990z M768.7,341.9c0-148.4-120.3-268.7-268.7-268.7c-148.4,0-268.7,120.3-268.7,268.7S351.6,610.6,500,610.6C648.4,610.6,768.7,490.3,768.7,341.9z"/></g>
</svg>